<?xml version="1.0"?>
<svg width="636" height="636" xmlns="http://www.w3.org/2000/svg" xmlns:svg="http://www.w3.org/2000/svg">
 <g class="layer">
  <title>Layer 1</title>
  <g id="svg_1">
   <path d="m460.48,601l-0.39,-0.82l1.49,-1.02l-4.17,-8.35l-0.34,2.76l-1.9,8.25l0.18,0.45l1.56,-0.49l0.39,0.81l-4.59,2.34l-0.4,-0.82l1.26,-0.89l-5.15,-10.44l-1.46,0.52l-0.39,-0.82l4.69,-2.3l0.39,0.81l-1.35,0.87l4.25,8.47l0.28,-2.58l1.96,-8.43l-0.35,-0.61l-1.68,0.57l-0.39,-0.82l4.69,-2.3l0.39,0.81l-1.35,0.86l5.15,10.45l1.44,-0.43l0.39,0.82l-4.6,2.33z" fill="black" id="svg_2"/>
   <path d="m449.1,606.2c-0.5,0.38 -0.86,0.58 -1.23,0.79c-0.36,0.21 -0.72,0.42 -1.05,0.53c-1.4,0.65 -2.6,0.94 -3.57,0.78c-0.98,-0.16 -1.66,-0.65 -2.1,-1.68c-0.37,-0.92 -0.45,-1.75 -0.12,-2.58c0.32,-0.83 0.91,-1.49 1.65,-2c-1.03,0.43 -1.96,0.49 -2.82,0.26c-0.83,-0.32 -1.39,-0.88 -1.78,-1.7c-0.58,-1.27 -0.61,-2.3 -0.14,-3.3c0.47,-0.99 1.51,-1.83 3.15,-2.62c0.7,-0.32 1.37,-0.55 1.89,-0.61c0.56,-0.16 1.08,-0.22 1.39,-0.24c0.31,-0.02 0.53,-0.06 0.62,-0.03l1,3.11l-0.82,0.4l-1.49,-2.03c-0.69,-0.09 -1.46,0.12 -2.49,0.55c-0.79,0.3 -1.23,0.79 -1.41,1.46c-0.18,0.66 -0.07,1.4 0.3,2.32c0.32,0.69 0.79,1.23 1.43,1.5c0.64,0.27 1.47,0.19 2.51,-0.24l1.15,-0.51l0.46,0.94l-1.03,0.43c-0.46,0.19 -0.85,0.49 -1.26,0.89c-0.32,0.43 -0.54,0.87 -0.67,1.35c-0.03,0.5 0.01,1.12 0.26,1.7c0.3,0.79 0.79,1.23 1.36,1.38c0.57,0.15 1.22,0.02 2.01,-0.27c0.49,-0.28 0.94,-0.47 1.23,-0.8c0.3,-0.32 0.47,-0.58 0.52,-0.77l-0.36,-1.73l1.06,-0.53l1.34,2.6c-0.12,0.07 -0.48,0.28 -0.99,0.65z" fill="black" id="svg_3"/>
   <path d="m433.88,611.7l1.51,-0.31l0.37,0.91l-2.38,0.89c-0.36,0.21 -0.91,0.37 -1.49,0.62c-0.58,0.26 -0.94,0.46 -1.18,0.6c-1.59,0.6 -2.85,0.77 -3.71,0.54c-0.85,-0.23 -1.51,-0.82 -1.85,-1.82c-0.3,-0.8 -0.38,-1.63 -0.08,-2.37c0.2,-0.76 0.78,-1.42 1.51,-1.83c-1.13,0.41 -2.09,0.56 -2.92,0.23c-0.83,-0.32 -1.49,-0.91 -1.83,-1.91c-0.5,-1.16 -0.41,-2.25 0.18,-3.32c0.59,-1.06 1.75,-1.97 3.67,-2.68c0.46,-0.18 0.79,-0.3 1.22,-0.39c0.89,-0.27 1.47,-0.52 1.68,-0.56l2.29,-0.92l0.27,0.89l-1.42,0.74l4.16,10.69zm-7.9,-9.66c-1.16,0.51 -1.9,1.02 -2.3,1.73c-0.39,0.71 -0.29,1.45 -0.02,2.34c0.37,0.91 0.84,1.45 1.48,1.72c0.64,0.27 1.48,0.19 2.51,-0.25c1.15,-0.5 1.92,-0.7 2.28,-0.91l-1.96,-5.21c-0.41,-0.01 -0.98,0.24 -1.99,0.58zm3.26,6.07l-0.91,0.37c-0.8,0.3 -1.33,0.76 -1.6,1.4c-0.28,0.64 -0.26,1.36 0.13,2.18c0.3,0.79 0.76,1.32 1.31,1.57c0.54,0.25 1.38,0.17 2.41,-0.27c0.46,-0.18 0.82,-0.39 1.28,-0.57l0.36,-0.21l-1.85,-4.88c-0.24,0.14 -0.58,0.25 -1.13,0.41z" fill="black" id="svg_4"/>
   <path d="m419.04,618.42l-1.92,0.7l-8.41,-10.8l-1.17,0.19l-0.27,-0.89l4.7,-1.59l0.27,0.89l-1.39,0.64l1.7,2.39l5.16,-1.77l-0.05,-2.86l-1.6,0.28l-0.27,-0.89l4.25,-1.41l0.27,0.89l-1.06,0.53l-0.21,13.7zm-1.98,-2.47l0.95,1.38l-0.14,-1.77l-0.15,-6.26l-4.49,1.55l3.83,5.1z" fill="black" id="svg_5"/>
   <path d="m404.43,609.1c1.14,0.31 2.01,0.85 2.78,1.77c0.78,0.92 1.4,2 1.74,3.42c0.36,1.31 0.43,2.56 0.19,3.82c-0.23,1.26 -0.8,2.23 -1.62,3.02c-0.83,0.8 -1.82,1.45 -3.04,1.84c-0.89,0.27 -2.06,0.47 -3.4,0.51l-0.62,0.04l-0.76,-3.26l1.23,-0.38l1.16,2.14c0.19,0.05 0.57,0.16 0.97,0.16c0.41,0.01 0.96,-0.15 1.6,-0.28c0.77,-0.2 1.4,-0.65 1.86,-1.23c0.47,-0.59 0.79,-1.42 0.83,-2.33c0.04,-0.91 -0.06,-2.05 -0.38,-3.16c-0.31,-1.1 -0.75,-2.13 -1.35,-2.91c-0.61,-0.77 -1.25,-1.45 -1.98,-1.75c-0.74,-0.3 -1.62,-0.43 -2.5,-0.16c-0.65,0.13 -1.13,0.41 -1.37,0.55c-0.24,0.14 -0.54,0.47 -0.71,0.73l-0.22,1.97l-1.17,0.2l-0.32,-2.63c0.22,-0.05 0.58,-0.25 1.06,-0.53c0.39,-0.31 0.75,-0.52 1.21,-0.7c0.36,-0.21 0.91,-0.36 1.46,-0.52c1.06,-0.53 2.21,-0.63 3.35,-0.33z" fill="black" id="svg_6"/>
   <path d="m390.34,623.66c-0.38,1.02 -0.94,1.99 -1.62,2.62c-0.8,0.71 -1.64,1.19 -2.6,1.34c-1.2,0.29 -2.29,0.2 -3.22,-0.15c-0.92,-0.35 -1.77,-0.98 -2.45,-1.87c-0.68,-0.9 -1.21,-1.96 -1.45,-3.35c-0.3,-1.51 -0.35,-2.84 -0.14,-4.01c0.23,-1.26 0.8,-2.23 1.53,-3.05c0.73,-0.82 1.67,-1.28 2.77,-1.6c1.2,-0.29 2.32,-0.3 3.34,0.08c1.02,0.37 1.77,0.98 2.47,1.78c0.68,0.9 1.21,1.96 1.45,3.35l2.92,-0.65l-1.22,-5.32l-1.58,0.19l-0.17,-0.86l5.01,-1.21l0.17,0.87l-1.46,0.52l2.67,11.31l1.46,-0.12l0.17,0.86l-4.88,1.14l-0.18,-0.86l1.47,-0.53l-1.14,-4.89l-2.95,0.74c0.03,1.44 -0.09,2.63 -0.37,3.67zm-2.07,0.87c0.43,-1.21 0.43,-2.73 -0.03,-4.79c-0.45,-1.75 -1.1,-3.15 -1.99,-4c-0.89,-0.85 -1.91,-1.22 -3.21,-0.96c-1.2,0.29 -1.9,1.02 -2.3,2.13c-0.4,1.12 -0.33,2.77 0.13,4.83c0.45,1.75 1,3.12 1.89,3.97c0.87,0.94 1.92,1.22 3.02,0.91c1.27,-0.17 2.07,-0.88 2.49,-2.09z" fill="black" id="svg_7"/>
   <path d="m369.07,622.85c-0.57,-0.56 -1.39,-1.29 -2.26,-2.23c-0.63,-0.68 -1,-1.19 -1.33,-1.48c-0.33,-0.29 -0.59,-0.46 -0.78,-0.52l-0.69,-0.08l-0.18,-0.86l2.25,-0.42c0.31,-0.02 0.67,0.18 1.06,0.59c0.4,0.42 1.04,1.1 1.71,1.99c0.85,1.04 1.48,1.72 2.04,2.28c0.47,0.53 0.92,0.75 1.35,0.67l1.17,-0.2l-0.93,-5.24l-1.65,0.07l-0.18,-0.87l5.03,-0.89l0.15,0.96l-1.44,0.43l2.03,11.44l1.52,0l0.15,0.96l-4.9,0.82l-0.1,-1.15l1.46,-0.52l-0.91,-5.34l-1.6,0.29l-2.82,5.96l1.55,-0.09l0.15,0.96l-4.5,0.83l-0.15,-0.96l1.44,-0.43l3.06,-6.11c-0.5,-0.03 -1.12,-0.4 -1.7,-0.86z" fill="black" id="svg_8"/>
   <path d="m360.71,618.68c1,0.47 1.72,1.17 2.25,2.23c0.56,0.96 0.95,2.19 1.19,3.58c0.24,1.38 0.09,2.67 -0.33,3.88c-0.4,1.12 -1.06,2.06 -1.86,2.76c-0.9,0.68 -1.83,1.14 -3.1,1.31c-1.92,0.3 -3.53,-0.13 -4.66,-1.25c-1.13,-1.11 -1.94,-2.66 -2.16,-4.86c-0.21,-1.48 -0.07,-2.76 0.33,-3.88c0.42,-1.21 1.06,-2.06 1.88,-2.86c0.9,-0.67 1.93,-1.11 3.1,-1.3c1.27,-0.17 2.37,-0.08 3.36,0.39zm0.78,10.8c0.52,-1.19 0.71,-2.66 0.46,-4.77c-0.21,-1.89 -0.76,-3.26 -1.6,-4.3c-0.84,-1.04 -1.86,-1.41 -3.04,-1.22c-1.17,0.2 -2.04,0.78 -2.56,1.96c-0.52,1.19 -0.74,2.76 -0.46,4.77c0.21,1.89 0.76,3.26 1.62,4.2c0.78,0.92 1.77,1.39 3.04,1.22c1.12,0 2.01,-0.68 2.54,-1.86z" fill="black" id="svg_9"/>
   <path d="m349.34,632.23l1.5,0.1l0.06,0.93l-2.51,0.24c-0.41,0 -0.96,0.16 -1.58,0.19c-0.65,0.14 -1.05,0.13 -1.27,0.17c-1.67,0.17 -2.96,0.02 -3.74,-0.49c-0.78,-0.51 -1.2,-1.24 -1.32,-2.29c-0.08,-0.84 0.15,-1.69 0.52,-2.31c0.36,-0.61 1.11,-1.12 2,-1.39c-1.15,0.1 -2.12,-0.06 -2.9,-0.58c-0.78,-0.51 -1.17,-1.33 -1.23,-2.26c-0.07,-1.24 0.21,-2.29 1.06,-3.18c0.85,-0.9 2.22,-1.44 4.3,-1.6c0.43,-0.09 0.83,-0.08 1.33,-0.05c0.94,-0.05 1.56,-0.09 1.75,-0.04l2.51,-0.25l0.05,0.94l-1.51,0.31l0.98,11.56zm-4.99,-11.42c-1.24,0.08 -2.15,0.44 -2.62,1.03c-0.55,0.57 -0.76,1.33 -0.61,2.28c0.06,0.93 0.38,1.63 0.9,1.97c0.52,0.35 1.37,0.58 2.43,0.45c1.24,-0.07 2.07,-0.16 2.41,-0.27l-0.46,-5.52c-0.38,-0.1 -1,-0.06 -2.05,0.06zm1.56,6.73l-1.05,0.13c-0.84,0.08 -1.54,0.4 -1.88,0.92c-0.34,0.52 -0.55,1.28 -0.47,2.12c0.09,0.84 0.31,1.51 0.83,1.85c0.52,0.34 1.28,0.55 2.33,0.42c0.43,-0.09 0.94,-0.05 1.39,-0.24l0.43,-0.09l-0.43,-5.21c-0.31,0.02 -0.62,0.04 -1.15,0.1z" fill="black" id="svg_10"/>
   <path d="m319.99,634.96l-0.06,-0.93l1.6,-0.29l-0.35,-11.6l-1.79,-0.17l-0.05,-0.93l5.23,-0.13l0.05,0.93l-1.58,0.19l0.33,11.7l5.95,-0.14l-0.33,-11.7l-1.69,-0.15l-0.06,-0.93l5.23,-0.13l0.05,0.93l-1.48,0.22l0.35,11.6l1.58,0.22l0.05,0.93l-13.03,0.38z" fill="black" id="svg_11"/>
   <path d="m315.58,621.76c0.85,0.64 1.55,1.43 1.96,2.56c0.43,1.04 0.6,2.3 0.63,3.74c-0.07,1.4 -0.31,2.66 -0.9,3.73c-0.59,1.06 -1.32,1.89 -2.28,2.44c-0.97,0.56 -2.07,0.87 -3.19,0.88c-1.94,-0.01 -3.38,-0.7 -4.39,-1.89c-0.98,-1.28 -1.45,-2.93 -1.46,-5.18c-0.02,-1.43 0.33,-2.76 0.92,-3.83c0.59,-1.06 1.35,-1.98 2.31,-2.53c0.97,-0.56 2.07,-0.88 3.29,-0.85c1.21,0.01 2.26,0.29 3.11,0.93zm-0.76,10.8c0.69,-1.04 1.1,-2.56 1.13,-4.59c-0.02,-1.84 -0.32,-3.35 -0.95,-4.43c-0.63,-1.08 -1.6,-1.65 -2.81,-1.67c-1.22,-0.02 -2.18,0.54 -2.87,1.58c-0.68,1.03 -1.12,2.65 -1.15,4.68c-0.01,1.93 0.23,3.32 0.95,4.43c0.63,1.08 1.59,1.65 2.81,1.67c1.17,-0.2 2.11,-0.66 2.89,-1.67z" fill="black" id="svg_12"/>
   <path d="m300.07,625.65c0.37,-1.73 0.79,-2.94 1.43,-3.79c0.31,-0.43 0.6,-0.76 0.97,-0.96c0.36,-0.21 0.79,-0.3 1.19,-0.3c0.6,0.06 1.01,0.07 1.29,0.15l0,1.52c-0.29,-0.07 -0.79,-0.1 -1.38,-0.16c-0.19,-0.05 -0.41,-0.01 -0.65,0.13c-0.24,0.14 -0.39,0.3 -0.53,0.47c-1.1,1.44 -1.7,4.43 -1.99,8.94l-0.1,1.5l2.15,0.37l-0.04,0.91l-10.83,-0.66l0.04,-0.91l1.77,-0.14l0.77,-11.61l-1.86,-0.29l0.04,-0.91l5.7,0.41l-0.04,0.91l-1.96,0.08l-0.77,11.61l3.82,0.21l0.14,-1.69c0.28,-2.17 0.5,-4.15 0.84,-5.79z" fill="black" id="svg_13"/>
   <path d="m288.19,632.35l1.52,0.41l-0.13,0.88l-9.51,-1.02l0.08,-2.94l1.09,0.09l0.33,1.82l4.62,0.63l0.59,-5.24l-3.07,-0.31l-0.41,1.52l-1,-0.07l0.43,-4.26l1,0.06l0.07,1.65l3.04,0.41l0.57,-5.55l-5.29,-0.4l-1.2,2.22l-1.09,-0.5l0.86,-3.23l10.29,1.13l-0.13,0.88l-1.53,0l-1.13,11.82z" fill="black" id="svg_14"/>
   <path d="m272.76,630.66l3.17,0.34l1.2,-3.75l1.17,0.21l-1.01,4.92l-11.55,-1.77l0.51,-4.95l1.17,0.21l0.05,3.98l3.21,0.56l1.7,-11.67l-2.59,-0.59l0.14,-0.88l7.04,1.07l-0.13,0.88l-2.41,-0.13l-1.67,11.57z" fill="black" id="svg_15"/>
   <path d="m259.43,621.48l0.88,0.14c0.33,-0.12 0.75,-0.52 1.09,-1.03c0.34,-0.52 0.93,-1.18 1.44,-1.96c0.51,-0.78 0.98,-1.37 1.3,-1.79c0.31,-0.43 0.55,-0.57 0.74,-0.51l2.52,0.47l-0.13,0.88l-0.74,0.11c-0.22,0.04 -0.43,0.08 -0.72,0.41c-0.27,0.24 -0.71,0.73 -1.17,1.32c-0.61,0.75 -1.07,1.34 -1.49,1.74c-0.43,0.49 -0.8,0.7 -1.25,0.89c0.8,0.42 1.36,0.97 1.69,1.67c0.32,0.7 0.4,1.53 0.24,2.51c-0.28,1.45 -0.94,2.39 -1.86,2.76c-1.01,0.34 -2.25,0.42 -3.89,0.08c-0.38,-0.1 -0.76,-0.2 -1.33,-0.36c-0.57,-0.15 -1.05,-0.28 -1.33,-0.35l-2.62,-0.5l0.14,-0.88l1.59,0.12l2.25,-11.42l-1.69,-0.55l0.14,-0.88l5.42,1.05l-0.13,0.88l-1.79,-0.18l-0.89,4.86l1.59,0.52zm-2.55,6.45c0.57,0.15 1.05,0.28 1.43,0.38c0.97,0.16 1.69,0.15 2.29,-0.2c0.61,-0.34 0.98,-0.96 1.16,-2.03c0.16,-0.98 0.08,-1.81 -0.37,-2.44c-0.44,-0.63 -1.05,-1 -2,-1.25c-0.98,-0.16 -1.64,-0.34 -1.95,-0.32l-1.1,5.61l0.54,0.25z" fill="black" id="svg_16"/>
   <path d="m246.3,625.61l3.19,0.65l1.49,-3.68l1.24,0.33l-1.49,4.8l-11.29,-2.72l0.92,-4.95l1.14,0.31l-0.35,3.98l3.13,0.84l2.68,-11.51l-2.54,-0.78l0.23,-0.86l6.99,1.67l-0.24,0.86l-2.45,-0.35l-2.65,11.41z" fill="black" id="svg_17"/>
   <path d="m234.3,609.96c0.8,0.83 1.23,1.86 1.43,3.03c0.19,1.18 0.05,2.46 -0.33,3.89c-0.36,1.33 -1.07,2.46 -1.89,3.26c-0.85,0.89 -1.91,1.42 -3.01,1.74c-1.2,0.29 -2.3,0.2 -3.54,-0.13c-0.95,-0.26 -1.94,-0.73 -3.19,-1.37l-0.55,-0.25l1.15,-3.15l1.24,0.33l-0.23,2.38c0.14,0.25 0.4,0.42 0.75,0.61c0.36,0.2 0.9,0.45 1.47,0.6c0.76,0.2 1.48,0.19 2.24,-0.01c0.68,-0.23 1.42,-0.74 1.94,-1.52c0.61,-0.75 1.08,-1.75 1.38,-2.89c0.31,-1.14 0.49,-2.21 0.46,-3.24c-0.03,-1.02 -0.3,-1.91 -0.72,-2.63c-0.41,-0.73 -1.1,-1.21 -2.05,-1.47c-0.66,-0.18 -1.14,-0.3 -1.54,-0.31c-0.41,-0.01 -0.74,0.11 -0.99,0.25l-1.22,1.5l-1.08,-0.49l1.16,-2.44c0.28,0.07 0.69,0.08 1.19,0.11c0.5,0.04 0.91,0.04 1.31,0.05c0.41,0.01 0.98,0.16 1.55,0.31c1.23,0.33 2.3,0.92 3.07,1.84z" fill="black" id="svg_18"/>
   <path d="m215.86,617.96l0.32,-0.83l1.83,0.39l3.09,-8.85l-2.18,1.66l-7.21,4.48l-0.13,0.48l1.54,0.71l-0.32,0.83l-4.84,-1.7l0.32,-0.83l1.46,0.29l3.76,-11.01l-1.44,-0.7l0.32,-0.83l4.94,1.73l-0.33,0.83l-1.64,-0.33l-3.11,8.94l2.06,-1.59l7.42,-4.53l0.18,-0.66l-1.63,-0.75l0.32,-0.83l4.94,1.73l-0.33,0.83l-1.54,-0.31l-3.77,11.01l1.35,0.67l-0.33,0.83l-5.05,-1.66z" fill="black" id="svg_19"/>
   <path d="m196.77,610.91l1.65,-4.65l1.21,0.42l-0.9,3.74l3.75,1.61l4.36,-10.95l-2.99,-1.41l0.33,-0.83l6.83,2.64l-0.33,0.83l-1.99,-0.53l-4.22,10.78l1.78,0.99l-0.33,0.83l-9.15,-3.47z" fill="black" id="svg_20"/>
   <path d="m194.23,608.6l1.2,0.83l-0.32,0.83l-4.65,-2.06l0.33,-0.83l1.52,0.41l2.03,-4.55l-6.01,-2.63l-2.04,4.55l1.3,0.85l-0.33,0.83l-4.54,-2.03l0.32,-0.83l1.43,0.38l4.69,-10.66l-1.33,-0.76l0.33,-0.83l4.55,2.03l-0.33,0.83l-1.49,-0.5l-2.26,5l6.02,2.63l2.25,-5l-1.41,-0.79l0.32,-0.83l4.74,2.09l-0.33,0.83l-1.4,-0.48l-4.59,10.69z" fill="black" id="svg_21"/>
   <path d="m176.52,601.71l-1.8,-0.89l1.71,-13.6l-0.95,-0.66l0.42,-0.8l4.4,2.2l-0.41,0.8l-1.5,-0.5l-0.45,2.83l4.85,2.42l1.99,-2.11l-1.39,-0.88l0.42,-0.81l3.95,1.98l-0.42,0.8l-1.12,-0.4l-9.7,9.62zm0.24,-3.19l-0.34,1.64l1.17,-1.32l4.37,-4.53l-4.21,-2.15l-0.99,6.36z" fill="black" id="svg_22"/>
   <path d="m169.21,587.94c1.07,-1.34 2.04,-2.31 2.91,-2.89c0.48,-0.28 0.82,-0.39 1.25,-0.48c0.4,0.01 0.78,0.11 1.23,0.33c0.55,0.25 0.88,0.54 1.14,0.71l-0.57,1.38c-0.26,-0.17 -0.62,-0.37 -1.23,-0.74c-0.17,-0.14 -0.36,-0.19 -0.57,-0.15c-0.22,0.04 -0.43,0.09 -0.68,0.23c-1.54,0.81 -3.42,3.26 -5.7,7.23l-0.76,1.32l1.79,1.3l-0.42,0.8l-9.39,-5.27l0.42,-0.8l1.66,0.65l5.69,-10.19l-1.56,-1.03l0.42,-0.8l5.06,2.78l-0.42,0.8l-1.73,-0.77l-5.66,10.1l3.29,1.8l0.81,-1.52c0.89,-1.8 1.94,-3.45 3.02,-4.79z" fill="black" id="svg_23"/>
   <path d="m141.16,581.24l0.51,-0.78l1.64,0.74l6.2,-9.85l-1.34,-1.07l0.51,-0.78l4.61,2.97l-0.52,0.78l-1.54,-0.72l-6.2,9.85l1.34,1.07l-0.51,0.78l-4.7,-2.99zm12.81,1.6c-1.3,-0.86 -2.07,-1.78 -2.41,-2.79c-0.34,-1.01 -0.16,-2.08 0.55,-3.21c0.74,-1.23 1.73,-1.88 2.9,-2.07c1.18,-0.2 2.41,0.13 3.73,0.89c0.17,0.15 0.36,0.2 0.52,0.35c0.17,0.14 0.33,0.29 0.52,0.34c0.59,0.46 1.11,0.81 1.54,1.12l2.17,1.4l-0.52,0.78l-1.44,-0.7l-6.2,9.85l1.15,1.03l-0.52,0.77l-4.53,-2.84l0.51,-0.78l1.73,0.77l2.31,-3.66l-2.01,-1.25zm5.34,-5.5c-0.16,-0.14 -0.42,-0.31 -0.87,-0.54c-0.87,-0.54 -1.73,-0.77 -2.5,-0.56c-0.76,0.2 -1.42,0.74 -2.08,1.68c-0.54,0.87 -0.74,1.63 -0.54,2.4c0.2,0.77 0.74,1.42 1.62,1.96l1.65,1.05l3.36,-5.31c-0.21,-0.36 -0.38,-0.51 -0.64,-0.68z" fill="black" id="svg_24"/>
   <path d="m134.72,575.23l1.03,1.1l-0.51,0.77l-4.08,-3.02l0.51,-0.78l1.42,0.79l3.03,-4.08l-5.28,-3.86l-3.03,4.08l1.03,1.09l-0.51,0.78l-3.98,-3.01l0.51,-0.77l1.35,0.66l6.89,-9.36l-1.06,-0.99l0.51,-0.78l4.08,3.03l-0.51,0.78l-1.33,-0.77l-3.19,4.34l5.28,3.86l3.2,-4.34l-1.23,-1.14l0.52,-0.78l4.17,3.05l-0.51,0.78l-1.33,-0.76l-6.98,9.33z" fill="black" id="svg_25"/>
   <path d="m118.88,564.78l-1.57,-1.34l4.58,-12.93l-0.77,-0.92l0.58,-0.66l3.87,3.07l-0.62,0.76l-1.29,-0.86l-1.03,2.68l4.26,3.48l2.47,-1.58l-1.13,-1.12l0.58,-0.65l3.44,2.75l-0.58,0.66l-1.07,-0.59l-11.72,7.25zm1.01,-2.99l-0.63,1.56l1.41,-1.05l5.21,-3.49l-3.67,-3.02l-2.32,6z" fill="black" id="svg_26"/>
   <path d="m107.78,553.76l1.31,1.57l-0.58,0.66l-3.67,-3.43l3.76,-7.96l1.18,-2.12l-2,1.39l-7.59,4.39l-3.6,-3.31l0.58,-0.66l1.7,1.27l6.82,-9.48l-1.08,-1.3l0.59,-0.66l3.9,3.69l-0.59,0.66l-1.36,-0.98l-5.06,6.7l-2.19,2.87l2.41,-1.39l8.98,-5.03l0.9,0.85l-3.85,8.65l-1.61,3.34l2.69,-2.44l6.3,-5.65l-1.26,-1.35l0.58,-0.66l3.6,3.3l-0.59,0.66l-1.27,-0.95l-9,7.37z" fill="black" id="svg_27"/>
   <path d="m91.45,539.81l-1.43,-1.51l6.12,-12.21l-0.65,-0.99l0.68,-0.63l3.43,3.56l-0.68,0.64l-1.28,-0.96l-1.4,2.58l3.85,3.89l2.6,-1.34l-0.98,-1.29l0.68,-0.63l3.12,3.18l-0.68,0.63l-0.94,-0.66l-12.44,5.74zm1.39,-2.89l-0.82,1.51l1.54,-0.81l5.66,-2.86l-3.35,-3.45l-3.03,5.61z" fill="black" id="svg_28"/>
   <path d="m85.24,531.42l0.8,1.23l-0.68,0.63l-1.64,-1.86c-0.33,-0.29 -0.64,-0.68 -0.97,-0.97c-0.49,-0.44 -0.96,-0.97 -1.36,-1.39c-1.17,-1.33 -1.77,-2.51 -1.8,-3.53c-0.03,-1.03 0.51,-1.91 1.48,-2.87c0.78,-0.6 1.52,-1.12 2.36,-1.2c0.86,-0.17 1.74,-0.04 2.57,0.28c0.83,0.33 1.59,0.94 2.29,1.74c0.23,0.26 0.47,0.53 0.7,0.8c0.24,0.26 0.37,0.5 0.47,0.53l3.08,-2.74l-1.59,-2.06l0.68,-0.63l4.07,4.56l-0.68,0.63l-1.15,-1.02l-8.63,7.87zm2.34,-7.22c-0.63,-0.67 -1.43,-1.09 -2.22,-1.2c-0.78,-0.11 -1.82,0.33 -2.79,1.29c-0.8,0.7 -1.19,1.41 -1.18,2.13c0.01,0.71 0.4,1.53 1.11,2.33c0.23,0.27 0.56,0.56 0.89,0.85c0.16,0.14 0.33,0.29 0.4,0.41l4.94,-4.38c-0.23,-0.26 -0.61,-0.77 -1.15,-1.43z" fill="black" id="svg_29"/>
   <path d="m85.54,513.57c0.2,1.18 0.01,2.25 -0.58,3.31c-0.49,1.09 -1.37,2.08 -2.43,3.02c-1.07,0.93 -2.22,1.44 -3.4,1.63c-1.17,0.2 -2.39,0.18 -3.47,-0.32c-1.12,-0.4 -2.06,-1.06 -2.9,-2.1c-0.61,-0.77 -1.26,-1.76 -1.87,-2.94l-0.25,-0.58l2.69,-2.03l0.77,0.92l-1.51,1.84c0.04,0.21 0.06,0.52 0.24,0.98c0.21,0.36 0.49,0.84 0.86,1.35c0.54,0.65 1.16,1.02 1.92,1.22c0.76,0.21 1.59,0.13 2.48,-0.15c0.89,-0.27 1.85,-0.82 2.77,-1.6c0.92,-0.77 1.63,-1.5 2.17,-2.37c0.54,-0.87 0.86,-1.7 0.87,-2.51c0.02,-0.81 -0.28,-1.61 -0.79,-2.36c-0.38,-0.5 -0.8,-0.82 -1.13,-1.11c-0.33,-0.3 -0.61,-0.37 -0.92,-0.35l-1.9,0.61l-0.65,-0.99l2.29,-1.32c0.16,0.14 0.49,0.44 0.92,0.75c0.42,0.32 0.77,0.52 1.1,0.81c0.33,0.29 0.64,0.68 1.13,1.12c0.96,0.97 1.49,2.03 1.59,3.17z" fill="black" id="svg_30"/>
   <path d="m55.07,495.02l0.75,-0.51l1.14,1.42l7.82,-5.23l-2.74,-0.03l-8.43,-0.83l-0.39,0.3l0.71,1.52l-0.75,0.51l-2.81,-4.32l0.75,-0.51l1.03,1.09l9.68,-6.47l-0.74,-1.42l0.75,-0.51l2.91,4.34l-0.75,0.51l-1.08,-1.3l-7.94,5.3l2.56,-0.02l8.62,0.88l0.6,-0.35l-0.81,-1.54l0.75,-0.51l2.91,4.34l-0.75,0.52l-1,-1.19l-9.68,6.47l0.64,1.4l-0.74,0.51l-3.01,-4.37z" fill="black" id="svg_31"/>
   <path d="m48.45,484.38c-0.4,-0.41 -0.7,-0.8 -1.03,-1.09c-0.33,-0.29 -0.45,-0.63 -0.68,-0.89c-0.77,-1.33 -1.18,-2.46 -1.21,-3.48c-0.03,-1.03 0.46,-1.71 1.42,-2.27c0.85,-0.49 1.71,-0.66 2.56,-0.44c0.86,0.23 1.54,0.72 2.18,1.4c-0.56,-0.96 -0.8,-1.95 -0.58,-2.8c0.23,-0.86 0.72,-1.54 1.47,-2.05c1.11,-0.72 2.28,-0.92 3.3,-0.54c1.02,0.37 2.01,1.25 3.01,2.84c0.35,0.6 0.7,1.2 0.85,1.76c0.16,0.55 0.34,1.01 0.46,1.34c0.11,0.34 0.16,0.55 0.13,0.65l-2.91,1.36l-0.49,-0.85l1.77,-1.66c-0.01,-0.72 -0.31,-1.51 -0.89,-2.38c-0.42,-0.72 -1,-1.19 -1.6,-1.24c-0.59,-0.06 -1.46,0.11 -2.3,0.6c-0.63,0.44 -1.07,0.94 -1.34,1.58c-0.18,0.66 0,1.53 0.58,2.4l0.72,1.1l-0.87,0.59l-0.55,-0.97c-0.28,-0.48 -0.61,-0.77 -1.04,-1.09c-0.42,-0.32 -0.9,-0.44 -1.4,-0.48c-0.5,-0.03 -1.05,0.13 -1.65,0.48c-0.72,0.42 -1.07,0.94 -1.22,1.51c-0.06,0.59 0.08,1.24 0.49,1.96c0.28,0.48 0.59,0.87 0.94,1.07c0.33,0.29 0.61,0.36 0.83,0.32l1.68,-0.57l0.65,0.99l-2.36,1.61c-0.2,-0.05 -0.43,-0.32 -0.92,-0.76z" fill="black" id="svg_32"/>
   <path d="m41.1,469.99l0.52,1.46l-0.81,0.39l-1.23,-2.26c-0.21,-0.36 -0.49,-0.84 -0.86,-1.35c-0.37,-0.51 -0.58,-0.87 -0.72,-1.11c-0.81,-1.54 -1.1,-2.74 -1.06,-3.65c0.13,-0.88 0.62,-1.56 1.59,-2.12c0.81,-0.39 1.58,-0.59 2.34,-0.39c0.79,0.11 1.47,0.6 2.01,1.25c-0.53,-1.06 -0.78,-2.04 -0.55,-2.89c0.23,-0.86 0.72,-1.54 1.66,-2c1.08,-0.63 2.23,-0.73 3.32,-0.24c1.11,0.41 2.14,1.5 3.16,3.4c0.21,0.36 0.39,0.82 0.6,1.18c0.4,0.82 0.65,1.39 0.81,1.54l1.16,2.14l-0.82,0.4l-0.88,-1.26l-10.24,5.51zm3,-5.11l-0.46,-0.93c-0.42,-0.73 -0.89,-1.26 -1.55,-1.44c-0.67,-0.18 -1.32,-0.05 -2.14,0.35c-0.72,0.41 -1.25,0.88 -1.4,1.45c-0.16,0.57 0.05,1.34 0.51,2.28c0.21,0.36 0.48,0.84 0.69,1.2l0.21,0.36l4.63,-2.42c0,0 -0.21,-0.36 -0.49,-0.85zm5.65,-3.98c-0.63,-1.09 -1.26,-1.77 -1.99,-2.07c-0.74,-0.29 -1.48,-0.19 -2.33,0.3c-0.84,0.49 -1.37,0.96 -1.45,1.65c-0.09,0.69 0.02,1.43 0.58,2.39c0.62,1.09 0.94,1.78 1.15,2.15l4.89,-2.67c-0.14,-0.24 -0.39,-0.81 -0.85,-1.75z" fill="black" id="svg_33"/>
   <path d="m32.6,456.1l-0.92,-1.88l9.61,-9.65l-0.32,-1.1l0.82,-0.39l2.17,4.45l-0.82,0.39l-0.86,-1.35l-2.16,1.97l2.36,4.91l2.87,-0.45l-0.5,-1.56l0.82,-0.4l1.89,3.97l-0.82,0.39l-0.65,-0.98l-13.49,1.68zm2.16,-2.38l-1.33,1.17l1.72,-0.35l6.25,-0.87l-2.1,-4.33l-4.54,4.38z" fill="black" id="svg_34"/>
   <path d="m39.98,440.35c-0.19,1.07 -0.69,2.16 -1.42,2.98c-0.72,0.83 -1.86,1.64 -3.14,2.22c-1.27,0.58 -2.54,0.75 -3.73,0.63c-1.19,-0.12 -2.3,-0.52 -3.25,-1.18c-0.94,-0.66 -1.69,-1.67 -2.19,-2.83c-0.37,-0.91 -0.69,-2.01 -0.95,-3.31l-0.13,-0.64l3.17,-1.19l0.5,1.15l-2,1.4c-0.05,0.19 -0.06,0.6 0.03,1.03c0.09,0.43 0.25,0.98 0.5,1.56c0.32,0.7 0.76,1.32 1.47,1.72c0.71,0.39 1.47,0.6 2.4,0.54c0.94,-0.06 2.01,-0.28 3.17,-0.78c1.03,-0.44 1.99,-1 2.79,-1.7c0.8,-0.7 1.29,-1.38 1.52,-2.24c0.33,-0.83 0.25,-1.67 -0.15,-2.48c-0.25,-0.58 -0.53,-1.06 -0.76,-1.33c-0.24,-0.27 -0.47,-0.53 -0.85,-0.63l-2.03,-0.04l-0.31,-1.1l2.61,-0.63c0.14,0.25 0.35,0.61 0.65,0.99c0.3,0.39 0.63,0.68 0.84,1.04c0.21,0.36 0.49,0.85 0.74,1.42c0.51,1.16 0.7,2.33 0.52,3.4z" fill="black" id="svg_35"/>
   <path d="m23.79,428.17c-1.08,-0.18 -2.07,-0.66 -2.82,-1.26c-0.76,-0.61 -1.34,-1.48 -1.68,-2.49c-0.41,-1.13 -0.54,-2.18 -0.26,-3.23c0.28,-1.04 0.73,-1.94 1.53,-2.64c0.82,-0.8 1.79,-1.36 3.04,-1.84c1.46,-0.52 2.73,-0.69 3.95,-0.67c1.19,0.11 2.3,0.52 3.15,1.15c0.85,0.63 1.53,1.53 1.96,2.56c0.41,1.13 0.51,2.28 0.33,3.35c-0.19,1.07 -0.73,1.94 -1.55,2.74c-0.83,0.8 -1.82,1.45 -3.07,1.93l1.08,2.83l5.09,-1.89l-0.38,-1.63l0.89,-0.27l1.76,4.85l-0.89,0.27l-0.74,-1.42l-10.86,4.02l0.31,1.51l-0.89,0.27l-1.78,-4.76l0.89,-0.27l0.74,1.42l4.75,-1.78l-1.07,-2.83c-1.2,0.29 -2.44,0.36 -3.48,0.08zm-1.14,-1.83c1.23,0.33 2.81,0.14 4.76,-0.66c1.7,-0.67 2.93,-1.46 3.71,-2.47c0.78,-1.01 0.97,-2.08 0.56,-3.21c-0.41,-1.13 -1.26,-1.76 -2.4,-2.07c-1.14,-0.31 -2.74,-0.02 -4.67,0.68c-1.7,0.67 -2.93,1.46 -3.69,2.38c-0.78,1.01 -0.94,1.98 -0.53,3.11c0.29,1.2 1.12,1.93 2.26,2.24z" fill="black" id="svg_36"/>
   <path d="m21.99,407.12c0.49,-0.69 1.12,-1.54 2,-2.53c0.58,-0.65 1.02,-1.15 1.34,-1.57c0.29,-0.33 0.37,-0.62 0.42,-0.81l-0.01,-0.71l0.88,-0.27l0.73,2.23c0.14,0.24 -0.08,0.69 -0.4,1.11c-0.34,0.52 -0.93,1.18 -1.75,1.98c-0.88,0.99 -1.58,1.71 -2.04,2.3c-0.47,0.59 -0.6,1.07 -0.48,1.4l0.31,1.11l5.11,-1.59l-0.25,-1.7l0.88,-0.27l1.54,4.9l-0.88,0.27l-0.65,-1.4l-11.11,3.44l0.22,1.49l-0.89,0.27l-1.47,-4.78l0.89,-0.27l0.64,1.4l5.11,-1.59l-0.5,-1.56l-6.29,-1.99l0.29,1.6l-0.89,0.28l-1.36,-4.44l0.89,-0.27l0.67,1.3l6.43,2.23c-0.12,-0.34 0.16,-0.98 0.62,-1.56z" fill="black" id="svg_37"/>
   <path d="m24.98,398.24c-0.37,1.02 -1.01,1.87 -1.9,2.54c-0.9,0.68 -2.08,1.28 -3.4,1.64c-1.41,0.34 -2.65,0.41 -3.82,0.2c-1.16,-0.21 -2.13,-0.78 -2.96,-1.5c-0.82,-0.73 -1.38,-1.7 -1.67,-2.9c-0.51,-1.87 -0.3,-3.44 0.68,-4.81c0.95,-1.27 2.43,-2.2 4.51,-2.76c1.42,-0.33 2.75,-0.38 3.92,-0.17c1.16,0.21 2.23,0.8 3.05,1.53c0.82,0.73 1.38,1.69 1.67,2.89c0.29,1.2 0.3,2.32 -0.08,3.34zm-10.66,2.14c1.21,0.42 2.77,0.33 4.73,-0.16c1.85,-0.43 3.17,-1.19 4.02,-2.08c0.85,-0.9 1.16,-2.04 0.84,-3.14c-0.29,-1.2 -1.11,-1.93 -2.32,-2.35c-1.21,-0.43 -2.86,-0.36 -4.82,0.13c-1.85,0.42 -3.17,1.19 -4.02,2.08c-0.85,0.89 -1.13,1.94 -0.84,3.14c0.5,1.15 1.3,1.97 2.41,2.38z" fill="black" id="svg_38"/>
   <path d="m10.13,388.66l0.09,1.55l-0.86,0.18l-0.55,-2.49c-0.09,-0.44 -0.25,-0.99 -0.41,-1.54c-0.15,-0.55 -0.34,-1.01 -0.36,-1.32c-0.35,-1.72 -0.33,-2.94 0,-3.77c0.32,-0.83 1.07,-1.34 2.05,-1.59c0.86,-0.17 1.65,-0.06 2.38,0.23c0.71,0.4 1.28,0.96 1.67,1.78c-0.29,-1.2 -0.25,-2.11 0.17,-2.91c0.42,-0.81 1.16,-1.32 2.12,-1.47c1.2,-0.29 2.36,-0.08 3.28,0.68c0.95,0.65 1.69,2.08 2.08,4.02c0.09,0.43 0.18,0.86 0.17,1.26c0.15,0.96 0.31,1.51 0.36,1.73l0.58,2.39l-0.87,0.18l-0.52,-1.47l-11.38,2.56zm4.25,-4.06l-0.25,-0.98c-0.18,-0.86 -0.53,-1.47 -1.14,-1.84c-0.52,-0.34 -1.3,-0.45 -2.19,-0.18c-0.86,0.18 -1.47,0.53 -1.71,1.07c-0.25,0.55 -0.36,1.34 -0.14,2.41c0.09,0.43 0.18,0.87 0.36,1.32l0.11,0.34l5.08,-1.09c0.05,-0.19 -0.06,-0.52 -0.12,-1.05zm6.43,-2.35c-0.29,-1.2 -0.68,-2.01 -1.37,-2.5c-0.58,-0.47 -1.37,-0.58 -2.35,-0.33c-0.96,0.15 -1.59,0.59 -1.84,1.14c-0.34,0.52 -0.38,1.42 -0.16,2.5c0.29,1.2 0.47,2.06 0.58,2.4l5.42,-1.2c0.07,-0.29 -0.06,-0.93 -0.28,-2.01z" fill="black" id="svg_39"/>
   <path d="m3.67,359.94l0.96,-0.16l0.49,1.56l11.49,-1.81l-0.04,-1.74l0.96,-0.15l0.84,5.21l-0.96,0.16l-0.4,-1.54l-11.49,1.81l0.95,5.96l11.58,-1.78l-0.04,-1.75l0.96,-0.15l0.75,5.19l-0.96,0.15l-0.43,-1.44l-11.49,1.82l-0.02,1.62l-0.96,0.15l-2.19,-13.11z" fill="black" id="svg_40"/>
   <path d="m16.3,353.85c-0.44,0.9 -1.27,1.69 -2.23,2.25c-0.97,0.56 -2.19,0.94 -3.65,1.06c-1.46,0.12 -2.74,-0.02 -3.86,-0.42c-1.11,-0.4 -2.06,-1.06 -2.73,-1.96c-0.68,-0.89 -1.12,-1.93 -1.22,-3.07c-0.2,-1.89 0.23,-3.51 1.35,-4.63c1.11,-1.13 2.72,-1.82 4.92,-2.05c1.46,-0.11 2.75,0.03 3.86,0.43c1.12,0.4 2.06,1.06 2.83,1.98c0.68,0.89 1.12,1.93 1.22,3.07c0.14,1.37 -0.04,2.44 -0.49,3.34zm-10.84,0.55c1.16,0.62 2.66,0.72 4.74,0.56c1.89,-0.21 3.23,-0.66 4.27,-1.5c1.01,-0.75 1.48,-1.74 1.31,-3.01c-0.1,-1.15 -0.77,-2.04 -1.93,-2.66c-1.16,-0.61 -2.76,-0.74 -4.74,-0.56c-1.89,0.21 -3.33,0.64 -4.27,1.51c-1.02,0.74 -1.39,1.76 -1.22,3.03c0.07,1.24 0.75,2.14 1.84,2.63z" fill="black" id="svg_41"/>
   <path d="m10.39,339.02c1.69,0.15 3.05,0.41 3.95,0.86c0.45,0.22 0.78,0.51 1.01,0.78c0.21,0.36 0.33,0.69 0.41,1.13c0.04,0.62 0.03,1.02 -0.04,1.31l-1.49,0.21c-0.01,-0.31 -0.01,-0.72 -0.02,-1.43c-0.04,-0.22 -0.09,-0.43 -0.25,-0.58c-0.17,-0.14 -0.33,-0.29 -0.59,-0.46c-1.51,-0.81 -4.59,-1.13 -9.15,-0.82l-1.46,0.12l-0.06,2.12l-0.93,0.05l-0.68,-10.77l0.93,-0.06l0.36,1.73l11.61,-0.76l0.08,-1.81l0.93,-0.06l0.4,5.71l-0.93,0.06l-0.3,-1.92l-11.59,0.67l0.2,3.82l1.65,-0.07c2.34,0.02 4.27,0.03 5.96,0.17z" fill="black" id="svg_42"/>
   <path d="m2.22,328.07l-0.21,1.57l-0.94,0.06l-0.19,-9.52l2.94,-0.34l0.03,1.03l-1.78,0.54l-0.03,4.68l5.23,-0.13l-0.09,-3.08l-1.57,-0.21l-0.03,-1.03l4.29,-0.07l0.04,1.02l-1.61,0.29l-0.03,3.15l5.54,-0.15l-0.32,-5.28l-2.39,-0.95l0.31,-1.14l3.23,0.46l0.19,10.34l-0.93,0.06l-0.19,-1.58l-11.49,0.28z" fill="black" id="svg_43"/>
   <path d="m2.01,312.53l0.06,3.18l3.88,0.73l-0.02,1.22l-4.98,-0.42l0.27,-11.64l5.01,-0.08l-0.02,1.21l-3.92,0.58l-0.15,3.22l11.76,0.2l0.21,-2.69l0.91,0.04l-0.17,7.08l-0.91,-0.04l-0.14,-2.48l-11.79,-0.11z" fill="black" id="svg_44"/>
   <path d="m9.43,298.13l-0.04,0.9c0.21,0.36 0.54,0.65 1.16,1.02c0.52,0.34 1.23,0.74 2.13,1.18c0.89,0.45 1.51,0.82 1.96,1.04c0.45,0.22 0.68,0.49 0.63,0.68l-0.16,2.5l-0.91,-0.04l-0.1,-0.74c-0.05,-0.22 -0.21,-0.36 -0.45,-0.63c-0.35,-0.19 -0.77,-0.51 -1.46,-1c-0.8,-0.42 -1.39,-0.88 -1.91,-1.23c-0.52,-0.34 -0.82,-0.73 -1.03,-1.09c-0.33,0.83 -0.79,1.42 -1.54,1.93c-0.72,0.42 -1.49,0.62 -2.49,0.56c-1.5,-0.1 -2.5,-0.57 -3.05,-1.53c-0.56,-0.97 -0.73,-2.23 -0.61,-3.83c0.01,-0.41 0.11,-0.79 0.17,-1.38c0.06,-0.6 0.18,-1.07 0.17,-1.38l0.21,-2.7l0.9,0.04l0.1,1.56l11.61,0.76l0.27,-1.76l0.9,0.04l-0.35,5.51l-0.91,-0.04l-0.02,-1.84l-5,-0.32l-0.18,1.79zm-6.77,-1.72c-0.15,0.57 -0.18,1.07 -0.19,1.48c-0.07,1 0.04,1.74 0.51,2.27c0.47,0.54 1.11,0.81 2.2,0.9c1.01,0.07 1.77,-0.14 2.4,-0.58c0.63,-0.44 0.83,-1.2 0.99,-2.18c0.07,-1 0.12,-1.6 0.04,-2.03l-5.7,-0.4l-0.25,0.54z" fill="black" id="svg_45"/>
   <path d="m3.61,285.66l-0.25,3.2l3.8,1.02l-0.11,1.19l-4.98,-0.82l1.27,-11.58l5.01,0.32l-0.12,1.19l-3.91,0.17l-0.46,3.24l11.67,1.3l0.5,-2.62l0.88,0.13l-0.79,7.13l-0.88,-0.14l0.04,-2.43l-11.67,-1.3z" fill="black" id="svg_46"/>
   <path d="m17.73,271.73c-0.73,0.82 -1.72,1.47 -2.82,1.79c-1.11,0.31 -2.44,0.36 -3.8,0.1c-1.35,-0.26 -2.56,-0.69 -3.48,-1.44c-0.92,-0.76 -1.69,-1.68 -2.1,-2.81c-0.41,-1.13 -0.51,-2.27 -0.28,-3.53c0.16,-0.98 0.47,-2.12 0.99,-3.31l0.25,-0.54l3.28,0.68l-0.24,1.26l-2.46,0.05c-0.14,0.17 -0.31,0.42 -0.54,0.87c-0.19,0.36 -0.35,0.93 -0.4,1.53c-0.11,0.78 -0.01,1.52 0.32,2.22c0.32,0.7 0.88,1.26 1.76,1.8c0.77,0.51 1.82,0.79 3.08,1.03c1.17,0.21 2.19,0.18 3.25,0.05c0.95,-0.15 1.87,-0.52 2.52,-1.05c0.65,-0.54 1.05,-1.25 1.21,-2.23c0.08,-0.69 0.11,-1.19 0.09,-1.5c-0.02,-0.31 -0.13,-0.65 -0.34,-1.01l-1.65,-1.05l0.3,-1.14l2.52,0.88c-0.08,0.28 0.04,0.62 0.1,1.14c0.09,0.43 0.06,0.93 0.14,1.37c0.09,0.43 -0.03,0.9 -0.12,1.59c-0.33,1.24 -0.82,2.33 -1.58,3.25z" fill="black" id="svg_47"/>
   <path d="m7.5,254.42l0.88,0.13l-0.18,1.79l9.16,1.94l-1.92,-1.94l-5.36,-6.63l-0.47,-0.13l-0.53,1.6l-0.88,-0.14l1.04,-5.02l0.88,0.14l-0.1,1.5l11.37,2.43l0.5,-1.49l0.86,0.23l-1.07,5.11l-0.85,-0.23l0.14,-1.69l-9.34,-2l1.85,1.83l5.43,6.75l0.66,0.17l0.55,-1.68l0.88,0.13l-1.06,5.12l-0.88,-0.14l0.12,-1.6l-11.36,-2.43l-0.48,1.4l-0.88,-0.13l1.04,-5.02z" fill="black" id="svg_48"/>
   <path d="m12.08,234.66l4.8,1.09l-0.33,1.23l-3.77,-0.4l-1.16,3.97l11.45,2.87l1.04,-3.09l0.85,0.23l-1.79,7.06l-0.85,-0.23l0.34,-2.05l-11.26,-2.81l-0.7,1.85l-0.86,-0.23l2.24,-9.49z" fill="black" id="svg_49"/>
   <path d="m14.06,231.83l-0.67,1.35l-0.85,-0.23l1.51,-4.89l0.85,0.23l-0.21,1.57l4.79,1.49l1.9,-6.31l-4.8,-1.49l-0.66,1.34l-0.86,-0.22l1.49,-4.8l0.86,0.23l-0.2,1.48l11.12,3.38l0.57,-1.37l0.85,0.23l-1.49,4.79l-0.85,-0.23l0.31,-1.54l-5.18,-1.6l-1.89,6.32l5.17,1.59l0.6,-1.47l0.86,0.23l-1.52,4.89l-0.85,-0.23l0.29,-1.45l-11.14,-3.29z" fill="black" id="svg_50"/>
   <path d="m18.59,213.39l0.73,-1.95l13.65,0l0.59,-1.07l0.83,0.33l-1.66,4.65l-0.83,-0.33l0.32,-1.54l-2.94,-0.08l-1.78,5.13l2.29,1.73l0.69,-1.44l0.83,0.32l-1.43,4.2l-0.83,-0.32l0.21,-1.17l-10.67,-8.46zm3.27,-0.04l-1.69,-0.15l1.46,1l5,3.79l1.6,-4.46l-6.37,-0.18z" fill="black" id="svg_51"/>
   <path d="m31.49,204.42c1.49,0.91 2.59,1.71 3.2,2.49c0.31,0.38 0.49,0.84 0.6,1.17c0.09,0.44 -0.01,0.82 -0.11,1.2c-0.25,0.54 -0.45,0.9 -0.62,1.16l-1.4,-0.48c0.17,-0.26 0.3,-0.74 0.55,-1.28c0.05,-0.19 0.12,-0.48 0.05,-0.6c-0.04,-0.21 -0.18,-0.45 -0.32,-0.69c-1.05,-1.41 -3.67,-3.03 -7.91,-4.67l-1.38,-0.57l-1.01,1.86l-0.83,-0.32l4.01,-10.03l0.83,0.33l-0.46,1.71l10.77,4.31l0.83,-1.61l0.83,0.32l-2.14,5.34l-0.83,-0.33l0.51,-1.9l-10.76,-4.31l-1.44,3.49l1.56,0.62c2.15,1.08 3.98,1.88 5.47,2.79z" fill="black" id="svg_52"/>
   <path d="m34.5,188.62c0.66,-1.35 1.42,-2.27 2.45,-2.7c1.04,-0.44 2.04,-0.37 3.22,0.15c1.26,0.64 2.15,1.49 2.44,2.69c0.31,1.1 0.17,2.39 -0.49,3.74c-0.05,0.19 -0.2,0.35 -0.25,0.54c-0.15,0.17 -0.2,0.36 -0.37,0.62c-0.37,0.61 -0.62,1.16 -0.86,1.7l-1.02,2.27l-0.81,-0.42l0.51,-1.49l-10.59,-4.98l-0.85,1.3l-0.81,-0.42l2.21,-4.8l0.8,0.41l-0.58,1.78l3.89,1.86l1.11,-2.25zm0,-12.93l0.8,0.42l-0.55,1.68l10.49,4.95l0.91,-1.49l0.8,0.42l-2.35,4.97l-0.8,-0.42l0.55,-1.68l-10.49,-4.95l-0.91,1.49l-0.8,-0.42l2.35,-4.97zm6.17,17.64c0.15,-0.16 0.25,-0.54 0.45,-0.9c0.44,-0.9 0.48,-1.8 0.18,-2.6c-0.29,-0.79 -0.95,-1.37 -1.95,-1.84c-0.9,-0.45 -1.8,-0.49 -2.48,-0.26c-0.69,0.32 -1.25,0.89 -1.7,1.79l-0.77,1.72l5.71,2.65c0.24,-0.13 0.42,-0.39 0.56,-0.56z" fill="black" id="svg_53"/>
   <path d="m39.56,168.59l-0.93,1.18l-0.8,-0.42l2.51,-4.42l0.8,0.42l-0.6,1.47l4.45,2.41l3.18,-5.77l-4.45,-2.42l-0.93,1.18l-0.8,-0.42l2.39,-4.35l0.8,0.42l-0.48,1.4l10.19,5.69l0.93,-1.18l0.81,0.42l-2.42,4.44l-0.8,-0.41l0.6,-1.47l-4.81,-2.62l-3.17,5.77l4.8,2.61l0.98,-1.36l0.8,0.42l-2.53,4.51l-0.81,-0.42l0.57,-1.37l-10.28,-5.71z" fill="black" id="svg_54"/>
   <path d="m47.98,151.59l1.08,-1.74l13.37,2.97l0.75,-0.92l0.78,0.51l-2.65,4.18l-0.78,-0.51l0.7,-1.45l-2.85,-0.76l-2.88,4.63l1.85,2.23l1.05,-1.25l0.78,0.51l-2.33,3.76l-0.78,-0.52l0.49,-1.09l-8.58,-10.55zm3.1,0.63l-1.62,-0.43l1.2,1.23l4.12,4.77l2.5,-4.01l-6.2,-1.56z" fill="black" id="svg_55"/>
   <path d="m57.55,139.08l-1.34,1.58l-0.78,-0.52l2.91,-4l8.33,2.74l2.3,0.92l-1.64,-1.86l-5.35,-7.04l2.91,-4.01l0.78,0.52l-0.98,1.77l10.33,5.52l1.14,-1.22l0.78,0.51l-3.22,4.43l-0.78,-0.51l0.81,-1.51l-7.33,-4.21l-3.19,-1.77l1.75,2.2l6.14,8.27l-0.68,1.03l-9.05,-2.72l-3.56,-1.16l2.73,2.36l6.37,5.48l1.2,-1.42l0.78,0.52l-2.79,3.94l-0.78,-0.52l0.79,-1.42l-8.58,-7.9z" fill="black" id="svg_56"/>
   <path d="m69.26,121.24l1.24,-1.6l12.96,4.49l0.82,-0.8l0.76,0.61l-3.08,3.86l-0.75,-0.61l0.86,-1.3l-2.68,-1.02l-3.39,4.29l1.6,2.36l1.12,-1.13l0.75,0.61l-2.75,3.44l-0.75,-0.61l0.59,-1.06l-7.3,-11.53zm3.01,0.91l-1.56,-0.63l1.05,1.41l3.49,5.21l2.93,-3.7l-5.91,-2.29z" fill="black" id="svg_57"/>
   <path d="m76.8,113.99l-1.16,0.91l-0.75,-0.61l1.63,-1.9c0.29,-0.33 0.58,-0.66 0.78,-1.02c0.44,-0.49 0.78,-1.01 1.22,-1.5c1.17,-1.32 2.3,-2.14 3.26,-2.29c0.95,-0.15 1.98,0.23 2.96,1.1c0.76,0.61 1.27,1.36 1.54,2.25c0.27,0.89 0.26,1.7 0.03,2.55c-0.23,0.86 -0.67,1.76 -1.38,2.48c-0.27,0.24 -0.46,0.59 -0.73,0.83c-0.27,0.23 -0.41,0.4 -0.44,0.49l3.16,2.68l1.79,-1.76l0.66,0.58l-3.99,4.64l-0.66,-0.59l0.86,-1.29l-8.78,-7.55zm7.47,1.39c0.61,-0.75 0.93,-1.58 0.85,-2.42c-0.08,-0.84 -0.56,-1.68 -1.62,-2.68c-0.83,-0.73 -1.56,-1.02 -2.3,-0.92c-0.74,0.11 -1.37,0.55 -2.22,1.44c-0.29,0.33 -0.49,0.69 -0.78,1.02c-0.17,0.26 -0.29,0.33 -0.32,0.42l5.06,4.31c0.33,-0.11 0.75,-0.51 1.33,-1.17z" fill="black" id="svg_58"/>
   <path d="m94.64,112.05c-1.1,0.31 -2.2,0.22 -3.34,-0.08c-1.12,-0.4 -2.18,-0.99 -3.24,-1.99c-0.96,-0.97 -1.71,-1.99 -2.09,-3.21c-0.41,-1.13 -0.39,-2.35 -0.18,-3.51c0.3,-1.14 0.8,-2.23 1.75,-3.1c0.7,-0.73 1.5,-1.43 2.73,-2.22l0.51,-0.37l2.29,2.45l-0.85,0.89l-2.1,-1.28c-0.21,0.05 -0.55,0.16 -0.91,0.37c-0.36,0.21 -0.78,0.61 -1.19,1.01c-0.56,0.56 -0.85,1.29 -0.94,1.98c-0.11,0.79 0.09,1.56 0.46,2.47c0.39,0.82 1.07,1.71 1.96,2.56c0.8,0.83 1.77,1.39 2.67,1.84c0.9,0.44 1.78,0.58 2.62,0.5c0.83,-0.09 1.56,-0.5 2.23,-1.14c0.44,-0.49 0.76,-0.91 0.93,-1.18c0.17,-0.26 0.27,-0.64 0.25,-0.95l-0.82,-1.85l0.92,-0.77l1.65,2.18c-0.14,0.16 -0.34,0.52 -0.59,1.06c-0.22,0.45 -0.41,0.8 -0.61,1.16c-0.2,0.36 -0.52,0.78 -0.95,1.27c-1.07,0.94 -2.15,1.56 -3.16,1.91z" fill="black" id="svg_59"/>
   <path d="m105.71,82.52l0.63,0.68l-1.19,1.41l6.27,6.98l-0.38,-2.75l-0.38,-8.46l-0.3,-0.38l-1.38,0.95l-0.63,-0.68l3.87,-3.44l0.64,0.68l-0.93,1.18l7.75,8.7l1.26,-0.89l0.63,0.68l-3.88,3.44l-0.63,-0.68l1.14,-1.22l-6.34,-7.1l0.43,2.56l0.33,8.65l0.47,0.53l1.4,-1.05l0.64,0.68l-3.91,3.54l-0.63,-0.68l1.02,-1.15l-7.75,-8.7l-1.23,0.79l-0.64,-0.68l3.72,-3.59z" fill="black" id="svg_60"/>
   <path d="m115.39,74.52c0.31,-0.42 0.63,-0.85 0.92,-1.18c0.3,-0.33 0.56,-0.56 0.83,-0.79c1.19,-1.01 2.34,-1.52 3.3,-1.67c0.95,-0.15 1.76,0.27 2.46,1.07c0.61,0.77 0.9,1.57 0.77,2.45c-0.13,0.88 -0.43,1.61 -1.04,2.37c0.89,-0.68 1.81,-1.05 2.69,-0.91c0.9,0.04 1.61,0.43 2.22,1.2c0.84,1.04 1.16,2.15 0.97,3.22c-0.18,1.07 -0.99,2.18 -2.42,3.32c-0.53,0.47 -1.13,0.82 -1.61,1.1c-0.49,0.28 -0.94,0.46 -1.28,0.57c-0.33,0.12 -0.55,0.16 -0.57,0.26l-1.82,-2.73l0.77,-0.61l1.93,1.54c0.65,-0.14 1.47,-0.53 2.27,-1.23c0.65,-0.54 1.02,-1.15 0.98,-1.77c-0.01,-0.72 -0.24,-1.39 -0.94,-2.19c-0.44,-0.63 -1.06,-1 -1.75,-1.08c-0.69,-0.08 -1.48,0.21 -2.37,0.89l-1.04,0.84l-0.71,-0.8l0.8,-0.7c0.39,-0.3 0.71,-0.73 0.93,-1.18c0.22,-0.45 0.35,-0.92 0.28,-1.45c-0.06,-0.52 -0.34,-1.01 -0.71,-1.51c-0.54,-0.66 -1.06,-1 -1.68,-0.96c-0.62,0.03 -1.19,0.29 -1.82,0.73c-0.42,0.4 -0.71,0.73 -1,1.06c-0.29,0.33 -0.27,0.64 -0.23,0.85l0.81,1.54l-0.92,0.78l-1.97,-2.16c0.24,-0.14 0.54,-0.47 0.95,-0.87z" fill="black" id="svg_61"/>
   <path d="m128.58,65.22l-1.43,0.74l-0.51,-0.75l2.03,-1.49c0.36,-0.21 0.78,-0.61 1.28,-0.98c0.41,-0.4 0.8,-0.7 1.04,-0.84c1.4,-1.05 2.56,-1.56 3.46,-1.52c0.91,0.04 1.72,0.46 2.32,1.23c0.52,0.75 0.72,1.52 0.7,2.33c-0.01,0.81 -0.4,1.52 -0.99,2.18c0.92,-0.77 1.91,-1.02 2.81,-0.98c0.91,0.04 1.69,0.55 2.2,1.3c0.75,1.02 0.97,2.09 0.76,3.26c-0.21,1.16 -1.24,2.32 -2.9,3.6c-0.39,0.31 -0.75,0.51 -1.12,0.72c-0.84,0.49 -1.25,0.89 -1.47,0.93l-2.03,1.5l-0.51,-0.75l1.09,-1.03l-6.73,-9.45zm5.4,2.26l0.87,-0.58c0.75,-0.51 1.11,-1.13 1.17,-1.72c0.06,-0.6 -0.14,-1.36 -0.66,-2.11c-0.51,-0.75 -1.03,-1.09 -1.62,-1.15c-0.6,-0.06 -1.39,0.24 -2.16,0.85c-0.39,0.3 -0.75,0.51 -1.04,0.84l-0.27,0.23l3.05,4.18c-0.09,-0.02 0.27,-0.23 0.66,-0.54zm4.78,4.95c1.02,-0.74 1.63,-1.5 1.74,-2.28c0.11,-0.79 -0.1,-1.56 -0.61,-2.3c-0.61,-0.78 -1.2,-1.24 -1.79,-1.3c-0.69,-0.08 -1.39,0.24 -2.28,0.92c-1.02,0.74 -1.65,1.19 -1.91,1.42l3.26,4.54c0.22,-0.04 0.72,-0.42 1.59,-1z" fill="black" id="svg_62"/>
   <path d="m141.14,54.84l1.73,-1.17l10.94,8.23l1.06,-0.53l0.51,0.75l-4.1,2.77l-0.52,-0.75l1.19,-1.01l-2.26,-1.83l-4.59,3.05l0.79,2.76l1.42,-0.74l0.52,0.75l-3.72,2.47l-0.51,-0.75l0.82,-0.8l-3.28,-13.2zm2.66,1.83l-1.34,-1.07l0.57,1.68l1.73,6.06l3.96,-2.6l-4.92,-4.07z" fill="black" id="svg_63"/>
   <path d="m157.71,59.89c-1.12,0 -2.14,-0.37 -3.21,-0.96c-0.94,-0.66 -1.81,-1.61 -2.6,-2.84c-0.69,-1.2 -1.08,-2.43 -1.18,-3.58c-0.1,-1.14 0.23,-2.38 0.8,-3.35c0.59,-1.06 1.41,-1.86 2.52,-2.58c0.85,-0.49 1.88,-0.92 3.22,-1.38l0.58,-0.25l1.55,2.96l-1.09,0.63l-1.66,-1.77c-0.19,-0.05 -0.53,0.06 -0.96,0.15c-0.43,0.09 -0.91,0.36 -1.39,0.64c-0.72,0.42 -1.19,1.01 -1.46,1.65c-0.3,0.73 -0.41,1.52 -0.26,2.48c0.15,0.95 0.59,1.99 1.24,2.98c0.65,0.99 1.33,1.88 2.08,2.49c0.76,0.61 1.56,1.03 2.42,1.26c0.85,0.23 1.62,0.03 2.46,-0.46c0.61,-0.35 0.99,-0.65 1.16,-0.91c0.27,-0.24 0.47,-0.59 0.54,-0.88l-0.27,-2.01l1.06,-0.53l0.96,2.5c-0.24,0.14 -0.51,0.37 -0.83,0.8c-0.29,0.33 -0.58,0.66 -0.97,0.96c-0.29,0.33 -0.77,0.61 -1.26,0.89c-1.13,0.81 -2.33,1.1 -3.45,1.11z" fill="black" id="svg_64"/>
   <path d="m167.46,42.13c0.09,-1.1 0.37,-2.14 0.91,-3.02c0.54,-0.87 1.22,-1.5 2.18,-2.06c1.09,-0.63 2.16,-0.85 3.16,-0.78c1,0.06 2.02,0.44 2.85,1.17c0.82,0.73 1.59,1.65 2.31,2.76c0.77,1.32 1.13,2.64 1.2,3.88c0.08,1.25 -0.11,2.32 -0.67,3.29c-0.57,0.96 -1.27,1.69 -2.23,2.25c-1.09,0.62 -2.17,0.85 -3.26,0.76c-1,-0.07 -2.02,-0.44 -2.87,-1.08c-0.85,-0.63 -1.72,-1.58 -2.32,-2.76l-2.62,1.44l2.59,4.77l1.49,-0.62l0.39,0.81l-4.53,2.46l-0.39,-0.82l1.26,-0.89l-5.51,-10.23l-1.47,0.52l-0.48,-0.84l4.4,-2.38l0.49,0.84l-1.26,0.88l2.39,4.41l2.72,-1.41c-0.53,-1.06 -0.75,-2.13 -0.73,-3.35zm1.76,-1.26c-0.14,1.29 0.26,2.82 1.31,4.63c0.9,1.56 1.81,2.73 2.97,3.34c1.16,0.62 2.16,0.68 3.34,0.08c1.06,-0.53 1.63,-1.5 1.65,-2.72c0.02,-1.21 -0.39,-2.75 -1.33,-4.53c-0.91,-1.57 -1.82,-2.73 -2.88,-3.32c-1.07,-0.59 -2.17,-0.68 -3.22,-0.15c-1.06,0.53 -1.7,1.38 -1.84,2.67z" fill="black" id="svg_65"/>
   <path d="m188.18,37.39c0.71,0.4 1.58,0.94 2.74,1.55c0.78,0.52 1.3,0.86 1.75,1.08c0.45,0.23 0.64,0.28 0.86,0.23l0.74,-0.1l0.39,0.81l-2.09,0.97c-0.24,0.14 -0.62,0.04 -1.17,-0.21c-0.54,-0.25 -1.23,-0.74 -2.17,-1.4c-1.01,-0.78 -1.89,-1.32 -2.5,-1.69c-0.62,-0.36 -1.12,-0.4 -1.45,-0.28l-1.06,0.53l2.28,4.79l1.56,-0.5l0.39,0.82l-4.66,2.21l-0.4,-0.82l1.33,-0.77l-4.93,-10.48l-1.44,0.43l-0.39,-0.82l4.54,-2.15l0.39,0.82l-1.35,0.86l2.26,4.89l1.42,-0.74l1.14,-6.52l-1.56,0.49l-0.39,-0.81l4.18,-1.94l0.39,0.82l-1.23,0.79l-1.37,6.66c0.4,0.01 1.07,0.19 1.8,0.48z" fill="black" id="svg_66"/>
   <path d="m197.39,39.15c-1.07,-0.19 -1.95,-0.73 -2.74,-1.55c-0.8,-0.83 -1.55,-1.84 -2.1,-3.21c-0.55,-1.37 -0.84,-2.57 -0.72,-3.76c0.11,-1.19 0.39,-2.24 1.05,-3.18c0.66,-0.94 1.56,-1.62 2.59,-2.06c1.83,-0.73 3.36,-0.73 4.8,-0.04c1.44,0.7 2.59,2.12 3.39,4.07c0.55,1.37 0.81,2.66 0.7,3.86c-0.12,1.19 -0.42,2.33 -1.08,3.27c-0.66,0.94 -1.56,1.62 -2.59,2.06c-1.18,0.6 -2.23,0.72 -3.3,0.54zm-3.6,-10.13c-0.24,1.26 0.07,2.77 0.78,4.69c0.76,1.73 1.64,2.98 2.68,3.67c1.01,0.78 2.11,0.87 3.26,0.36c1.13,-0.41 1.79,-1.35 2.03,-2.61c0.23,-1.26 -0.05,-2.86 -0.88,-4.72c-0.76,-1.73 -1.64,-2.98 -2.68,-3.67c-1.04,-0.68 -2.11,-0.87 -3.26,-0.36c-1.06,0.53 -1.7,1.38 -1.93,2.64z" fill="black" id="svg_67"/>
   <path d="m204.75,23.09l-1.51,0.31l-0.27,-0.89l2.37,-0.89c0.43,-0.09 0.92,-0.37 1.49,-0.62c0.58,-0.25 0.94,-0.46 1.25,-0.48c1.59,-0.59 2.86,-0.76 3.71,-0.53c0.86,0.23 1.52,0.81 1.86,1.82c0.29,0.79 0.37,1.63 0.07,2.36c-0.29,0.74 -0.78,1.42 -1.51,1.84c1.13,-0.41 2.06,-0.47 2.92,-0.24c0.86,0.23 1.49,0.91 1.83,1.92c0.41,1.13 0.39,2.34 -0.18,3.31c-0.59,1.07 -1.84,1.95 -3.76,2.66c-0.46,0.18 -0.8,0.3 -1.23,0.38c-0.88,0.28 -1.46,0.53 -1.68,0.57l-2.37,0.89l-0.3,-0.79l1.42,-0.74l-4.11,-10.88zm4.61,3.68l1.01,-0.34c0.79,-0.3 1.33,-0.76 1.6,-1.4c0.27,-0.64 0.26,-1.36 -0.13,-2.18c-0.3,-0.79 -0.77,-1.32 -1.31,-1.57c-0.55,-0.25 -1.38,-0.17 -2.39,0.17c-0.46,0.19 -0.82,0.4 -1.28,0.58l-0.36,0.21l1.85,4.87c0.12,-0.07 0.46,-0.18 1.01,-0.34zm3.17,6.05c1.13,-0.42 1.9,-1.02 2.3,-1.73c0.39,-0.71 0.38,-1.43 0.04,-2.44c-0.37,-0.91 -0.84,-1.44 -1.38,-1.69c-0.64,-0.27 -1.48,-0.19 -2.51,0.24c-1.23,0.39 -1.92,0.71 -2.26,0.83l1.97,5.21c0.26,0.17 0.93,-0.06 1.84,-0.42z" fill="black" id="svg_68"/>
   <path d="m232.27,12.74l0.27,0.89l-1.42,0.74l3.35,11.08l1.72,-0.35l0.27,0.89l-4.99,1.51l-0.27,-0.89l1.4,-0.64l-3.42,-11.2l-5.75,1.71l3.41,11.21l1.72,-0.36l0.28,0.89l-4.99,1.52l-0.27,-0.89l1.39,-0.65l-3.35,-11.08l-1.6,0.29l-0.27,-0.89l12.52,-3.78z" fill="black" id="svg_69"/>
   <path d="m240.07,24.31c-1.02,-0.38 -1.87,-1.01 -2.55,-1.91c-0.67,-0.89 -1.18,-2.05 -1.51,-3.46c-0.34,-1.41 -0.41,-2.66 -0.18,-3.92c0.22,-1.16 0.78,-2.13 1.51,-2.96c0.73,-0.82 1.69,-1.38 2.89,-1.67c1.87,-0.51 3.45,-0.3 4.81,0.68c1.28,0.95 2.21,2.43 2.74,4.61c0.34,1.41 0.38,2.75 0.17,3.91c-0.23,1.26 -0.8,2.23 -1.62,3.03c-0.83,0.8 -1.79,1.35 -2.89,1.67c-1.32,0.36 -2.35,0.39 -3.37,0.02zm-2.13,-10.66c-0.43,1.21 -0.34,2.76 0.15,4.73c0.43,1.84 1.19,3.17 2.08,4.02c0.9,0.85 2.04,1.15 3.14,0.84c1.2,-0.29 1.9,-1.02 2.35,-2.32c0.43,-1.21 0.36,-2.86 -0.13,-4.83c-0.42,-1.84 -1.19,-3.17 -2.08,-4.02c-0.89,-0.85 -1.94,-1.13 -3.14,-0.84c-1.15,0.51 -1.98,1.3 -2.37,2.42z" fill="black" id="svg_70"/>
   <path d="m254,16.43c0.14,1.76 -0.01,3.05 -0.38,4.07c-0.13,0.48 -0.45,0.9 -0.71,1.13c-0.27,0.24 -0.63,0.45 -1.06,0.53c-0.55,0.16 -1.05,0.13 -1.27,0.17l-0.43,-1.43c0.31,-0.02 0.74,-0.11 1.39,-0.24c0.22,-0.05 0.43,-0.09 0.58,-0.26c0.14,-0.16 0.29,-0.33 0.37,-0.61c0.64,-1.66 0.43,-4.67 -0.49,-9.2l-0.34,-1.41l-2.2,0.22l-0.18,-0.86l10.57,-2.16l0.17,0.86l-1.68,0.57l2.34,11.42l1.89,-0.2l0.18,0.86l-5.61,1.15l-0.18,-0.87l1.9,-0.61l-2.34,-11.42l-3.66,0.75l0.38,1.63c0.32,2.22 0.59,4.23 0.76,5.91z" fill="black" id="svg_71"/>
   <path d="m263.61,6.78l-1.53,0l-0.15,-0.96l9.38,-1.56l0.77,2.85l-1.06,0.13l-0.85,-1.76l-4.54,0.62l0.84,5.21l3.11,-0.59l0,-1.53l1.06,-0.12l0.69,4.26l-1.05,0.12l-0.5,-1.56l-3.09,0.5l0.86,5.53l5.17,-1.06l0.57,-2.5l1.17,0.21l0.04,3.27l-10.22,1.65l-0.18,-0.87l1.54,-0.4l-2.03,-11.44z" fill="black" id="svg_72"/>
   <path d="m279.02,4.39l-3.18,0.47l-0.14,3.94l-1.27,0.17l-0.3,-4.97l11.58,-1.38l0.82,4.9l-1.14,0.1l-1.11,-3.86l-3.22,0.26l1.45,11.69l2.67,-0.1l0.06,0.94l-7.06,0.86l-0.05,-0.94l2.37,-0.48l-1.48,-11.6z" fill="black" id="svg_73"/>
   <path d="m294.3,9.71l-0.93,0.05c-0.27,0.24 -0.59,0.66 -0.83,1.2c-0.28,0.64 -0.58,1.38 -0.83,2.33c-0.35,0.92 -0.53,1.59 -0.75,2.04c-0.22,0.45 -0.39,0.71 -0.61,0.75l-2.51,0.25l-0.06,-0.94l0.68,-0.22c0.21,-0.05 0.36,-0.21 0.55,-0.57c0.2,-0.35 0.45,-0.9 0.75,-1.63c0.32,-0.83 0.72,-1.54 0.96,-2.08c0.35,-0.52 0.66,-0.95 1.03,-1.16c-0.88,-0.13 -1.59,-0.52 -2.13,-1.18c-0.54,-0.65 -0.84,-1.44 -0.89,-2.38c-0.12,-1.45 0.28,-2.57 1.05,-3.18c0.9,-0.67 2.12,-1.06 3.77,-1.13c0.31,-0.01 0.84,-0.08 1.43,-0.02c0.62,-0.04 1.03,-0.03 1.34,-0.05l2.7,-0.19l0.05,0.93l-1.5,0.31l0.9,11.45l1.72,0.05l0.05,0.93l-5.52,0.46l-0.05,-0.94l1.82,-0.32l-0.4,-5l-1.79,0.24zm0.76,-7.03c-0.59,-0.06 -1.02,0.03 -1.53,0c-0.93,0.05 -1.72,0.35 -2.13,0.75c-0.53,0.47 -0.74,1.23 -0.61,2.28c0.03,1.02 0.45,1.75 0.91,2.28c0.59,0.46 1.35,0.67 2.28,0.61c1.03,-0.03 1.68,-0.16 1.99,-0.18l-0.41,-5.71l-0.5,-0.03z" fill="black" id="svg_74"/>
   <path d="m305.79,2.19l-3.23,0.26l-0.54,3.92l-1.25,0.08l0.14,-5.06l11.63,-0.45l0.39,5l-1.12,0l-0.8,-3.88l-3.26,0.04l0.39,11.82l2.63,0.1l0.05,0.93l-7.09,0.24l-0.06,-0.94l2.42,-0.27l-0.3,-11.79z" fill="black" id="svg_75"/>
   <path d="m321.62,14.17c-0.94,-0.66 -1.64,-1.46 -2.17,-2.51c-0.54,-1.06 -0.7,-2.33 -0.73,-3.76c0.07,-1.41 0.4,-2.65 0.99,-3.71c0.6,-1.06 1.42,-1.86 2.48,-2.39c1.06,-0.53 2.16,-0.85 3.47,-0.8c0.91,0.04 2.1,0.15 3.43,0.51l0.57,0.15l-0.29,3.38l-1.22,-0.02l-0.39,-2.34c-0.17,-0.15 -0.43,-0.32 -0.9,-0.45c-0.48,-0.12 -0.98,-0.16 -1.57,-0.21c-0.81,-0.02 -1.49,0.21 -2.11,0.65c-0.63,0.45 -1.12,1.13 -1.54,1.93c-0.35,0.93 -0.6,1.88 -0.65,3.19c-0.02,1.22 0.1,2.27 0.38,3.16c0.27,0.89 0.76,1.73 1.41,2.31c0.66,0.59 1.4,0.89 2.3,0.92c0.72,-0.01 1.12,0 1.56,-0.09c0.33,-0.11 0.67,-0.23 0.93,-0.46l0.8,-1.82l1.16,0.21l-0.49,2.61c-0.31,0.02 -0.65,0.14 -1.18,0.2c-0.43,0.09 -0.88,0.27 -1.29,0.26c-0.43,0.09 -0.93,0.06 -1.55,0.1c-1.31,-0.05 -2.45,-0.36 -3.4,-1.02z" fill="black" id="svg_76"/>
   <path d="m337.23,1.55l-0.04,0.91l-1.86,0.11l-0.69,9.39l1.71,-2.19l5.83,-6.18l0.03,-0.5l-1.64,-0.34l0.04,-0.91l5.1,0.35l-0.04,0.91l-1.45,0.12l-0.77,11.61l1.54,0.31l-0.04,0.91l-5.19,-0.38l0.04,-0.9l1.65,-0.07l0.61,-9.51l-1.56,2.02l-5.95,6.25l-0.09,0.69l1.76,0.27l-0.03,0.91l-5.3,-0.4l0.04,-0.91l1.56,-0.09l0.76,-11.61l-1.45,-0.29l0.04,-0.91l5.39,0.43z" fill="black" id="svg_77"/>
   <path d="m357.51,3.42l-0.4,4.88l-1.28,-0.14l-0.11,-3.79l-4.12,-0.6l-1.31,11.77l3.21,0.55l-0.14,0.89l-7.31,-0.84l0.14,-0.88l2.02,0.03l1.25,-11.48l-1.9,-0.51l0.13,-0.88l9.82,1z" fill="black" id="svg_78"/>
   <path d="m360.65,4.97l-1.4,-0.47l0.14,-0.88l5,0.72l-0.14,0.89l-1.62,-0.03l-0.73,5l6.45,1.01l0.73,-5l-1.49,-0.5l0.13,-0.88l5,0.73l-0.13,0.88l-1.53,0l-1.74,11.45l1.42,0.38l-0.13,0.88l-5,-0.73l0.13,-0.88l1.53,0l0.83,-5.38l-6.45,-1.01l-0.83,5.38l1.61,0.43l-0.13,0.88l-5.1,-0.75l0.14,-0.88l1.53,0l1.78,-11.24z" fill="black" id="svg_79"/>
   <path d="m379.47,6.96l2.03,0.44l1.87,13.54l1.11,0.4l-0.13,0.88l-4.83,-0.99l0.13,-0.88l1.6,0.13l-0.33,-2.95l-5.3,-1.11l-1.41,2.58l1.5,0.5l-0.14,0.88l-4.35,-0.86l0.13,-0.88l1.22,0.02l6.9,-11.7zm0.6,3.11l-0.17,-1.67l-0.71,1.54l-3.01,5.51l4.64,0.94l-0.75,-6.32z" fill="black" id="svg_80"/>
   <path d="m390.16,18.38c-0.62,1.57 -1.35,2.8 -2.06,3.52c-0.41,0.4 -0.77,0.61 -1.11,0.72c-0.34,0.12 -0.74,0.11 -1.22,-0.02c-0.57,-0.15 -1.04,-0.28 -1.3,-0.45l0.19,-1.47c0.29,0.07 0.76,0.2 1.33,0.35c0.19,0.05 0.41,0.01 0.62,-0.03c0.22,-0.05 0.36,-0.21 0.63,-0.45c1.24,-1.19 2.5,-4.01 3.6,-8.5l0.39,-1.43l-2,-0.53l0.26,-0.96l10.5,2.62l-0.25,0.95l-1.79,-0.18l-2.82,11.27l1.76,0.67l-0.23,0.86l-5.63,-1.41l0.23,-0.86l1.95,0.32l2.81,-11.26l-3.73,-0.9l-0.43,1.62c-0.44,2.02 -1.07,3.99 -1.7,5.55z" fill="black" id="svg_81"/>
   <path d="m406.24,19.22c1.4,0.48 2.44,1.17 3.02,2.04c0.58,0.87 0.68,2.01 0.25,3.22c-0.47,1.4 -1.23,2.32 -2.26,2.76c-1.16,0.5 -2.37,0.48 -3.8,0.1c-0.19,-0.05 -0.38,-0.1 -0.57,-0.15c-0.19,-0.05 -0.38,-0.1 -0.64,-0.28c-0.64,-0.27 -1.3,-0.45 -1.85,-0.7l-2.44,-0.75l0.22,-0.86l1.55,0.31l3.38,-11.11l-1.34,-0.66l0.23,-0.86l5.08,1.57l-0.23,0.85l-1.86,-0.29l-1.31,4.13l2.57,0.68zm-3.84,6.72c0.19,0.05 0.55,0.25 0.93,0.35c1.04,0.28 1.85,0.29 2.57,-0.13c0.73,-0.41 1.22,-1.1 1.5,-2.14c0.28,-1.05 0.26,-1.76 -0.15,-2.49c-0.35,-0.6 -1.03,-1.09 -2.05,-1.46l-1.81,-0.49l-1.82,6.03c0.38,0.11 0.64,0.28 0.83,0.33zm16.63,-8.48l-0.22,0.85l-1.77,-0.26l-3.38,11.11l1.63,0.74l-0.23,0.86l-5.27,-1.62l0.23,-0.85l1.74,0.36l3.38,-11.11l-1.63,-0.75l0.23,-0.85l5.29,1.52z" fill="black" id="svg_82"/>
   <path d="m426.72,21.46l-1.32,-0.77l0.32,-0.83l4.72,1.78l-0.32,0.83l-1.55,-0.32l-1.77,4.72l6.19,2.38l1.77,-4.72l-1.32,-0.77l0.32,-0.83l4.72,1.78l-0.32,0.83l-1.45,-0.29l-4.15,10.91l1.35,0.67l-0.32,0.83l-4.72,-1.78l0.32,-0.83l1.52,0.41l1.97,-5.07l-6.19,-2.38l-1.97,5.08l1.42,0.79l-0.32,0.83l-4.79,-1.9l0.32,-0.83l1.52,0.41l4.05,-10.93z" fill="black" id="svg_83"/>
   <path d="m444.71,27.29l1.92,0.82l-1.01,13.69l0.94,0.66l-0.32,0.83l-4.55,-2.04l0.32,-0.83l1.5,0.51l0.38,-2.96l-5.02,-2.16l-1.9,2.14l1.42,0.79l-0.33,0.83l-4.09,-1.81l0.32,-0.83l1.14,0.3l9.28,-9.94zm-0.05,3.25l0.24,-1.67l-1.07,1.35l-4.11,4.7l4.38,1.89l0.56,-6.27z" fill="black" id="svg_84"/>
   <path d="m458.43,35.04l-1.73,-1.17l0.42,-0.81l4.38,2.3l-1.51,8.66l-0.54,2.4l1.61,-1.81l6.16,-6.29l4.38,2.29l-0.42,0.8l-1.94,-0.72l-4.05,10.93l1.37,0.98l-0.42,0.81l-4.73,-2.49l0.41,-0.81l1.57,0.62l3.11,-7.82l1.33,-3.41l-1.97,2.02l-7.24,7.23l-1.06,-0.6l1.5,-9.37l0.65,-3.6l-1.93,3.05l-4.56,7.13l1.56,1.03l-0.42,0.8l-4.29,-2.26l0.42,-0.81l1.47,0.6l6.47,-9.68z" fill="black" id="svg_85"/>
   <path d="m477.8,44.1l1.74,1.08l-2.59,13.47l0.95,0.66l-0.42,0.8l-4.23,-2.46l0.42,-0.8l1.47,0.6l0.64,-2.78l-4.65,-2.78l-2.16,1.97l1.27,0.95l-0.42,0.81l-3.78,-2.24l0.42,-0.8l1.12,0.4l10.22,-8.88zm-0.44,3.15l0.43,-1.62l-1.23,1.2l-4.71,4.24l4.14,2.43l1.37,-6.25z" fill="black" id="svg_86"/>
   <path d="m486.07,50.5l-1.06,-1l0.51,-0.78l2.08,1.37c0.35,0.2 0.78,0.52 1.13,0.71c0.62,0.37 1.16,0.62 1.68,0.96c1.46,1 2.43,1.98 2.67,2.96c0.25,0.98 0.06,2.05 -0.62,3.09c-0.54,0.87 -1.2,1.41 -2.01,1.8c-0.82,0.4 -1.66,0.48 -2.54,0.34c-0.88,-0.13 -1.81,-0.48 -2.68,-1.02c-0.35,-0.2 -0.61,-0.37 -0.94,-0.66c-0.36,-0.2 -0.52,-0.34 -0.59,-0.46l-2.25,3.47l2.02,1.56l-0.51,0.78l-5.13,-3.31l0.52,-0.78l1.44,0.69l6.28,-9.72zm-0.33,7.65c0.88,0.54 1.64,0.74 2.5,0.57c0.86,-0.18 1.64,-0.79 2.37,-2.01c0.54,-0.88 0.77,-1.73 0.55,-2.41c-0.23,-0.67 -0.77,-1.32 -1.71,-1.98c-0.36,-0.2 -0.71,-0.4 -1.16,-0.62c-0.26,-0.17 -0.45,-0.22 -0.45,-0.22l-3.63,5.55c0.33,0.29 0.76,0.61 1.53,1.12z" fill="black" id="svg_87"/>
   <path d="m490.47,67.87c-0.43,-1.03 -0.53,-2.18 -0.35,-3.25c0.19,-1.07 0.73,-2.35 1.57,-3.55c0.8,-1.11 1.75,-1.98 2.81,-2.51c1.06,-0.53 2.23,-0.73 3.42,-0.61c1.19,0.12 2.31,0.52 3.32,1.3c0.78,0.51 1.67,1.36 2.54,2.31l0.49,0.43l-2.12,2.59l-1.04,-0.68l0.99,-2.18c-0.04,-0.22 -0.27,-0.48 -0.48,-0.84c-0.21,-0.37 -0.73,-0.71 -1.25,-1.05c-0.68,-0.49 -1.35,-0.67 -2.16,-0.68c-0.81,-0.02 -1.6,0.28 -2.35,0.79c-0.75,0.52 -1.57,1.31 -2.24,2.26c-0.66,0.94 -1.13,1.94 -1.48,2.86c-0.25,0.95 -0.38,1.83 -0.11,2.72c0.27,0.89 0.71,1.51 1.49,2.03c0.52,0.34 0.94,0.66 1.32,0.76c0.38,0.1 0.67,0.18 0.98,0.16l1.71,-1.07l0.9,0.85l-1.95,1.93c-0.26,-0.18 -0.64,-0.28 -1.09,-0.5c-0.47,-0.13 -0.83,-0.32 -1.3,-0.45c-0.36,-0.2 -0.81,-0.42 -1.32,-0.76c-0.99,-0.88 -1.86,-1.82 -2.3,-2.86z" fill="black" id="svg_88"/>
   <path d="m517.73,71.82l-0.61,0.75l-1.55,-1.03l-5.92,7.27l2.66,-0.81l8.28,-1.65l0.32,-0.42l-1.1,-1.22l0.61,-0.75l4,3.31l-0.61,0.76l-1.32,-0.77l-7.41,9.02l1.13,1.12l-0.59,0.66l-4,-3.32l0.59,-0.66l1.39,0.89l6.04,-7.35l-2.45,0.77l-8.5,1.7l-0.44,0.49l1.2,1.24l-0.58,0.66l-4.1,-3.34l0.58,-0.66l1.3,0.86l7.41,-9.02l-1.03,-1.09l0.61,-0.75l4.09,3.34z" fill="black" id="svg_89"/>
   <path d="m527.21,80.16c0.55,0.25 0.87,0.54 1.23,0.74c0.36,0.19 0.68,0.49 0.94,0.66c1.16,1.02 1.9,2.03 2.15,3.02c0.24,0.98 0.02,1.83 -0.69,2.56c-0.7,0.73 -1.43,1.15 -2.33,1.11c-0.84,0.08 -1.69,-0.15 -2.47,-0.66c0.79,0.82 1.28,1.67 1.36,2.5c0.08,0.84 -0.24,1.67 -0.82,2.33c-0.88,0.98 -1.94,1.51 -3.03,1.42c-1.13,0.01 -2.29,-0.61 -3.7,-1.8c-0.59,-0.46 -0.96,-0.97 -1.33,-1.48c-0.38,-0.5 -0.59,-0.87 -0.82,-1.13c-0.14,-0.24 -0.28,-0.48 -0.35,-0.6l2.43,-2.21l0.65,0.59l-1.18,2.12c0.23,0.68 0.77,1.33 1.5,2.03c0.66,0.59 1.2,0.84 1.94,0.73c0.65,-0.13 1.35,-0.46 1.96,-1.21c0.55,-0.56 0.73,-1.23 0.81,-1.92c0.09,-0.69 -0.42,-1.44 -1.25,-2.17l-0.99,-0.87l0.71,-0.73l0.82,0.73c0.43,0.32 0.85,0.63 1.33,0.76c0.47,0.13 0.97,0.16 1.52,0c0.55,-0.16 0.94,-0.46 1.38,-0.95c0.58,-0.66 0.83,-1.21 0.7,-1.85c-0.04,-0.62 -0.41,-1.13 -1.07,-1.71c-0.4,-0.42 -0.75,-0.61 -1.2,-0.84c-0.36,-0.19 -0.67,-0.18 -0.88,-0.13l-1.41,1.05l-0.91,-0.76l1.82,-2.26c0.31,0.39 0.66,0.59 1.18,0.93z" fill="black" id="svg_90"/>
   <path d="m538.35,91.8l-0.88,-1.25l0.68,-0.64l1.75,1.8c0.33,0.29 0.73,0.7 1.23,1.14c0.49,0.44 0.82,0.73 0.98,0.88c1.2,1.24 1.95,2.25 2,3.18c0.18,0.86 -0.15,1.69 -0.85,2.42c-0.68,0.64 -1.38,0.96 -2.12,1.06c-0.74,0.11 -1.59,-0.12 -2.37,-0.63c0.89,0.85 1.38,1.69 1.43,2.62c0.06,0.93 -0.24,1.67 -0.95,2.4c-0.84,0.89 -1.97,1.3 -3.07,1.21c-1.19,-0.12 -2.51,-0.88 -3.97,-2.29c-0.33,-0.29 -0.63,-0.67 -0.87,-0.94c-0.63,-0.68 -1.03,-1.09 -1.19,-1.24l-1.76,-1.79l0.68,-0.64l1.27,0.95l8.01,-8.24zm-5.53,11.15c0.89,0.85 1.67,1.36 2.48,1.38c0.81,0.01 1.51,-0.31 2.19,-0.94c0.68,-0.64 0.98,-1.37 0.94,-1.99c-0.04,-0.62 -0.46,-1.35 -1.25,-2.17c-0.9,-0.85 -1.46,-1.41 -1.69,-1.68l-3.91,3.95c0.04,0.21 0.54,0.65 1.24,1.45zm4.22,-5.49l0.73,0.71c0.66,0.58 1.27,0.95 1.89,0.91c0.62,-0.04 1.32,-0.36 1.9,-1.02c0.59,-0.66 0.93,-1.18 0.89,-1.8c-0.03,-0.62 -0.45,-1.34 -1.18,-2.04c-0.33,-0.3 -0.66,-0.59 -1.08,-0.91l-0.33,-0.29l-3.64,3.71c0.19,0.05 0.42,0.32 0.82,0.73z" fill="black" id="svg_91"/>
   <path d="m550.65,102.53l1.43,1.51l-6.38,12.04l0.65,0.99l-0.68,0.63l-3.3,-3.63l0.68,-0.64l1.15,1.02l1.5,-2.55l-3.7,-4.05l-2.67,1.22l0.98,1.29l-0.68,0.63l-3,-3.25l0.68,-0.63l0.91,0.75l12.43,-5.33zm-1.48,2.87l0.91,-1.49l-1.54,0.81l-5.7,2.65l3.23,3.51l3.1,-5.48z" fill="black" id="svg_92"/>
   <path d="m548.1,119.67c-0.2,-1.17 -0.01,-2.24 0.48,-3.33c0.5,-1.09 1.28,-2.1 2.44,-3.01c1.07,-0.94 2.22,-1.44 3.42,-1.73c1.2,-0.29 2.39,-0.18 3.5,0.22c1.12,0.4 2.06,1.06 2.9,2.1c0.61,0.78 1.26,1.77 1.86,2.95l0.25,0.57l-2.68,2.03l-0.77,-0.92l1.54,-1.93c-0.05,-0.21 -0.07,-0.52 -0.27,-0.88c-0.21,-0.37 -0.49,-0.85 -0.89,-1.26c-0.54,-0.65 -1.15,-1.02 -1.91,-1.23c-0.76,-0.2 -1.6,-0.12 -2.49,0.15c-0.89,0.27 -1.85,0.83 -2.77,1.6c-0.92,0.78 -1.65,1.6 -2.16,2.38c-0.54,0.87 -0.77,1.73 -0.79,2.54c-0.01,0.81 0.29,1.6 0.9,2.38c0.46,0.53 0.79,0.82 1.15,1.02c0.35,0.19 0.61,0.37 0.92,0.35l1.9,-0.62l0.65,0.99l-2.32,1.42c-0.16,-0.14 -0.49,-0.44 -0.91,-0.75c-0.45,-0.23 -0.78,-0.52 -1.11,-0.81c-0.33,-0.29 -0.76,-0.61 -1.13,-1.12c-0.99,-0.87 -1.52,-1.93 -1.71,-3.11z" fill="black" id="svg_93"/>
   <path d="m567.12,126.61c1.15,-0.1 2.12,0.06 3.05,0.4c0.92,0.35 1.75,1.08 2.35,1.86c0.75,1.01 1.12,1.93 1.24,2.98c0.03,1.03 -0.13,2 -0.69,2.97c-0.57,0.97 -1.32,1.89 -2.46,2.7c-1.16,0.91 -2.43,1.49 -3.63,1.78c-1.2,0.29 -2.3,0.2 -3.41,-0.2c-1.12,-0.4 -1.87,-1.01 -2.55,-1.9c-0.74,-1.02 -1.18,-2.05 -1.3,-3.11c-0.13,-1.05 0.12,-2 0.6,-2.99c0.56,-0.97 1.32,-1.89 2.36,-2.73l-1.8,-2.42l-4.35,3.32l0.83,1.44l-0.75,0.52l-3.08,-4.09l0.75,-0.51l1.13,1.11l9.21,-7l-0.77,-1.32l0.78,-0.61l3.01,3.96l-0.78,0.61l-1.12,-1.12l-3.97,3.01l1.8,2.42c1.37,-0.55 2.47,-0.86 3.55,-1.08zm1.62,1.55c-1.24,0.07 -2.73,0.69 -4.4,1.98c-1.43,1.14 -2.42,2.2 -2.85,3.41c-0.42,1.21 -0.3,2.26 0.45,3.28c0.77,0.92 1.67,1.36 2.94,1.19c1.24,-0.07 2.66,-0.81 4.3,-2c1.43,-1.15 2.42,-2.2 2.85,-3.41c0.43,-1.21 0.3,-2.26 -0.37,-3.16c-0.68,-0.89 -1.68,-1.36 -2.92,-1.29z" fill="black" id="svg_94"/>
   <path d="m575.07,146.36c-0.2,0.76 -0.67,1.75 -1.2,2.94c-0.41,0.8 -0.59,1.47 -0.79,1.82c-0.1,0.38 -0.2,0.76 -0.13,0.88l0.22,0.67l-0.74,0.52l-1.33,-1.89c-0.14,-0.24 -0.14,-0.64 0.11,-1.19c0.25,-0.54 0.57,-1.37 1.04,-2.37c0.62,-1.16 0.97,-2.08 1.24,-2.72c0.28,-0.64 0.21,-1.17 0.1,-1.5l-0.65,-0.99l-4.37,3l0.71,1.52l-0.75,0.51l-2.84,-4.23l0.75,-0.51l1.01,1.19l9.58,-6.5l-0.64,-1.39l0.75,-0.52l2.77,4.11l-0.75,0.51l-1.01,-1.19l-4.46,2.98l0.86,1.35l6.58,0.14l-0.74,-1.42l0.75,-0.51l2.54,3.83l-0.75,0.52l-1.03,-1.09l-6.75,-0.29c0.18,0.46 0.12,1.06 -0.08,1.82z" fill="black" id="svg_95"/>
   <path d="m574.7,155.73c0.06,-1 0.34,-2.05 1.1,-2.97c0.66,-0.94 1.6,-1.81 2.81,-2.5c1.23,-0.79 2.45,-1.18 3.6,-1.28c1.24,-0.07 2.31,0.11 3.31,0.58c0.99,0.47 1.81,1.2 2.44,2.29c0.97,1.69 1.28,3.19 0.75,4.78c-0.5,1.5 -1.66,2.82 -3.5,3.95c-1.23,0.8 -2.45,1.18 -3.72,1.35c-1.24,0.07 -2.31,-0.11 -3.4,-0.61c-1,-0.47 -1.79,-1.29 -2.45,-2.28c-0.69,-1.21 -0.91,-2.28 -0.94,-3.31zm9.53,-5.19c-1.21,-0.02 -2.77,0.48 -4.48,1.55c-1.59,1 -2.69,2.03 -3.21,3.22c-0.61,1.16 -0.49,2.21 0.14,3.29c0.65,0.99 1.62,1.56 2.84,1.58c1.31,0.04 2.77,-0.48 4.48,-1.55c1.6,-1 2.69,-2.03 3.21,-3.21c0.49,-1.09 0.49,-2.22 -0.14,-3.3c-0.65,-0.99 -1.52,-1.53 -2.84,-1.58z" fill="black" id="svg_96"/>
   <path d="m591.73,160.6l-0.53,-1.47l0.85,-0.48l1.25,2.17c0.21,0.36 0.49,0.84 0.86,1.35c0.37,0.5 0.58,0.87 0.72,1.11c0.81,1.54 1.22,2.67 1.06,3.64c-0.16,0.98 -0.62,1.57 -1.49,2.15c-0.73,0.42 -1.59,0.59 -2.37,0.48c-0.79,-0.1 -1.5,-0.5 -2.11,-1.27c0.63,1.08 0.81,1.94 0.65,2.92c-0.14,0.88 -0.72,1.54 -1.56,2.03c-1.09,0.62 -2.23,0.72 -3.35,0.32c-1.12,-0.4 -2.15,-1.49 -3.19,-3.3c-0.21,-0.36 -0.39,-0.82 -0.6,-1.18c-0.49,-0.84 -0.74,-1.42 -0.81,-1.54l-1.25,-2.17l0.82,-0.39l0.88,1.26l10.17,-5.63zm-8.46,9.14c0.62,1.08 1.26,1.76 2.02,1.97c0.76,0.2 1.5,0.09 2.34,-0.39c0.85,-0.49 1.31,-1.08 1.46,-1.65c0.15,-0.57 -0.02,-1.43 -0.58,-2.4c-0.62,-1.08 -1.04,-1.8 -1.18,-2.04l-4.89,2.66c0.09,0.43 0.34,1.01 0.83,1.85zm5.58,-4.11l0.46,0.94c0.42,0.72 1.01,1.19 1.58,1.34c0.66,0.18 1.31,0.05 2.15,-0.44c0.73,-0.42 1.16,-0.91 1.32,-1.48c0.15,-0.57 -0.05,-1.34 -0.61,-2.3c-0.21,-0.36 -0.51,-0.75 -0.69,-1.21l-0.21,-0.36l-4.56,2.55c0.14,0.24 0.28,0.48 0.56,0.96z" fill="black" id="svg_97"/>
   <path d="m606.29,186.09l-0.82,0.39l-0.86,-1.35l-10.42,5.06l0.57,1.67l-0.82,0.4l-2.28,-4.79l0.81,-0.39l0.86,1.35l10.52,-5.03l-2.63,-5.39l-10.54,5.12l0.57,1.68l-0.82,0.4l-2.31,-4.7l0.82,-0.39l0.79,1.23l10.42,-5.05l-0.5,-1.56l0.82,-0.39l5.82,11.74z" fill="black" id="svg_98"/>
   <path d="m595.98,195.66c0.19,-1.07 0.73,-1.95 1.46,-2.77c0.82,-0.8 1.84,-1.54 3.11,-2.12c1.28,-0.58 2.57,-0.84 3.76,-0.73c1.19,0.12 2.24,0.4 3.18,1.06c0.94,0.66 1.62,1.56 2.06,2.59c0.73,1.83 0.82,3.38 0.03,4.8c-0.69,1.44 -2.11,2.59 -4.06,3.39c-1.37,0.55 -2.66,0.81 -3.85,0.7c-1.2,-0.12 -2.34,-0.42 -3.28,-1.08c-0.94,-0.66 -1.62,-1.56 -2.15,-2.62c-0.32,-1.1 -0.51,-2.27 -0.26,-3.22zm10.16,-3.7c-1.26,-0.23 -2.77,0.07 -4.72,0.88c-1.73,0.76 -2.98,1.64 -3.67,2.68c-0.68,1.04 -0.87,2.11 -0.37,3.26c0.51,1.16 1.36,1.79 2.62,2.03c1.26,0.23 2.86,-0.05 4.72,-0.88c1.73,-0.76 2.98,-1.64 3.67,-2.68c0.69,-1.04 0.78,-2.14 0.36,-3.26c-0.5,-1.16 -1.35,-1.79 -2.61,-2.03z" fill="black" id="svg_99"/>
   <path d="m605.89,208.09c-1.72,0.35 -3.08,0.5 -4.06,0.34c-0.48,-0.13 -0.95,-0.26 -1.19,-0.52c-0.32,-0.3 -0.56,-0.56 -0.74,-1.02c-0.25,-0.57 -0.34,-1.01 -0.36,-1.32l1.39,-0.64c0.02,0.31 0.2,0.77 0.46,1.34c0.04,0.22 0.21,0.36 0.37,0.51c0.17,0.15 0.36,0.2 0.64,0.27c1.74,0.37 4.75,-0.25 8.96,-1.88l1.37,-0.54l-0.56,-2.09l0.91,-0.37l3.82,10.09l-0.92,0.37l-0.81,-1.54l-10.88,4.11l0.45,1.75l-0.89,0.27l-2.01,-5.43l0.89,-0.27l0.85,1.76l10.88,-4.11l-1.3,-3.51l-1.58,0.59c-2.09,0.97 -3.96,1.49 -5.69,1.84z" fill="black" id="svg_100"/>
   <path d="m616.97,216.15l-0.31,-1.51l0.89,-0.27l2.98,9.05l-2.65,1.12l-0.34,-1l1.52,-1.12l-1.35,-4.44l-5.02,1.61l1.05,2.93l1.58,-0.19l0.34,1.01l-4.13,1.34l-0.34,-1.01l1.42,-0.74l-0.93,-3l-5.25,1.75l1.82,4.97l2.6,0.19l0.01,1.12l-3.28,0.44l-3.27,-9.83l0.89,-0.28l0.64,1.4l11.13,-3.54z" fill="black" id="svg_101"/>
   <path d="m621.76,230.98l-1.02,-3.02l-4,0.46l-0.29,-1.2l4.87,-1.04l3.19,11.24l-4.8,1.57l-0.31,-1.1l3.61,-1.68l-0.78,-3.17l-11.35,3.18l0.53,2.58l-0.88,0.27l-1.94,-6.83l0.89,-0.27l0.82,2.26l11.46,-3.25z" fill="black" id="svg_102"/>
   <path d="m618.82,246.9l-0.18,-0.86c-0.23,-0.27 -0.71,-0.4 -1.37,-0.58c-0.67,-0.17 -1.45,-0.28 -2.43,-0.44c-0.98,-0.16 -1.64,-0.34 -2.12,-0.47c-0.47,-0.12 -0.73,-0.3 -0.77,-0.51l-0.56,-2.49l0.86,-0.18l0.33,0.7c0.07,0.12 0.32,0.29 0.68,0.49c0.38,0.1 0.95,0.25 1.68,0.55c0.86,0.23 1.62,0.43 2.28,0.61c0.55,0.25 1,0.47 1.33,0.76c0.04,-0.9 0.34,-1.64 0.8,-2.23c0.58,-0.66 1.31,-1.07 2.17,-1.25c1.41,-0.33 2.58,-0.12 3.31,0.58c0.72,0.71 1.33,1.89 1.7,3.51c0.12,0.34 0.18,0.87 0.24,1.39c0.04,0.62 0.13,1.05 0.24,1.39l0.63,2.61l-0.89,0.28l-0.62,-1.5l-11.31,2.68l0.26,1.7l-0.84,0.08l-1.32,-5.35l0.87,-0.17l0.56,1.68l4.8,-1.16l-0.33,-1.82zm7,-0.27c-0.07,-0.52 -0.13,-1.05 -0.22,-1.48c-0.24,-0.98 -0.59,-1.58 -1.09,-2.02c-0.49,-0.44 -1.3,-0.45 -2.28,-0.21c-0.99,0.25 -1.71,0.67 -2.08,1.28c-0.37,0.61 -0.47,1.4 -0.23,2.38c0.25,0.99 0.38,1.63 0.52,1.87l5.56,-1.36l-0.18,-0.46z" fill="black" id="svg_103"/>
   <path d="m628,257.1l-0.68,-3.14l-4.02,0.15l-0.19,-1.17l4.95,-0.61l2.24,11.4l-4.89,1.13l-0.19,-1.17l3.72,-1.35l-0.47,-3.18l-11.59,2.19l0.32,2.63l-0.87,0.18l-1.38,-6.99l0.86,-0.18l0.7,2.33l11.49,-2.22z" fill="black" id="svg_104"/>
   <path d="m618.64,274.56c0.47,-1 1.22,-1.92 2.19,-2.47c0.99,-0.65 2.21,-1.04 3.6,-1.28c1.36,-0.14 2.67,-0.1 3.76,0.4c1.12,0.4 2.04,1.15 2.81,2.07c0.77,0.92 1.18,2.05 1.35,3.32c0.15,0.96 0.16,2.08 -0.01,3.46l-0.06,0.6l-3.32,0.23l-0.17,-1.27l2.26,-0.82c0.15,-0.17 0.25,-0.55 0.25,-0.95c0.01,-0.41 0.07,-1 -0.09,-1.56c-0.11,-0.74 -0.43,-1.44 -0.99,-1.99c-0.56,-0.56 -1.27,-0.96 -2.22,-1.21c-0.95,-0.26 -1.98,-0.22 -3.22,-0.15c-1.18,0.2 -2.16,0.44 -3.1,0.9c-0.94,0.46 -1.59,1 -2.08,1.69c-0.49,0.68 -0.62,1.56 -0.54,2.4c0.13,0.64 0.19,1.17 0.4,1.53c0.12,0.34 0.35,0.6 0.59,0.87l1.9,0.51l-0.02,1.22l-2.72,-0.12c-0.05,-0.22 -0.13,-0.65 -0.41,-1.13c-0.19,-0.46 -0.39,-0.82 -0.48,-1.25c-0.09,-0.43 -0.27,-0.89 -0.31,-1.51c0.02,-1.21 0.13,-2.41 0.63,-3.49z" fill="black" id="svg_105"/>
   <path d="m633.54,288.12l-0.93,0.06l-0.42,-1.85l-9.39,0.85l2.38,1.35l7.08,4.75l0.53,-0.06l0.05,-1.72l0.93,-0.06l0.47,5.12l-0.94,0.06l-0.33,-1.42l-11.59,1.07l-0.03,1.62l-0.93,0.06l-0.44,-5.21l0.93,-0.06l0.38,1.63l9.49,-0.82l-2.32,-1.23l-7.15,-4.87l-0.62,0.04l-0.05,1.72l-0.93,0.05l-0.44,-5.21l0.93,-0.05l0.31,1.51l11.59,-1.07l0.1,-1.51l0.93,-0.05l0.41,5.3z" fill="black" id="svg_106"/>
   <path d="m634.82,308.43l-4.87,0.32l-0.08,-1.24l3.76,-0.72l-0.02,-4.08l-11.75,0.51l-0.06,3.25l-0.93,0.05l-0.38,-7.33l0.93,-0.05l0.28,2l11.56,-0.56l0.13,-2.01l0.93,-0.05l0.5,9.91z" fill="black" id="svg_107"/>
   <path d="m633.74,311.71l0.19,-1.48l0.91,0.04l-0.04,5.08l-0.9,-0.04l-0.19,-1.58l-4.99,-0.01l-0.04,6.61l4.99,0.01l0.19,-1.47l0.91,0.04l-0.02,4.98l-0.9,-0.04l-0.22,-1.48l-11.62,0.04l-0.19,1.48l-0.91,-0.04l0.02,-4.99l0.9,0.04l0.19,1.58l5.39,0.02l0.04,-6.61l-5.39,-0.02l-0.22,1.57l-0.9,-0.04l-0.06,-5.1l0.9,0.03l0.22,1.49l11.74,-0.11z" fill="black" id="svg_108"/>
   <path d="m634.78,330.63l-0.03,2.02l-13.07,3.93l-0.21,1.17l-0.91,-0.04l0.2,-4.94l0.91,0.04l0.09,1.56l2.85,-0.77l0.24,-5.43l-2.68,-1.03l-0.22,1.57l-0.9,-0.03l0.17,-4.44l0.9,0.04l0.1,1.15l12.56,5.2zm-3.05,1.11l1.63,-0.38l-1.68,-0.55l-5.93,-2.2l-0.25,4.72l6.23,-1.59z" fill="black" id="svg_109"/>
   <path d="m625.15,343.02c-1.71,-0.46 -2.92,-0.89 -3.77,-1.52c-0.43,-0.32 -0.75,-0.61 -0.87,-0.95c-0.21,-0.36 -0.2,-0.77 -0.19,-1.17c0.05,-0.6 0.06,-1 0.23,-1.26l1.53,0c-0.08,0.28 -0.11,0.78 -0.17,1.38c-0.05,0.19 0,0.41 0.14,0.65c0.04,0.21 0.2,0.36 0.47,0.53c1.34,1.07 4.4,1.79 8.88,2.18l1.51,0.09l0.37,-2.14l0.9,0.04l-0.94,10.75l-0.91,-0.04l-0.04,-1.74l-11.53,-1.06l-0.39,1.84l-0.91,-0.04l0.53,-5.77l0.9,0.04l-0.01,1.93l11.54,1.06l0.3,-3.79l-1.69,-0.15c-2.29,-0.21 -4.24,-0.53 -5.88,-0.86z" fill="black" id="svg_110"/>
   <path d="m626.79,358.94c-0.19,1.47 -0.71,2.66 -1.61,3.34c-0.8,0.7 -1.87,0.92 -3.16,0.78c-1.38,-0.17 -2.42,-0.85 -3.07,-1.84c-0.65,-0.99 -0.82,-2.26 -0.63,-3.74c0.05,-0.19 0.1,-0.38 0.06,-0.59c-0.05,-0.22 0.1,-0.38 0.17,-0.67c0.18,-0.66 0.27,-1.35 0.42,-1.92l0.38,-2.55l0.88,0.13l-0.03,1.63l11.57,1.67l0.5,-1.5l0.88,0.14l-0.8,5.28l-0.88,-0.13l-0.12,-1.87l-4.3,-0.64l-0.26,2.48zm-7.23,-2.65c-0.06,0.19 -0.16,0.57 -0.16,0.97c-0.19,1.07 0.01,1.84 0.55,2.49c0.54,0.66 1.25,1.05 2.34,1.14c0.98,0.16 1.84,-0.02 2.38,-0.48c0.62,-0.45 0.92,-1.18 1.11,-2.25l0.29,-1.86l-6.28,-0.87c-0.11,0.38 -0.18,0.67 -0.23,0.86zm10.93,15.05l-0.88,-0.14l0.06,-1.71l-11.48,-1.65l-0.46,1.71l-0.88,-0.14l0.74,-5.4l0.88,0.13l-0.05,1.72l11.47,1.65l0.46,-1.71l0.88,0.13l-0.74,5.41z" fill="black" id="svg_111"/>
   <path d="m627.68,379.55l0.58,-1.38l0.85,0.23l-1.13,5l-0.86,-0.23l0.12,-1.6l-4.89,-1.11l-1.42,6.44l4.89,1.11l0.58,-1.37l0.85,0.23l-1.11,4.9l-0.85,-0.23l0.09,-1.51l-11.36,-2.43l-0.48,1.4l-0.85,-0.23l1.1,-4.9l0.86,0.23l-0.1,1.5l5.3,1.12l1.43,-6.44l-5.31,-1.12l-0.52,1.59l-0.86,-0.23l1.13,-4.99l0.86,0.23l-0.1,1.5l11.2,2.29z" fill="black" id="svg_112"/>
   <path d="m624.65,398.09l-0.53,1.99l-13.58,1.26l-0.49,1.09l-0.86,-0.23l1.18,-4.78l0.85,0.23l-0.21,1.57l2.89,-0.14l1.3,-5.25l-2.46,-1.48l-0.59,1.47l-0.86,-0.23l1.05,-4.3l0.86,0.23l-0.12,1.19l11.57,7.38zm-3.16,0.37l1.75,-0.04l-1.52,-0.81l-5.33,-3.26l-1.13,4.58l6.23,-0.47z" fill="black" id="svg_113"/>
   <path d="m619.13,413.01l0.91,-1.9l0.83,0.33l-1.56,4.67l-8.8,-0.22l-2.41,-0.13l2.1,1.27l7.17,5.18l-1.56,4.68l-0.83,-0.32l0.44,-2.03l-11.51,-2.27l-0.69,1.45l-0.83,-0.33l1.69,-5.15l0.83,0.33l-0.34,1.64l8.25,1.9l3.56,0.76l-2.31,-1.64l-8.25,-6.08l0.4,-1.12l9.48,-0.01l3.74,0.09l-3.36,-1.51l-7.75,-3.4l-0.77,1.73l-0.83,-0.33l1.54,-4.58l0.83,0.33l-0.32,1.54l10.35,5.12z" fill="black" id="svg_114"/>
   <path d="m613.2,433.62l-0.73,1.95l-13.62,-0.49l-0.56,0.97l-0.83,-0.33l1.84,-4.6l0.83,0.33l-0.41,1.52l2.91,0.17l1.97,-5.08l-2.26,-1.83l-0.79,1.42l-0.83,-0.32l1.62,-4.15l0.84,0.32l-0.22,1.17l10.24,8.95zm-3.25,-0.05l1.69,0.15l-1.36,-0.98l-4.85,-3.95l-1.7,4.43l6.22,0.35z" fill="black" id="svg_115"/>
   <path d="m608.13,442.65l0.83,-1.2l0.83,0.32l-1.02,2.28c-0.22,0.45 -0.32,0.83 -0.52,1.18c-0.27,0.64 -0.42,1.21 -0.67,1.76c-0.75,1.63 -1.53,2.65 -2.47,3.11c-0.91,0.36 -1.94,0.39 -3.21,-0.15c-0.91,-0.45 -1.59,-0.94 -2.1,-1.68c-0.51,-0.75 -0.72,-1.52 -0.77,-2.45c-0.06,-0.93 0.2,-1.88 0.64,-2.78c0.2,-0.36 0.28,-0.64 0.47,-1c0.2,-0.35 0.25,-0.54 0.37,-0.61l-3.74,-1.62l-1.21,2.23l-0.83,-0.33l2.5,-5.54l0.83,0.33l-0.5,1.49l10.57,4.66zm-7.56,0.83c-0.44,0.9 -0.46,1.71 -0.19,2.6c0.28,0.89 1.03,1.5 2.31,2.04c0.99,0.47 1.8,0.49 2.38,0.23c0.7,-0.32 1.19,-1 1.66,-2c0.2,-0.35 0.3,-0.73 0.42,-1.21c0.08,-0.28 0.13,-0.47 0.16,-0.57l-6.11,-2.65c-0.08,0.28 -0.33,0.83 -0.63,1.56z" fill="black" id="svg_116"/>
   <path d="m591.66,449.75c0.96,-0.55 2.07,-0.87 3.19,-0.87c1.22,0.01 2.45,0.35 3.71,0.99c1.25,0.64 2.26,1.42 2.91,2.41c0.75,1.01 1.07,2.12 1.17,3.27c0.1,1.14 -0.11,2.31 -0.73,3.47c-0.45,0.9 -1.11,1.84 -1.91,2.95l-0.34,0.52l-2.94,-1.6l0.5,-1.09l2.37,0.63c0.22,-0.04 0.49,-0.28 0.78,-0.6c0.29,-0.33 0.51,-0.78 0.85,-1.3c0.4,-0.71 0.48,-1.4 0.31,-2.26c-0.11,-0.75 -0.53,-1.47 -1.14,-2.24c-0.63,-0.68 -1.48,-1.32 -2.64,-1.93c-1.09,-0.5 -2.11,-0.87 -3.08,-1.03c-0.98,-0.16 -1.91,-0.11 -2.73,0.28c-0.79,0.3 -1.35,0.87 -1.79,1.77c-0.28,0.64 -0.5,1.08 -0.5,1.49c-0.11,0.38 -0.09,0.69 0.03,1.03l1.33,1.48l-0.66,0.94l-2.22,-1.61c0.08,-0.29 0.18,-0.67 0.31,-1.14c0.13,-0.48 0.13,-0.88 0.26,-1.36c0.1,-0.38 0.35,-0.93 0.6,-1.47c0.62,-1.16 1.37,-2.08 2.36,-2.73z" fill="black" id="svg_117"/>
   <path d="m592.03,477.25l-0.78,-0.51l0.77,-1.73l-8.1,-4.72l1.17,2.45l2.95,8.02l0.44,0.23l1.08,-1.35l0.78,0.52l-2.61,4.39l-0.78,-0.51l0.58,-1.38l-10.05,-5.84l-0.95,1.27l-0.81,-0.42l2.63,-4.49l0.81,0.42l-0.72,1.54l8.18,4.84l-1.23,-2.27l-2.92,-8.11l-0.61,-0.37l-1.1,1.43l-0.81,-0.41l2.66,-4.59l0.8,0.42l-0.59,1.47l10.04,5.85l0.93,-1.18l0.78,0.52l-2.54,4.51z" fill="black" id="svg_118"/>
   <path d="m585.31,487.88c-0.24,0.54 -0.37,1.02 -0.57,1.37c-0.19,0.36 -0.39,0.71 -0.56,0.97c-0.86,1.3 -1.71,2.19 -2.62,2.56c-0.92,0.36 -1.82,0.33 -2.7,-0.21c-0.87,-0.54 -1.29,-1.27 -1.46,-2.13c-0.18,-0.86 -0.07,-1.65 0.28,-2.57c-0.66,0.94 -1.44,1.55 -2.3,1.73c-0.86,0.17 -1.65,0.06 -2.43,-0.45c-1.13,-0.71 -1.81,-1.61 -1.91,-2.75c-0.12,-1.06 0.24,-2.39 1.26,-3.94c0.37,-0.62 0.81,-1.11 1.25,-1.61c0.41,-0.4 0.8,-0.7 1.06,-0.93c0.27,-0.24 0.42,-0.4 0.51,-0.38l2.52,2l-0.51,0.78l-2.3,-0.92c-0.61,0.35 -1.16,0.91 -1.82,1.86c-0.49,0.68 -0.58,1.37 -0.44,2.02c0.13,0.64 0.69,1.2 1.57,1.74c0.61,0.37 1.28,0.55 2.02,0.44c0.74,-0.11 1.39,-0.64 1.93,-1.52l0.71,-1.13l0.88,0.54l-0.54,0.87c-0.32,0.43 -0.45,0.9 -0.57,1.38c-0.04,0.5 0.03,1.02 0.21,1.48c0.18,0.46 0.58,0.87 1.1,1.21c0.68,0.49 1.37,0.57 1.93,0.42c0.55,-0.16 1.08,-0.63 1.57,-1.31c0.32,-0.43 0.54,-0.88 0.55,-1.28c0.1,-0.38 0.08,-0.69 -0.06,-0.93l-1.29,-1.27l0.66,-0.94l2.48,1.38c-0.06,0.59 -0.25,0.95 -0.41,1.52z" fill="black" id="svg_119"/>
   <path d="m575.53,500.84l1.11,-1.13l0.78,0.52l-1.46,2.05c-0.3,0.33 -0.52,0.78 -0.89,1.39c-0.34,0.52 -0.54,0.88 -0.71,1.14c-0.98,1.36 -1.92,2.23 -2.81,2.5c-0.89,0.27 -1.77,0.14 -2.52,-0.47c-0.68,-0.49 -1.22,-1.14 -1.4,-2.01c-0.2,-0.76 -0.09,-1.55 0.23,-2.38c-0.66,0.95 -1.43,1.55 -2.32,1.83c-0.86,0.17 -1.74,0.04 -2.5,-0.57c-1.01,-0.78 -1.57,-1.75 -1.67,-2.89c-0.09,-1.15 0.41,-2.65 1.65,-4.25c0.29,-0.33 0.49,-0.68 0.78,-1.01c0.61,-0.75 0.95,-1.27 1.07,-1.34l1.47,-2.06l0.78,0.52l-0.76,1.32l9.17,6.84zm-11.92,-3.8c-0.78,1.01 -1.03,1.96 -1.02,2.67c0.01,0.72 0.52,1.47 1.3,1.98c0.75,0.61 1.51,0.82 2.16,0.68c0.65,-0.13 1.3,-0.67 1.93,-1.52c0.79,-1.01 1.18,-1.72 1.35,-1.98l-4.53,-3.25c-0.12,0.07 -0.56,0.57 -1.19,1.42zm6.06,3.25l-0.64,0.85c-0.49,0.68 -0.67,1.34 -0.54,1.99c0.14,0.65 0.58,1.28 1.26,1.77c0.69,0.48 1.35,0.66 1.97,0.62c0.56,-0.15 1.18,-0.6 1.84,-1.54c0.3,-0.33 0.52,-0.78 0.72,-1.13l0.19,-0.36l-4.17,-3.05c-0.05,0.19 -0.32,0.42 -0.63,0.85z" fill="black" id="svg_120"/>
   <path d="m566.75,514.58l-1.24,1.6l-12.96,-4.49l-0.82,0.8l-0.76,-0.61l3.08,-3.86l0.75,0.61l-0.86,1.3l2.68,1.02l3.39,-4.29l-1.61,-2.36l-1.11,1.12l-0.76,-0.6l2.76,-3.44l0.75,0.61l-0.59,1.06l7.3,11.53zm-3.08,-1.03l1.56,0.62l-1.05,-1.4l-3.49,-5.21l-2.93,3.7l5.91,2.29z" fill="black" id="svg_121"/>
   <path d="m549.4,514.72c1.1,-0.32 2.22,-0.32 3.36,-0.02c1.15,0.31 2.28,1.02 3.36,1.92c1.08,0.9 1.83,1.92 2.24,3.05c0.41,1.13 0.51,2.27 0.3,3.44c-0.21,1.16 -0.8,2.23 -1.56,3.15c-0.61,0.75 -1.52,1.52 -2.56,2.36l-0.51,0.38l-2.42,-2.38l0.85,-0.9l2.13,1.19c0.21,-0.05 0.55,-0.16 0.94,-0.47c0.36,-0.2 0.77,-0.6 1.11,-1.12c0.56,-0.57 0.86,-1.3 0.87,-2.11c0.11,-0.79 -0.09,-1.55 -0.58,-2.4c-0.48,-0.84 -1.07,-1.71 -2.08,-2.49c-0.92,-0.76 -1.77,-1.39 -2.69,-1.74c-0.93,-0.35 -1.81,-0.49 -2.64,-0.4c-0.84,0.08 -1.56,0.5 -2.17,1.25c-0.44,0.49 -0.76,0.92 -0.86,1.3c-0.19,0.35 -0.18,0.66 -0.25,0.95l0.85,1.75l-0.92,0.78l-1.68,-2.09c0.14,-0.16 0.34,-0.51 0.59,-1.06c0.22,-0.45 0.42,-0.8 0.61,-1.16c0.2,-0.35 0.52,-0.78 0.96,-1.27c0.63,-0.85 1.65,-1.6 2.75,-1.91z" fill="black" id="svg_122"/>
   <path d="m545.48,534.65c0.32,1.1 0.35,2.13 0.1,3.08c-0.26,0.95 -0.7,1.85 -1.5,2.56c-0.85,0.89 -1.82,1.44 -2.8,1.69c-0.98,0.25 -2.08,0.16 -3.1,-0.22c-1.02,-0.38 -2.06,-1.06 -3.05,-1.94c-1.05,-0.99 -1.87,-2.13 -2.25,-3.35c-0.42,-1.13 -0.61,-2.3 -0.33,-3.35c0.19,-1.07 0.75,-2.04 1.48,-2.86c0.85,-0.89 1.81,-1.45 2.82,-1.79c0.99,-0.25 2.08,-0.16 3.1,0.22c1.02,0.37 2.06,1.06 3.05,1.93l2.11,-2.18l-3.97,-3.81l-1.28,0.98l-0.63,-0.68l3.55,-3.74l0.65,0.59l-0.95,1.27l8.34,8.04l1.16,-0.91l0.63,0.68l-3.52,3.64l-0.63,-0.68l0.95,-1.27l-3.64,-3.52l-2.11,2.18c0.98,1.28 1.51,2.34 1.82,3.44zm-1.17,1.72c-0.29,-1.19 -1.15,-2.54 -2.61,-3.95c-1.29,-1.27 -2.61,-2.03 -3.87,-2.26c-1.26,-0.24 -2.37,0.08 -3.22,0.97c-0.85,0.89 -1.1,1.84 -0.81,3.04c0.29,1.2 1.15,2.55 2.7,3.98c1.29,1.27 2.52,2 3.75,2.33c1.24,0.33 2.25,-0.01 3.1,-0.9c0.85,-0.89 1.13,-1.94 0.96,-3.21z" fill="black" id="svg_123"/>
   <path d="m527.21,545.44c-0.78,-0.11 -1.83,-0.39 -3.06,-0.72c-0.86,-0.23 -1.53,-0.4 -2,-0.53c-0.38,-0.1 -0.69,-0.09 -0.93,0.05l-0.7,0.33l-0.63,-0.68l1.65,-1.6c0.24,-0.14 0.57,-0.25 1.24,-0.07c0.57,0.15 1.42,0.38 2.57,0.69c1.21,0.42 2.16,0.68 2.94,0.78c0.67,0.18 1.19,0.12 1.49,-0.21l0.82,-0.8l-3.63,-3.92l-1.38,0.95l-0.63,-0.68l3.78,-3.47l0.63,0.68l-1.02,1.16l7.9,8.53l1.25,-0.89l0.64,0.68l-3.66,3.4l-0.64,-0.68l0.96,-1.27l-3.64,-3.93l-1.21,1.1l0.89,6.56l1.26,-0.89l0.63,0.68l-3.39,3.16l-0.64,-0.67l0.93,-1.18l-0.74,-6.72c-0.18,0.26 -0.89,0.27 -1.68,0.16z" fill="black" id="svg_124"/>
   <path d="m517.93,546.62c1.05,-0.12 2.13,0.06 3.1,0.63c1.08,0.49 1.98,1.34 2.91,2.41c0.94,1.06 1.54,2.25 1.83,3.44c0.29,1.2 0.3,2.32 -0.08,3.34c-0.37,1.02 -0.94,1.99 -1.86,2.76c-1.45,1.24 -3.01,1.74 -4.58,1.52c-1.57,-0.21 -3.04,-1.22 -4.54,-2.84c-0.93,-1.06 -1.53,-2.25 -1.83,-3.44c-0.29,-1.2 -0.29,-2.32 0.11,-3.44c0.31,-1.14 0.94,-1.99 1.86,-2.76c1,-1.06 2.03,-1.49 3.08,-1.62zm6.56,8.58c-0.16,-1.26 -0.91,-2.68 -2.24,-4.16c-1.24,-1.45 -2.44,-2.29 -3.65,-2.71c-1.21,-0.43 -2.29,-0.21 -3.21,0.57c-0.92,0.77 -1.3,1.79 -1.13,3.05c0.17,1.27 0.91,2.69 2.22,4.27c1.24,1.45 2.45,2.28 3.66,2.71c1.23,0.33 2.31,0.11 3.23,-0.66c0.92,-0.78 1.29,-1.8 1.12,-3.07z" fill="black" id="svg_125"/>
   <path d="m515.8,564.08l1.33,-0.76l0.6,0.77l-1.93,1.52c-0.36,0.21 -0.77,0.6 -1.21,1.1c-0.41,0.4 -0.8,0.7 -1.04,0.84c-1.4,1.05 -2.46,1.58 -3.39,1.64c-0.94,0.05 -1.74,-0.36 -2.35,-1.14c-0.54,-0.65 -0.83,-1.45 -0.82,-2.26c0.01,-0.81 0.31,-1.54 0.9,-2.2c-0.92,0.77 -1.84,1.14 -2.74,1.1c-0.91,-0.04 -1.71,-0.46 -2.32,-1.23c-0.75,-1.02 -1.06,-2.12 -0.85,-3.29c0.21,-1.16 1.16,-2.44 2.71,-3.65c0.39,-0.31 0.75,-0.51 1.01,-0.75c0.78,-0.6 1.26,-0.88 1.4,-1.05l1.94,-1.52l0.51,0.75l-1.11,1.13l7.36,9zm-10.38,-6.86c-1.02,0.75 -1.53,1.53 -1.64,2.31c-0.11,0.79 0.09,1.56 0.7,2.33c0.61,0.77 1.22,1.14 1.91,1.23c0.69,0.08 1.39,-0.24 2.28,-0.92c1.02,-0.75 1.67,-1.28 1.84,-1.54l-3.41,-4.38c-0.38,-0.1 -0.89,0.27 -1.68,0.97zm4.93,4.79l-0.78,0.6c-0.65,0.54 -1.02,1.16 -1.1,1.85c-0.09,0.69 0.14,1.36 0.77,2.04c0.54,0.65 1.16,1.02 1.75,1.08c0.6,0.06 1.3,-0.26 2.19,-0.94c0.39,-0.31 0.68,-0.64 1.07,-0.94l0.26,-0.23l-3.17,-4.11c-0.34,0.11 -0.61,0.34 -0.99,0.65z" fill="black" id="svg_126"/>
   <g id="svg_127">
    <circle cx="101.14" cy="96.09" fill="black" id="svg_128" r="2"/>
   </g>
   <g id="svg_129">
    <circle cx="505.63" cy="70.46" fill="black" id="svg_130" r="2"/>
   </g>
  </g>
 </g>
</svg>