<svg width="739" height="725" viewBox="0 0 739 725" fill="none" xmlns="http://www.w3.org/2000/svg">
<g style="mix-blend-mode:overlay">
<path d="M530.78 619.3L530.388 618.482L531.885 617.457L527.706 609.106L527.373 611.869L525.468 620.118L525.652 620.574L527.211 620.076L527.603 620.894L523.006 623.227L522.614 622.409L523.87 621.523L518.723 611.079L517.259 611.603L516.867 610.785L521.559 608.477L521.951 609.295L520.6 610.156L524.849 618.628L525.131 616.055L527.087 607.616L526.739 607.013L525.059 607.582L524.667 606.764L529.359 604.456L529.751 605.274L528.4 606.134L533.547 616.578L534.986 616.149L535.378 616.967L530.78 619.3Z" fill="black"/>
<path d="M519.404 624.502C518.897 624.876 518.536 625.084 518.174 625.293C517.813 625.502 517.451 625.711 517.115 625.824C515.72 626.469 514.522 626.759 513.546 626.599C512.57 626.44 511.886 625.951 511.45 624.918C511.084 624.004 511.002 623.168 511.327 622.338C511.651 621.508 512.235 620.85 512.983 620.337C511.95 620.773 511.018 620.829 510.163 620.6C509.333 620.276 508.769 619.717 508.377 618.899C507.802 617.625 507.772 616.598 508.242 615.604C508.712 614.609 509.752 613.768 511.389 612.984C512.086 612.661 512.758 612.434 513.284 612.371C513.836 612.213 514.362 612.151 514.672 612.132C514.983 612.113 515.198 612.069 515.294 612.095L516.291 615.214L515.473 615.606L513.98 613.576C513.289 613.493 512.522 613.695 511.489 614.131C510.696 614.428 510.258 614.922 510.08 615.587C509.902 616.252 510.008 616.994 510.375 617.907C510.697 618.604 511.166 619.137 511.805 619.411C512.445 619.684 513.282 619.602 514.315 619.166L515.469 618.661L515.931 619.599L514.897 620.035C514.441 620.219 514.054 620.522 513.642 620.921C513.324 621.345 513.102 621.795 512.974 622.27C512.942 622.771 512.979 623.392 513.232 623.969C513.529 624.762 514.023 625.199 514.593 625.352C515.163 625.505 515.81 625.373 516.603 625.076C517.085 624.797 517.541 624.614 517.833 624.285C518.125 623.956 518.296 623.696 518.347 623.506L517.994 621.782L519.053 621.251L520.394 623.851C520.273 623.92 519.912 624.129 519.404 624.502Z" fill="black"/>
<path d="M504.181 629.998L505.69 629.689L506.056 630.602L503.679 631.493C503.317 631.702 502.766 631.859 502.189 632.112C501.612 632.365 501.25 632.574 501.009 632.713C499.424 633.307 498.156 633.476 497.301 633.247C496.446 633.018 495.787 632.434 495.446 631.426C495.149 630.633 495.068 629.797 495.367 629.062C495.57 628.302 496.154 627.643 496.877 627.226C495.749 627.636 494.792 627.787 493.962 627.463C493.132 627.139 492.473 626.555 492.132 625.547C491.627 624.393 491.717 623.297 492.308 622.233C492.898 621.169 494.059 620.257 495.98 619.55C496.437 619.367 496.773 619.253 497.204 619.165C498.091 618.893 498.668 618.641 498.884 618.596L501.167 617.68L501.438 618.568L500.018 619.308L504.181 629.998ZM496.277 620.343C495.123 620.848 494.375 621.361 493.981 622.07C493.587 622.779 493.694 623.521 493.965 624.408C494.332 625.322 494.8 625.855 495.44 626.128C496.08 626.401 496.916 626.32 497.95 625.884C499.104 625.378 499.871 625.176 500.233 624.967L498.268 619.756C497.862 619.749 497.285 620.002 496.277 620.343ZM499.54 626.411L498.627 626.778C497.834 627.075 497.302 627.543 497.028 628.183C496.755 628.823 496.767 629.539 497.159 630.357C497.456 631.15 497.924 631.682 498.469 631.93C499.013 632.178 499.85 632.097 500.884 631.661C501.34 631.477 501.702 631.269 502.158 631.085L502.52 630.877L500.669 626.001C500.428 626.14 500.092 626.254 499.54 626.411Z" fill="black"/>
<path d="M489.343 636.717L487.422 637.425L479.012 626.615L477.84 626.81L477.568 625.923L482.273 624.331L482.544 625.219L481.149 625.864L482.851 628.255L488.012 626.48L487.965 623.616L486.361 623.899L486.089 623.011L490.337 621.603L490.609 622.491L489.55 623.022L489.343 636.717ZM487.356 634.25L488.311 635.626L488.174 633.858L488.017 627.602L483.528 629.15L487.356 634.25Z" fill="black"/>
<path d="M474.727 627.402C475.867 627.708 476.741 628.248 477.514 629.167C478.286 630.087 478.912 631.172 479.246 632.586C479.606 633.904 479.68 635.146 479.444 636.407C479.208 637.668 478.643 638.637 477.818 639.435C476.993 640.232 476.004 640.884 474.78 641.269C473.893 641.541 472.72 641.736 471.383 641.785L470.762 641.822L470.005 638.564L471.229 638.178L472.386 640.322C472.576 640.373 472.956 640.475 473.361 640.481C473.767 640.488 474.319 640.331 474.965 640.198C475.732 639.996 476.36 639.553 476.824 638.965C477.287 638.376 477.611 637.546 477.65 636.64C477.689 635.734 477.589 634.586 477.274 633.483C476.958 632.38 476.522 631.346 475.915 630.573C475.307 629.799 474.674 629.12 473.939 628.821C473.205 628.522 472.324 628.388 471.436 628.66C470.79 628.792 470.308 629.07 470.067 629.209C469.826 629.348 469.534 629.678 469.362 629.937L469.138 631.914L467.966 632.109L467.652 629.479C467.867 629.435 468.229 629.226 468.711 628.948C469.098 628.644 469.459 628.435 469.916 628.252C470.277 628.043 470.829 627.886 471.38 627.728C472.439 627.197 473.587 627.097 474.727 627.402Z" fill="black"/>
<path d="M460.64 641.962C460.265 642.982 459.7 643.951 459.021 644.584C458.222 645.286 457.378 645.773 456.421 645.924C455.223 646.214 454.127 646.124 453.202 645.775C452.277 645.425 451.428 644.79 450.751 643.896C450.074 643.001 449.543 641.942 449.304 640.554C448.995 639.045 448.946 637.708 449.157 636.542C449.393 635.281 449.958 634.312 450.688 633.489C451.417 632.666 452.356 632.205 453.459 631.889C454.657 631.599 455.779 631.594 456.799 631.969C457.819 632.344 458.572 632.954 459.275 633.753C459.952 634.648 460.483 635.707 460.722 637.095L463.644 636.452L462.421 631.133L460.843 631.321L460.667 630.459L465.675 629.255L465.851 630.117L464.387 630.641L467.06 641.951L468.518 641.832L468.694 642.694L463.807 643.829L463.63 642.967L465.095 642.443L463.96 637.555L461.012 638.293C461.036 639.725 460.92 640.917 460.64 641.962ZM458.573 642.834C458.999 641.624 459.001 640.097 458.535 638.037C458.087 636.287 457.442 634.892 456.549 634.041C455.657 633.191 454.637 632.816 453.344 633.081C452.145 633.371 451.441 634.099 451.04 635.214C450.64 636.329 450.708 637.976 451.174 640.037C451.622 641.786 452.172 643.156 453.064 644.006C453.931 644.952 454.977 645.232 456.08 644.916C457.348 644.747 458.147 644.044 458.573 642.834Z" fill="black"/>
<path d="M439.366 641.151C438.802 640.592 437.979 639.862 437.112 638.917C436.479 638.238 436.106 637.731 435.777 637.439C435.448 637.147 435.188 636.975 434.998 636.925L434.307 636.841L434.131 635.979L436.381 635.564C436.692 635.545 437.046 635.742 437.445 636.154C437.844 636.567 438.477 637.246 439.154 638.14C439.996 639.18 440.629 639.859 441.192 640.418C441.66 640.951 442.11 641.173 442.541 641.085L443.714 640.89L442.776 635.647L441.128 635.715L440.951 634.853L445.978 633.959L446.129 634.916L444.69 635.345L446.717 646.787L448.244 646.789L448.395 647.746L443.489 648.571L443.389 647.423L444.854 646.899L443.941 641.562L442.337 641.845L439.516 647.812L441.069 647.718L441.22 648.676L436.719 649.507L436.568 648.55L438.008 648.12L441.07 642.015C440.569 641.982 439.955 641.614 439.366 641.151Z" fill="black"/>
<path d="M431.012 636.977C432.006 637.447 432.734 638.151 433.265 639.21C433.822 640.174 434.207 641.398 434.446 642.786C434.685 644.174 434.544 645.461 434.118 646.671C433.717 647.786 433.057 648.729 432.258 649.432C431.363 650.109 430.425 650.57 429.157 650.74C427.243 651.042 425.627 650.609 424.501 649.492C423.374 648.375 422.564 646.834 422.339 644.635C422.125 643.152 422.266 641.865 422.667 640.75C423.093 639.54 423.728 638.692 424.552 637.894C425.447 637.217 426.48 636.781 427.653 636.586C428.921 636.417 430.017 636.507 431.012 636.977ZM431.785 647.777C432.306 646.592 432.498 645.116 432.247 643.012C432.04 641.123 431.49 639.753 430.648 638.713C429.807 637.672 428.787 637.297 427.614 637.492C426.441 637.687 425.572 638.269 425.051 639.454C424.53 640.638 424.313 642.21 424.589 644.219C424.796 646.108 425.346 647.478 426.213 648.423C426.985 649.343 427.98 649.813 429.247 649.644C430.369 649.639 431.263 648.961 431.785 647.777Z" fill="black"/>
<path d="M419.638 650.532L421.14 650.629L421.196 651.56L418.686 651.805C418.281 651.798 417.729 651.956 417.108 651.993C416.461 652.125 416.056 652.118 415.84 652.162C414.167 652.325 412.881 652.184 412.102 651.67C411.323 651.156 410.905 650.433 410.78 649.381C410.698 648.544 410.928 647.689 411.296 647.074C411.664 646.46 412.413 645.948 413.3 645.676C412.153 645.776 411.177 645.616 410.398 645.102C409.619 644.588 409.227 643.77 409.172 642.838C409.097 641.596 409.377 640.551 410.227 639.658C411.078 638.765 412.447 638.216 414.526 638.06C414.957 637.972 415.363 637.978 415.863 638.011C416.795 637.955 417.416 637.917 417.606 637.968L420.116 637.724L420.172 638.656L418.664 638.965L419.638 650.532ZM414.652 639.112C413.409 639.186 412.496 639.553 412.033 640.142C411.475 640.705 411.271 641.465 411.422 642.423C411.478 643.354 411.8 644.052 412.319 644.395C412.839 644.738 413.694 644.967 414.746 644.841C415.988 644.767 416.825 644.685 417.161 644.572L416.705 639.051C416.325 638.949 415.704 638.986 414.652 639.112ZM416.209 645.844L415.157 645.97C414.32 646.051 413.623 646.374 413.28 646.893C412.937 647.412 412.733 648.172 412.815 649.009C412.896 649.846 413.123 650.518 413.643 650.861C414.162 651.203 414.922 651.407 415.974 651.282C416.405 651.193 416.906 651.226 417.363 651.043L417.794 650.954L417.356 645.744C417.046 645.763 416.735 645.782 416.209 645.844Z" fill="black"/>
<path d="M390.286 653.26L390.23 652.328L391.833 652.045L391.48 640.44L389.693 640.267L389.637 639.336L394.865 639.209L394.921 640.14L393.343 640.329L393.671 652.028L399.616 651.89L399.288 640.19L397.596 640.042L397.54 639.11L402.769 638.984L402.825 639.915L401.341 640.129L401.695 651.734L403.267 651.951L403.322 652.883L390.286 653.26Z" fill="black"/>
<path d="M385.878 640.06C386.726 640.695 387.429 641.494 387.839 642.623C388.275 643.656 388.445 644.924 388.469 646.356C388.397 647.763 388.161 649.024 387.571 650.088C386.98 651.152 386.25 651.975 385.286 652.532C384.322 653.088 383.219 653.404 382.097 653.409C380.164 653.4 378.72 652.708 377.714 651.521C376.733 650.24 376.26 648.585 376.25 646.342C376.226 644.909 376.583 643.579 377.173 642.515C377.764 641.451 378.519 640.533 379.483 639.976C380.447 639.42 381.55 639.104 382.767 639.125C383.984 639.145 385.029 639.425 385.878 640.06ZM385.123 650.858C385.809 649.82 386.216 648.299 386.25 646.271C386.234 644.433 385.925 642.925 385.299 641.84C384.673 640.756 383.704 640.19 382.487 640.17C381.27 640.15 380.306 640.706 379.62 641.745C378.935 642.783 378.502 644.399 378.468 646.427C378.459 648.36 378.698 649.748 379.419 650.858C380.045 651.942 381.014 652.507 382.231 652.528C383.404 652.333 384.343 651.871 385.123 650.858Z" fill="black"/>
<path d="M370.371 643.952C370.735 642.216 371.161 641.006 371.795 640.157C372.113 639.733 372.405 639.404 372.766 639.195C373.128 638.986 373.559 638.898 373.964 638.905C374.56 638.963 374.966 638.97 375.251 639.046L375.249 640.573C374.964 640.497 374.463 640.465 373.868 640.407C373.677 640.356 373.462 640.4 373.221 640.539C372.98 640.678 372.834 640.843 372.688 641.007C371.59 642.445 370.991 645.442 370.7 649.947L370.603 651.449L372.745 651.82L372.706 652.726L361.882 652.066L361.921 651.16L363.689 651.023L364.457 639.413L362.601 639.119L362.64 638.213L368.337 638.619L368.298 639.526L366.339 639.612L365.571 651.222L369.386 651.429L369.534 649.737C369.809 647.57 370.033 645.593 370.371 643.952Z" fill="black"/>
<path d="M358.493 650.649L360.013 651.057L359.879 651.937L350.374 650.918L350.447 647.984L351.544 648.074L351.871 649.893L356.49 650.52L357.08 645.279L354.006 644.965L353.599 646.486L352.598 646.421L353.027 642.156L354.029 642.221L354.096 643.869L357.144 644.278L357.715 638.727L352.424 638.328L351.217 640.551L350.127 640.055L350.993 636.824L361.284 637.952L361.15 638.833L359.622 638.831L358.493 650.649Z" fill="black"/>
<path d="M343.057 648.957L346.225 649.297L347.434 645.547L348.599 645.757L347.586 650.68L336.041 648.911L336.554 643.956L337.72 644.166L337.772 648.153L340.984 648.708L342.684 637.042L340.093 636.45L340.227 635.569L347.273 636.642L347.139 637.523L344.731 637.387L343.057 648.957Z" fill="black"/>
<path d="M329.727 639.784L330.608 639.918C330.944 639.804 331.356 639.405 331.699 638.886C332.042 638.367 332.626 637.708 333.14 636.929C333.654 636.151 334.118 635.562 334.435 635.137C334.752 634.713 334.993 634.574 335.183 634.625L337.705 635.097L337.571 635.978L336.829 636.085C336.614 636.129 336.398 636.173 336.106 636.502C335.84 636.736 335.402 637.23 334.939 637.819C334.329 638.572 333.866 639.161 333.454 639.56C333.016 640.054 332.654 640.262 332.198 640.446C333.002 640.865 333.565 641.423 333.888 642.121C334.21 642.818 334.292 643.655 334.132 644.631C333.845 646.082 333.185 647.025 332.272 647.392C331.264 647.733 330.021 647.807 328.38 647.47C328 647.368 327.62 647.266 327.05 647.113C326.48 646.96 326.005 646.833 325.719 646.757L323.103 646.259L323.237 645.378L324.834 645.501L327.078 634.083L325.393 633.53L325.527 632.649L330.951 633.695L330.817 634.575L329.03 634.402L328.137 639.256L329.727 639.784ZM327.184 646.232C327.754 646.385 328.229 646.512 328.61 646.614C329.585 646.774 330.302 646.762 330.904 646.414C331.507 646.066 331.875 645.452 332.06 644.381C332.22 643.405 332.138 642.569 331.695 641.941C331.252 641.313 330.638 640.944 329.688 640.69C328.712 640.53 328.047 640.352 327.736 640.371L326.639 645.984L327.184 646.232Z" fill="black"/>
<path d="M316.603 643.906L319.79 644.556L321.284 640.882L322.519 641.213L321.031 646.009L309.74 643.29L310.659 638.341L311.799 638.647L311.446 642.626L314.582 643.466L317.257 631.961L314.717 631.178L314.946 630.323L321.935 631.992L321.705 632.847L319.253 632.495L316.603 643.906Z" fill="black"/>
<path d="M304.599 628.263C305.397 629.088 305.833 630.122 306.028 631.294C306.223 632.467 306.082 633.754 305.7 635.179C305.344 636.509 304.633 637.643 303.808 638.441C302.957 639.333 301.898 639.864 300.795 640.18C299.597 640.47 298.501 640.38 297.265 640.049C296.315 639.794 295.321 639.324 294.066 638.682L293.522 638.435L294.673 635.28L295.908 635.611L295.677 637.994C295.816 638.235 296.076 638.406 296.431 638.603C296.785 638.8 297.33 639.048 297.9 639.2C298.66 639.404 299.377 639.392 300.144 639.19C300.816 638.963 301.564 638.451 302.078 637.672C302.688 636.918 303.158 635.924 303.463 634.783C303.769 633.643 303.954 632.572 303.924 631.545C303.893 630.519 303.622 629.631 303.204 628.908C302.787 628.185 302.103 627.696 301.153 627.442C300.487 627.263 300.012 627.136 299.607 627.129C299.201 627.122 298.865 627.236 298.624 627.375L297.405 628.882L296.316 628.387L297.479 625.948C297.764 626.024 298.169 626.031 298.67 626.063C299.171 626.096 299.576 626.103 299.982 626.109C300.387 626.116 300.958 626.269 301.528 626.422C302.763 626.753 303.827 627.344 304.599 628.263Z" fill="black"/>
<path d="M286.16 636.259L286.484 635.429L288.315 635.818L291.4 626.968L289.224 628.625L282.013 633.11L281.885 633.585L283.424 634.303L283.1 635.133L278.26 633.429L278.585 632.599L280.036 632.886L283.801 621.876L282.356 621.183L282.681 620.353L287.616 622.083L287.291 622.913L285.65 622.575L282.541 631.52L284.596 629.932L292.023 625.403L292.201 624.738L290.567 623.994L290.891 623.164L295.826 624.894L295.502 625.724L293.956 625.412L290.191 636.422L291.54 637.089L291.215 637.919L286.16 636.259Z" fill="black"/>
<path d="M267.067 629.207L268.72 624.557L269.93 624.983L269.032 628.715L272.776 630.329L277.136 619.377L274.153 617.966L274.477 617.136L281.306 619.781L280.982 620.611L278.986 620.076L274.771 630.864L276.545 631.848L276.221 632.678L267.067 629.207Z" fill="black"/>
<path d="M264.528 626.897L265.731 627.729L265.407 628.559L260.764 626.5L261.088 625.67L262.609 626.078L264.642 621.53L258.625 618.899L256.591 623.447L257.89 624.304L257.565 625.134L253.017 623.1L253.342 622.27L254.767 622.652L259.457 611.992L258.133 611.23L258.458 610.4L263.006 612.433L262.681 613.263L261.186 612.761L258.93 617.758L264.948 620.389L267.204 615.392L265.785 614.604L266.109 613.774L270.847 615.859L270.523 616.688L269.123 616.211L264.528 626.897Z" fill="black"/>
<path d="M246.817 620.012L245.018 619.123L246.726 605.524L245.783 604.864L246.202 604.06L250.604 606.258L250.185 607.062L248.69 606.56L248.236 609.392L253.088 611.813L255.081 609.698L253.687 608.816L254.107 608.011L258.059 609.987L257.64 610.791L256.525 610.391L246.817 620.012ZM247.061 616.818L246.723 618.46L247.891 617.143L252.263 612.61L248.051 610.463L247.061 616.818Z" fill="black"/>
<path d="M239.507 606.239C240.579 604.896 241.55 603.934 242.419 603.352C242.901 603.074 243.237 602.96 243.668 602.872C244.074 602.879 244.454 602.981 244.904 603.203C245.448 603.451 245.778 603.743 246.037 603.914L245.465 605.289C245.206 605.117 244.851 604.92 244.237 604.552C244.072 604.406 243.882 604.355 243.666 604.399C243.451 604.443 243.235 604.487 242.994 604.627C241.453 605.436 239.574 607.886 237.288 611.857L236.526 613.181L238.318 614.476L237.899 615.28L228.513 610.015L228.932 609.211L230.592 609.859L236.276 599.669L234.718 598.64L235.138 597.836L240.198 600.618L239.779 601.422L238.049 600.653L232.391 610.749L235.678 612.546L236.491 611.032C237.38 609.234 238.434 607.581 239.507 606.239Z" fill="black"/>
<path d="M211.458 599.538L211.972 598.759L213.607 599.502L219.81 589.655L218.468 588.582L218.982 587.803L223.586 590.768L223.072 591.547L221.533 590.829L215.329 600.677L216.671 601.75L216.157 602.528L211.458 599.538ZM224.271 601.138C222.973 600.28 222.201 599.36 221.86 598.352C221.519 597.344 221.704 596.273 222.415 595.14C223.151 593.911 224.141 593.26 225.314 593.065C226.486 592.87 227.722 593.201 229.045 593.963C229.21 594.109 229.4 594.16 229.565 594.306C229.729 594.452 229.894 594.598 230.084 594.648C230.673 595.112 231.192 595.455 231.616 595.772L233.788 597.169L233.274 597.948L231.83 597.255L225.626 607.103L226.779 608.125L226.264 608.903L221.73 606.059L222.244 605.28L223.973 606.049L226.278 602.388L224.271 601.138ZM229.614 595.643C229.449 595.497 229.189 595.325 228.74 595.103C227.866 594.563 227.011 594.334 226.243 594.536C225.476 594.738 224.823 595.276 224.163 596.219C223.623 597.093 223.419 597.854 223.621 598.621C223.823 599.388 224.361 600.041 225.235 600.581L226.888 601.635L230.247 596.322C230.038 595.96 229.873 595.814 229.614 595.643Z" fill="black"/>
<path d="M205.02 593.535L206.052 594.626L205.537 595.405L201.46 592.377L201.974 591.598L203.393 592.386L206.421 588.308L201.14 584.448L198.112 588.526L199.143 589.617L198.629 590.396L194.646 587.394L195.161 586.615L196.51 587.282L203.397 577.923L202.34 576.927L202.854 576.148L206.932 579.176L206.418 579.955L205.094 579.193L201.895 583.53L207.176 587.39L210.375 583.052L209.153 581.91L209.668 581.131L213.84 584.184L213.326 584.963L212.003 584.201L205.02 593.535Z" fill="black"/>
<path d="M189.182 583.077L187.606 581.738L192.191 568.809L191.419 567.889L192.002 567.23L195.865 570.302L195.255 571.056L193.957 570.199L192.934 572.878L197.195 576.363L199.656 574.781L198.529 573.665L199.113 573.006L202.551 575.761L201.967 576.419L200.903 575.829L189.182 583.077ZM190.187 580.087L189.564 581.652L190.966 580.602L196.18 577.109L192.508 574.088L190.187 580.087Z" fill="black"/>
<path d="M178.079 572.056L179.389 573.629L178.805 574.287L175.14 570.861L178.901 562.905L180.083 560.777L178.078 562.175L170.487 566.558L166.891 563.252L167.475 562.594L169.172 563.863L175.99 554.384L174.914 553.077L175.498 552.419L179.398 556.112L178.814 556.77L177.446 555.793L172.393 562.486L170.197 565.36L172.607 563.969L181.593 558.941L182.486 559.791L178.641 568.438L177.034 571.776L179.724 569.339L186.024 563.693L184.758 562.336L185.342 561.677L188.938 564.983L188.354 565.642L187.081 564.69L178.079 572.056Z" fill="black"/>
<path d="M161.751 558.106L160.321 556.602L166.445 544.391L165.793 543.401L166.472 542.768L169.896 546.334L169.218 546.967L167.945 546.015L166.541 548.593L170.39 552.476L172.99 551.136L172.009 549.854L172.688 549.221L175.808 552.4L175.13 553.033L174.186 552.373L161.751 558.106ZM163.136 555.218L162.323 556.732L163.864 555.922L169.521 553.058L166.166 549.613L163.136 555.218Z" fill="black"/>
<path d="M155.544 549.72L156.335 550.951L155.656 551.584L154.017 549.719C153.687 549.427 153.384 549.04 153.054 548.748C152.561 548.31 152.092 547.777 151.694 547.364C150.523 546.032 149.922 544.853 149.892 543.826C149.861 542.799 150.401 541.925 151.372 540.963C152.146 540.356 152.894 539.843 153.731 539.762C154.593 539.585 155.474 539.719 156.303 540.044C157.133 540.368 157.887 540.977 158.589 541.777C158.823 542.043 159.058 542.31 159.292 542.576C159.526 542.842 159.665 543.083 159.76 543.109L162.837 540.368L161.249 538.313L161.928 537.68L166.004 542.235L165.325 542.868L164.173 541.847L155.544 549.72ZM157.885 542.505C157.252 541.826 156.448 541.406 155.662 541.298C154.876 541.189 153.843 541.625 152.872 542.587C152.072 543.29 151.679 543.999 151.69 544.715C151.702 545.432 152.094 546.25 152.797 547.049C153.031 547.315 153.36 547.607 153.689 547.899C153.854 548.045 154.018 548.191 154.088 548.312L159.03 543.932C158.796 543.666 158.423 543.158 157.885 542.505Z" fill="black"/>
<path d="M155.844 531.874C156.039 533.047 155.854 534.118 155.264 535.182C154.768 536.271 153.892 537.259 152.826 538.195C151.76 539.132 150.606 539.638 149.434 539.833C148.261 540.028 147.044 540.007 145.955 539.512C144.84 539.111 143.896 538.451 143.055 537.411C142.447 536.637 141.796 535.647 141.195 534.468L140.942 533.891L143.625 531.86L144.397 532.779L142.887 534.615C142.931 534.831 142.95 535.142 143.133 535.598C143.342 535.96 143.62 536.442 143.993 536.949C144.531 537.602 145.145 537.971 145.906 538.175C146.666 538.378 147.503 538.297 148.39 538.025C149.278 537.754 150.242 537.197 151.162 536.425C152.082 535.653 152.786 534.925 153.326 534.051C153.865 533.177 154.19 532.347 154.203 531.536C154.217 530.725 153.92 529.933 153.407 529.184C153.034 528.677 152.61 528.359 152.281 528.067C151.952 527.775 151.666 527.699 151.356 527.718L149.46 528.33L148.809 527.341L151.098 526.019C151.263 526.165 151.592 526.457 152.016 526.774C152.44 527.092 152.795 527.288 153.124 527.58C153.453 527.872 153.757 528.259 154.251 528.697C155.213 529.668 155.744 530.727 155.844 531.874Z" fill="black"/>
<path d="M125.37 513.319L126.118 512.807L127.264 514.234L135.084 508.996L132.34 508.974L123.906 508.14L123.519 508.443L124.233 509.959L123.485 510.471L120.67 506.152L121.418 505.64L122.45 506.731L132.129 500.259L131.389 498.839L132.137 498.326L135.048 502.671L134.299 503.183L133.223 501.876L125.282 507.184L127.836 507.156L136.461 508.041L137.063 507.693L136.254 506.152L137.002 505.639L139.912 509.984L139.164 510.496L138.158 509.31L128.479 515.782L129.124 517.177L128.375 517.689L125.37 513.319Z" fill="black"/>
<path d="M118.747 502.683C118.348 502.271 118.045 501.884 117.715 501.592C117.386 501.3 117.272 500.964 117.038 500.697C116.273 499.372 115.862 498.243 115.832 497.217C115.802 496.19 116.29 495.506 117.254 494.949C118.098 494.462 118.96 494.286 119.815 494.515C120.671 494.744 121.354 495.233 121.987 495.912C121.431 494.948 121.185 493.965 121.414 493.11C121.643 492.255 122.132 491.571 122.88 491.058C123.99 490.337 125.163 490.142 126.183 490.517C127.203 490.893 128.191 491.768 129.19 493.36C129.538 493.963 129.886 494.565 130.043 495.117C130.201 495.668 130.384 496.125 130.498 496.461C130.612 496.797 130.656 497.012 130.63 497.107L127.72 498.467L127.233 497.623L129.003 495.958C128.991 495.242 128.694 494.45 128.112 493.581C127.695 492.858 127.106 492.394 126.51 492.337C125.915 492.279 125.053 492.455 124.209 492.942C123.581 493.385 123.143 493.879 122.87 494.519C122.692 495.184 122.868 496.046 123.45 496.915L124.171 498.025L123.302 498.607L122.746 497.643C122.468 497.161 122.138 496.869 121.714 496.552C121.29 496.234 120.815 496.107 120.314 496.075C119.813 496.042 119.262 496.2 118.659 496.548C117.936 496.966 117.594 497.485 117.441 498.055C117.383 498.651 117.515 499.297 117.933 500.02C118.211 500.502 118.515 500.889 118.869 501.086C119.199 501.378 119.484 501.454 119.699 501.41L121.379 500.842L122.031 501.831L119.665 503.438C119.475 503.387 119.241 503.121 118.747 502.683Z" fill="black"/>
<path d="M111.4 488.288L111.924 489.752L111.106 490.144L109.88 487.88C109.671 487.519 109.393 487.037 109.019 486.529C108.646 486.022 108.437 485.66 108.298 485.419C107.489 483.878 107.199 482.68 107.238 481.774C107.372 480.893 107.861 480.209 108.825 479.653C109.643 479.261 110.41 479.059 111.17 479.263C111.956 479.371 112.64 479.86 113.178 480.514C112.646 479.455 112.401 478.472 112.63 477.617C112.859 476.761 113.348 476.078 114.286 475.616C115.371 474.99 116.518 474.89 117.607 475.385C118.722 475.786 119.754 476.877 120.772 478.78C120.981 479.141 121.164 479.598 121.373 479.959C121.765 480.777 122.018 481.354 122.182 481.5L123.339 483.644L122.521 484.036L121.636 482.78L111.4 488.288ZM114.398 483.183L113.936 482.245C113.519 481.522 113.05 480.989 112.385 480.811C111.72 480.632 111.073 480.765 110.255 481.157C109.532 481.574 108.999 482.042 108.846 482.613C108.694 483.183 108.896 483.95 109.357 484.888C109.566 485.25 109.844 485.732 110.053 486.093L110.262 486.455L114.885 484.027C114.885 484.027 114.676 483.665 114.398 483.183ZM120.049 479.197C119.423 478.113 118.79 477.434 118.055 477.135C117.32 476.836 116.579 476.943 115.735 477.43C114.892 477.917 114.359 478.386 114.276 479.076C114.192 479.767 114.299 480.509 114.856 481.473C115.482 482.557 115.804 483.255 116.013 483.616L120.903 480.954C120.763 480.713 120.511 480.136 120.049 479.197Z" fill="black"/>
<path d="M102.899 474.398L101.976 472.521L111.589 462.874L111.273 461.771L112.091 461.379L114.26 465.831L113.442 466.223L112.582 464.872L110.424 466.84L112.776 471.748L115.648 471.295L115.149 469.736L115.967 469.344L117.857 473.313L117.039 473.705L116.387 472.716L102.899 474.398ZM105.063 472.024L103.731 473.195L105.455 472.842L111.698 471.969L109.6 467.638L105.063 472.024Z" fill="black"/>
<path d="M110.276 458.652C110.091 459.723 109.595 460.812 108.865 461.635C108.135 462.458 107 463.274 105.725 463.85C104.451 464.425 103.183 464.595 101.992 464.479C100.801 464.364 99.6856 463.963 98.7421 463.303C97.7986 462.642 97.0519 461.628 96.5463 460.473C96.1798 459.56 95.8643 458.457 95.5996 457.164L95.4673 456.517L98.6376 455.33L99.1432 456.484L97.1388 457.882C97.0879 458.072 97.0811 458.478 97.1693 458.909C97.2575 459.34 97.4153 459.891 97.6681 460.468C97.9905 461.166 98.4333 461.794 99.1427 462.188C99.852 462.582 100.612 462.785 101.544 462.729C102.476 462.673 103.553 462.453 104.707 461.947C105.741 461.511 106.705 460.955 107.504 460.252C108.304 459.55 108.793 458.866 109.022 458.01C109.346 457.181 109.265 456.344 108.873 455.526C108.62 454.949 108.341 454.467 108.107 454.2C107.873 453.934 107.639 453.667 107.259 453.566L105.231 453.531L104.915 452.428L107.527 451.804C107.666 452.045 107.875 452.407 108.179 452.793C108.482 453.18 108.812 453.472 109.02 453.834C109.229 454.195 109.507 454.677 109.76 455.254C110.266 456.408 110.461 457.581 110.276 458.652Z" fill="black"/>
<path d="M94.0852 446.47C93.0143 446.285 92.0199 445.815 91.2664 445.206C90.513 444.597 89.931 443.728 89.5899 442.72C89.1793 441.591 89.0539 440.539 89.334 439.493C89.6141 438.448 90.0588 437.549 90.8582 436.846C91.683 436.049 92.647 435.492 93.8961 435.012C95.3607 434.488 96.6284 434.318 97.8452 434.338C99.0365 434.454 100.151 434.855 101 435.489C101.848 436.124 102.526 437.019 102.962 438.052C103.372 439.181 103.472 440.328 103.287 441.399C103.102 442.47 102.562 443.343 101.737 444.141C100.913 444.939 99.9232 445.59 98.6741 446.07L99.7481 448.905L104.839 447.009L104.461 445.38L105.349 445.109L107.105 449.959L106.217 450.231L105.477 448.81L94.6226 452.828L94.9313 454.336L94.0437 454.608L92.2622 449.853L93.1498 449.581L93.8896 451.002L98.6449 449.22L97.571 446.386C96.3728 446.676 95.1305 446.751 94.0852 446.47ZM92.9466 444.638C94.182 444.969 95.7603 444.78 97.7069 443.978C99.4125 443.314 100.643 442.524 101.424 441.511C102.204 440.497 102.39 439.427 101.979 438.298C101.568 437.169 100.72 436.535 99.5794 436.229C98.439 435.924 96.8353 436.207 94.9141 436.914C93.2085 437.578 91.9781 438.368 91.2228 439.287C90.4421 440.3 90.2825 441.275 90.6931 442.404C90.9831 443.602 91.8062 444.332 92.9466 444.638Z" fill="black"/>
<path d="M92.2913 425.415C92.7801 424.731 93.4149 423.883 94.2907 422.895C94.8745 422.237 95.3124 421.743 95.6298 421.319C95.9217 420.989 95.9981 420.704 96.049 420.514L96.0372 419.798L96.9248 419.527L97.651 421.758C97.7901 421.999 97.5677 422.449 97.2504 422.873C96.9075 423.393 96.3236 424.051 95.4988 424.849C94.623 425.836 93.9187 426.564 93.4553 427.153C92.992 427.742 92.8647 428.217 92.9783 428.553L93.2939 429.656L98.4039 428.072L98.1461 426.373L99.0337 426.101L100.574 430.996L99.6866 431.267L99.0419 429.872L87.9343 433.313L88.1479 434.796L87.2603 435.068L85.7894 430.294L86.677 430.022L87.3218 431.417L92.4318 429.833L91.933 428.273L85.6421 426.282L85.9254 427.885L85.0378 428.157L83.6805 423.719L84.5681 423.448L85.2383 424.748L91.6684 426.98C91.5547 426.644 91.8279 426.004 92.2913 425.415Z" fill="black"/>
<path d="M95.2808 416.539C94.9056 417.559 94.2709 418.408 93.3764 419.085C92.482 419.762 91.3025 420.363 89.9839 420.722C88.5702 421.056 87.3279 421.131 86.1621 420.92C84.9962 420.71 84.0272 420.145 83.2042 419.415C82.3812 418.685 81.8246 417.721 81.5345 416.523C81.0171 414.653 81.2344 413.081 82.2121 411.714C83.1642 410.441 84.6357 409.511 86.7214 408.949C88.1351 408.615 89.4724 408.566 90.6383 408.777C91.8041 408.987 92.8681 409.578 93.6912 410.308C94.5142 411.037 95.0708 412.001 95.3609 413.2C95.6509 414.398 95.6559 415.52 95.2808 416.539ZM84.6247 418.675C85.8347 419.101 87.3875 419.008 89.3528 418.516C91.1975 418.094 92.523 417.328 93.3733 416.436C94.2236 415.543 94.5292 414.403 94.2136 413.3C93.9235 412.102 93.1005 411.372 91.8905 410.946C90.6806 410.52 89.0327 410.587 87.0674 411.079C85.2227 411.502 83.8972 412.267 83.0469 413.16C82.1966 414.052 81.9165 415.097 82.2066 416.296C82.7122 417.45 83.5098 418.275 84.6247 418.675Z" fill="black"/>
<path d="M80.4305 406.958L80.5237 408.511L79.6616 408.688L79.1068 406.196C79.0186 405.765 78.8609 405.214 78.7031 404.662C78.5453 404.11 78.362 403.654 78.3434 403.343C77.9905 401.619 78.011 400.402 78.3352 399.572C78.6594 398.743 79.4079 398.23 80.3905 397.984C81.2527 397.808 82.0384 397.916 82.7732 398.215C83.4825 398.609 84.0459 399.167 84.4379 399.985C84.1478 398.787 84.1869 397.881 84.6061 397.077C85.0254 396.272 85.7738 395.76 86.731 395.609C87.9291 395.319 89.095 395.529 90.013 396.285C90.9566 396.945 91.6964 398.365 92.0933 400.305C92.1815 400.736 92.2697 401.167 92.2629 401.573C92.4139 402.53 92.5716 403.081 92.6158 403.297L93.196 405.693L92.3338 405.87L91.8095 404.405L80.4305 406.958ZM84.6752 402.901L84.4292 401.918C84.2528 401.056 83.9049 400.454 83.2906 400.085C82.7713 399.743 81.9856 399.634 81.0981 399.905C80.2359 400.082 79.6334 400.43 79.3856 400.974C79.1378 401.519 79.0291 402.305 79.2496 403.382C79.3378 403.814 79.426 404.245 79.6093 404.701L79.723 405.037L84.8007 403.953C84.8516 403.763 84.7379 403.427 84.6752 402.901ZM91.1107 400.551C90.8206 399.353 90.4286 398.535 89.7448 398.046C89.1559 397.583 88.3702 397.474 87.3875 397.72C86.4304 397.871 85.8024 398.314 85.5546 398.859C85.2118 399.378 85.1727 400.284 85.3932 401.362C85.6833 402.56 85.8597 403.422 85.9734 403.758L91.3871 402.56C91.4635 402.275 91.3312 401.629 91.1107 400.551Z" fill="black"/>
<path d="M73.9687 378.235L74.9259 378.084L75.4247 379.643L86.9106 377.832L86.8684 376.089L87.8255 375.938L88.6685 381.155L87.7113 381.306L87.3076 379.772L75.8217 381.583L76.7715 387.542L88.3525 385.756L88.3102 384.013L89.2673 383.862L90.0153 389.053L89.0581 389.204L88.6289 387.765L77.143 389.576L77.1157 391.199L76.1585 391.35L73.9687 378.235Z" fill="black"/>
<path d="M86.6006 372.147C86.1559 373.046 85.3311 373.844 84.3671 374.4C83.4031 374.957 82.1795 375.342 80.7217 375.461C79.2639 375.579 77.9775 375.438 76.8626 375.038C75.7477 374.637 74.8041 373.977 74.1271 373.082C73.45 372.188 73.014 371.154 72.9139 370.007C72.7071 368.118 73.14 366.503 74.2567 365.376C75.3735 364.249 76.9841 363.56 79.1835 363.335C80.6413 363.216 81.9277 363.357 83.0426 363.758C84.1575 364.158 85.101 364.819 85.8731 365.739C86.5502 366.633 86.9862 367.667 87.0863 368.814C87.2304 370.177 87.0453 371.247 86.6006 372.147ZM75.7563 372.704C76.9153 373.32 78.4173 373.417 80.4962 373.261C82.385 373.054 83.7291 372.6 84.7695 371.758C85.7844 371.011 86.2546 370.017 86.085 368.749C85.985 367.602 85.3079 366.708 84.1489 366.091C82.9898 365.475 81.3929 365.353 79.409 365.534C77.5202 365.741 76.081 366.17 75.1357 367.038C74.1208 367.784 73.7456 368.804 73.9152 370.072C73.9898 371.314 74.6668 372.209 75.7563 372.704Z" fill="black"/>
<path d="M80.6927 357.322C82.3847 357.47 83.7406 357.732 84.64 358.176C85.0897 358.399 85.4189 358.691 85.6531 358.957C85.8618 359.319 85.9755 359.655 86.0637 360.086C86.101 360.707 86.0941 361.113 86.0177 361.398L84.5345 361.611C84.5158 361.301 84.5227 360.895 84.5109 360.179C84.4668 359.963 84.4227 359.748 84.258 359.602C84.0934 359.456 83.9288 359.31 83.6692 359.139C82.1555 358.326 79.0821 358.011 74.5187 358.316L73.0609 358.435L73.0013 360.558L72.0696 360.614L71.3917 349.839L72.3234 349.783L72.6762 351.508L84.2876 350.748L84.3659 348.936L85.2976 348.88L85.7027 354.591L84.771 354.647L84.4691 352.732L72.8831 353.396L73.0814 357.218L74.7292 357.151C77.0678 357.166 79.0007 357.175 80.6927 357.322Z" fill="black"/>
<path d="M72.524 346.374L72.3066 347.945L71.3749 348.001L71.1772 338.476L74.1183 338.143L74.1487 339.17L72.3735 339.713L72.3426 344.39L77.5713 344.263L77.4799 341.183L75.9084 340.966L75.8779 339.939L80.1749 339.868L80.2054 340.895L78.6016 341.178L78.5725 344.328L84.1118 344.182L83.7949 338.903L81.4004 337.955L81.706 336.815L84.9439 337.275L85.128 347.612L84.1963 347.668L84.0081 346.09L72.524 346.374Z" fill="black"/>
<path d="M72.308 330.834L72.3739 334.009L76.2516 334.743L76.2311 335.959L71.2503 335.541L71.5177 323.9L76.5309 323.817L76.5104 325.034L72.5867 325.612L72.4371 328.831L84.1995 329.029L84.4118 326.336L85.3181 326.375L85.1512 333.46L84.2449 333.421L84.0958 330.937L72.308 330.834Z" fill="black"/>
<path d="M79.734 316.425L79.6949 317.331C79.9036 317.692 80.2328 317.984 80.8471 318.353C81.3664 318.695 82.0757 319.089 82.9751 319.534C83.8745 319.979 84.4889 320.347 84.9386 320.569C85.3883 320.792 85.6224 321.058 85.5715 321.248L85.4101 323.751L84.5038 323.712L84.397 322.971C84.3529 322.755 84.1883 322.609 83.9541 322.343C83.5994 322.146 83.1752 321.828 82.4913 321.339C81.6869 320.92 81.0981 320.457 80.5788 320.114C80.0596 319.771 79.7558 319.384 79.5471 319.023C79.2229 319.853 78.7595 320.441 78.0111 320.954C77.2881 321.371 76.521 321.573 75.5197 321.509C74.0178 321.412 73.0234 320.942 72.4669 319.978C71.9103 319.014 71.7407 317.746 71.863 316.149C71.8698 315.743 71.9717 315.363 72.0294 314.768C72.0872 314.172 72.2145 313.697 72.1959 313.386L72.4083 310.693L73.3145 310.732L73.4077 312.285L85.0173 313.053L85.2855 311.291L86.1918 311.331L85.8366 316.837L84.9304 316.798L84.9136 314.96L79.9073 314.638L79.734 316.425ZM72.9611 314.712C72.8083 315.282 72.7761 315.782 72.7692 316.188C72.7047 317.189 72.8115 317.931 73.2799 318.464C73.7482 318.997 74.388 319.27 75.4843 319.36C76.4855 319.425 77.2527 319.223 77.8806 318.78C78.5086 318.337 78.7123 317.577 78.8719 316.601C78.9364 315.6 78.9942 315.004 78.906 314.573L73.209 314.167L72.9611 314.712Z" fill="black"/>
<path d="M73.9056 303.964L73.6609 307.158L77.4623 308.177L77.3468 309.368L72.3727 308.545L73.6414 296.967L78.6477 297.29L78.5323 298.481L74.6154 298.654L74.1552 301.892L85.8275 303.186L86.325 300.57L87.2058 300.704L86.4177 307.826L85.5369 307.692L85.5779 305.259L73.9056 303.964Z" fill="black"/>
<path d="M88.0299 290.026C87.3001 290.849 86.3106 291.5 85.2075 291.816C84.1044 292.131 82.7671 292.181 81.4112 291.919C80.0553 291.658 78.8453 291.232 77.9272 290.476C77.0092 289.721 76.2371 288.801 75.8265 287.673C75.4159 286.544 75.3159 285.397 75.5519 284.136C75.7115 283.16 76.017 282.02 76.5382 280.835L76.786 280.29L80.068 280.966L79.832 282.227L77.373 282.281C77.227 282.446 77.0556 282.705 76.8332 283.155C76.6363 283.51 76.4836 284.08 76.4258 284.676C76.3171 285.461 76.424 286.203 76.7464 286.9C77.0688 287.598 77.6321 288.156 78.5061 288.696C79.285 289.21 80.3304 289.49 81.5913 289.726C82.7571 289.937 83.7839 289.907 84.836 289.781C85.7932 289.63 86.7063 289.264 87.3597 288.726C88.0131 288.188 88.4069 287.478 88.5665 286.503C88.6497 285.812 88.682 285.311 88.6634 285.001C88.6447 284.69 88.531 284.354 88.3223 283.993L86.6695 282.939L86.975 281.798L89.49 282.676C89.4136 282.961 89.5273 283.297 89.5901 283.823C89.6783 284.254 89.646 284.755 89.7342 285.186C89.8224 285.617 89.6951 286.092 89.6119 286.783C89.2808 288.018 88.7852 289.108 88.0299 290.026Z" fill="black"/>
<path d="M77.7964 272.718L78.6771 272.852L78.5039 274.639L87.6594 276.583L85.7351 274.642L80.3814 268.012L79.9062 267.885L79.3783 269.475L78.4975 269.341L79.5366 264.323L80.4173 264.457L80.3205 265.959L91.6872 268.394L92.1897 266.898L93.045 267.128L91.9805 272.241L91.1252 272.012L91.273 270.32L81.9274 268.325L83.7822 270.146L89.2054 276.896L89.8706 277.074L90.424 275.389L91.3048 275.523L90.2403 280.636L89.3595 280.502L89.4819 278.905L78.1151 276.47L77.6381 277.87L76.7573 277.736L77.7964 272.718Z" fill="black"/>
<path d="M82.3767 252.963L87.1794 254.046L86.8483 255.281L83.0843 254.884L81.9197 258.85L93.3747 261.716L94.4051 258.63L95.2604 258.86L93.4711 265.918L92.6158 265.688L92.9605 263.642L81.6956 260.827L80.9962 262.677L80.1409 262.448L82.3767 252.963Z" fill="black"/>
<path d="M84.3574 250.132L83.6904 251.482L82.8351 251.252L84.3493 246.362L85.2046 246.591L84.9872 248.162L89.783 249.651L91.6792 243.335L86.8834 241.846L86.2163 243.195L85.361 242.966L86.8497 238.17L87.7051 238.399L87.5132 239.876L98.6253 243.261L99.1973 241.886L100.053 242.115L98.5639 246.911L97.7086 246.682L98.021 245.136L92.845 243.545L90.9489 249.861L96.1248 251.452L96.7223 249.982L97.5776 250.212L96.0634 255.103L95.2081 254.873L95.495 253.422L84.3574 250.132Z" fill="black"/>
<path d="M88.8918 231.689L89.6166 229.744L103.268 229.735L103.859 228.671L104.688 228.996L103.035 233.645L102.205 233.321L102.518 231.775L99.5834 231.702L97.8027 236.827L100.088 238.56L100.781 237.116L101.611 237.44L100.18 241.64L99.35 241.316L99.5606 240.15L88.8918 231.689ZM92.1621 231.649L90.4701 231.501L91.9329 232.504L96.9288 236.287L98.5312 231.827L92.1621 231.649Z" fill="black"/>
<path d="M101.787 222.718C103.275 223.626 104.383 224.432 104.991 225.206C105.295 225.593 105.478 226.049 105.592 226.385C105.68 226.817 105.578 227.197 105.476 227.577C105.228 228.122 105.031 228.476 104.86 228.736L103.46 228.259C103.631 227.999 103.759 227.524 104.006 226.979C104.057 226.789 104.134 226.504 104.064 226.384C104.02 226.168 103.881 225.927 103.742 225.686C102.691 224.284 100.07 222.665 95.8254 221.018L94.4508 220.446L93.4409 222.315L92.6111 221.991L96.6221 211.963L97.4519 212.287L96.9936 213.998L107.756 218.308L108.594 216.699L109.424 217.023L107.282 222.357L106.452 222.033L106.962 220.132L96.1992 215.822L94.7564 219.306L96.321 219.929C98.4745 221.015 100.299 221.81 101.787 222.718Z" fill="black"/>
<path d="M104.797 206.921C105.464 205.572 106.22 204.654 107.253 204.218C108.287 203.782 109.288 203.847 110.472 204.368C111.726 205.009 112.619 205.86 112.909 207.058C113.225 208.161 113.084 209.447 112.417 210.797C112.366 210.987 112.22 211.151 112.169 211.341C112.023 211.506 111.972 211.696 111.801 211.956C111.432 212.57 111.184 213.115 110.937 213.659L109.92 215.933L109.115 215.514L109.618 214.019L99.0337 209.044L98.1766 210.342L97.3722 209.923L99.5771 205.115L100.382 205.535L99.8027 207.315L103.685 209.17L104.797 206.921ZM104.8 193.986L105.604 194.406L105.051 196.091L115.54 201.04L116.448 199.552L117.253 199.971L114.902 204.944L114.097 204.524L114.651 202.839L104.162 197.89L103.253 199.378L102.449 198.959L104.8 193.986ZM110.971 211.631C111.117 211.467 111.219 211.087 111.415 210.732C111.86 209.833 111.899 208.926 111.602 208.134C111.305 207.341 110.647 206.757 109.653 206.287C108.753 205.842 107.847 205.803 107.175 206.031C106.477 206.353 105.919 206.916 105.474 207.816L104.705 209.545L110.412 212.195C110.653 212.056 110.825 211.796 110.971 211.631Z" fill="black"/>
<path d="M109.86 186.888L108.933 188.066L108.129 187.647L110.637 183.226L111.442 183.645L110.844 185.115L115.29 187.528L118.466 181.759L114.02 179.345L113.093 180.523L112.289 180.104L114.677 175.752L115.481 176.172L115.004 177.572L125.195 183.256L126.121 182.078L126.926 182.498L124.512 186.944L123.708 186.525L124.305 185.055L119.504 182.444L116.329 188.214L121.129 190.825L122.107 189.457L122.911 189.876L120.377 194.392L119.573 193.973L120.145 192.598L109.86 186.888Z" fill="black"/>
<path d="M118.284 169.894L119.363 168.147L132.726 171.116L133.481 170.198L134.26 170.712L131.612 174.892L130.833 174.377L131.526 172.933L128.675 172.169L125.804 176.799L127.652 179.025L128.7 177.778L129.478 178.292L127.148 182.048L126.369 181.534L126.865 180.444L118.284 169.894ZM121.376 170.519L119.76 170.086L120.956 171.324L125.076 176.094L127.578 172.079L121.376 170.519Z" fill="black"/>
<path d="M127.849 157.383L126.51 158.959L125.731 158.445L128.639 154.437L136.969 157.178L139.269 158.1L137.63 156.235L132.283 149.2L135.19 145.192L135.969 145.706L134.985 147.479L145.321 152.999L146.463 151.777L147.242 152.291L144.017 156.724L143.238 156.21L144.052 154.696L136.724 150.492L133.532 148.72L135.285 150.921L141.422 159.186L140.737 160.225L131.69 157.495L128.129 156.337L130.858 158.698L137.234 164.175L138.427 162.763L139.206 163.278L136.419 167.216L135.64 166.702L136.427 165.283L127.849 157.383Z" fill="black"/>
<path d="M139.557 139.538L140.801 137.936L153.756 142.426L154.581 141.628L155.335 142.237L152.263 146.1L151.509 145.49L152.366 144.192L149.687 143.168L146.297 147.455L147.904 149.821L149.021 148.694L149.774 149.303L147.02 152.741L146.266 152.132L146.857 151.068L139.557 139.538ZM142.573 140.447L141.008 139.825L142.059 141.226L145.551 146.44L148.477 142.742L142.573 140.447Z" fill="black"/>
<path d="M147.101 132.29L145.941 133.201L145.187 132.592L146.818 130.686C147.11 130.357 147.402 130.028 147.599 129.673C148.037 129.179 148.38 128.66 148.817 128.166C149.985 126.85 151.121 126.033 152.078 125.882C153.035 125.731 154.055 126.107 155.042 126.982C155.796 127.592 156.308 128.34 156.58 129.228C156.851 130.115 156.838 130.926 156.608 131.782C156.379 132.637 155.935 133.537 155.23 134.264C154.964 134.499 154.767 134.853 154.5 135.088C154.234 135.322 154.088 135.486 154.062 135.581L157.215 138.26L159.011 136.5L159.669 137.084L155.678 141.718L155.019 141.134L155.876 139.836L147.101 132.29ZM154.572 133.681C155.181 132.927 155.505 132.097 155.424 131.261C155.342 130.424 154.856 129.581 153.798 128.584C152.975 127.854 152.241 127.556 151.499 127.663C150.757 127.769 150.129 128.212 149.279 129.105C148.987 129.434 148.79 129.789 148.498 130.118C148.327 130.378 148.206 130.447 148.181 130.542L153.239 134.852C153.575 134.738 153.988 134.339 154.572 133.681Z" fill="black"/>
<path d="M164.938 130.346C163.835 130.662 162.738 130.572 161.598 130.266C160.483 129.866 159.419 129.275 158.362 128.279C157.4 127.308 156.653 126.293 156.268 125.07C155.857 123.941 155.878 122.724 156.088 121.558C156.394 120.418 156.889 119.328 157.835 118.461C158.539 117.733 159.339 117.031 160.569 116.24L161.076 115.867L163.374 118.316L162.524 119.208L160.421 117.932C160.206 117.976 159.87 118.09 159.508 118.299C159.147 118.507 158.734 118.906 158.322 119.305C157.763 119.868 157.465 120.603 157.381 121.294C157.273 122.079 157.475 122.846 157.841 123.76C158.233 124.578 158.91 125.472 159.803 126.322C160.6 127.147 161.569 127.712 162.469 128.157C163.368 128.602 164.249 128.736 165.085 128.655C165.922 128.573 166.645 128.156 167.324 127.523C167.762 127.029 168.079 126.605 168.251 126.345C168.422 126.085 168.524 125.705 168.505 125.395L167.677 123.543L168.597 122.771L170.255 124.947C170.109 125.111 169.912 125.466 169.664 126.011C169.442 126.461 169.245 126.815 169.048 127.17C168.851 127.525 168.534 127.949 168.096 128.443C167.03 129.379 165.946 130.005 164.938 130.346Z" fill="black"/>
<path d="M176.007 100.82L176.64 101.499L175.447 102.911L181.725 109.89L181.342 107.139L180.959 98.6841L180.655 98.2972L179.279 99.2525L178.646 98.5736L182.522 95.1306L183.155 95.8095L182.229 96.9872L189.982 105.685L191.238 104.8L191.871 105.478L187.994 108.921L187.361 108.243L188.504 107.021L182.155 99.9214L182.59 102.482L182.922 111.127L183.39 111.66L184.792 110.61L185.425 111.289L181.523 114.827L180.89 114.148L181.912 112.996L174.158 104.297L172.928 105.088L172.295 104.409L176.007 100.82Z" fill="black"/>
<path d="M185.688 92.8213C186.005 92.397 186.322 91.9728 186.614 91.6436C186.906 91.3144 187.173 91.0802 187.439 90.846C188.626 89.8397 189.78 89.3341 190.737 89.1832C191.694 89.0322 192.498 89.4515 193.201 90.2508C193.808 91.0247 194.105 91.8173 193.971 92.6981C193.837 93.5788 193.538 94.3136 192.929 95.0671C193.823 94.39 194.736 94.0236 195.617 94.1577C196.523 94.1968 197.233 94.5906 197.84 95.3645C198.682 96.4049 198.997 97.508 198.812 98.5788C198.627 99.6497 197.821 100.758 196.394 101.903C195.861 102.372 195.258 102.719 194.776 102.998C194.294 103.276 193.838 103.459 193.502 103.573C193.166 103.687 192.95 103.731 192.925 103.826L191.109 101.098L191.883 100.491L193.814 102.027C194.461 101.895 195.279 101.503 196.078 100.8C196.732 100.262 197.1 99.6478 197.063 99.0267C197.051 98.3105 196.823 97.6385 196.121 96.8391C195.678 96.2111 195.064 95.8428 194.373 95.7596C193.682 95.6764 192.89 95.9733 191.995 96.6504L190.955 97.492L190.252 96.6926L191.052 95.9901C191.439 95.6864 191.756 95.2622 191.979 94.8125C192.201 94.3627 192.328 93.8876 192.265 93.3615C192.203 92.8354 191.924 92.3534 191.551 91.8459C191.013 91.1925 190.494 90.8497 189.873 90.887C189.252 90.9242 188.675 91.177 188.047 91.6199C187.634 92.0187 187.342 92.3479 187.05 92.6771C186.759 93.0063 186.777 93.3169 186.821 93.5324L187.631 95.0734L186.711 95.8455L184.742 93.6884C184.983 93.5492 185.275 93.22 185.688 92.8213Z" fill="black"/>
<path d="M198.875 83.5207L197.454 84.2605L196.942 83.5121L198.971 82.0188C199.333 81.8101 199.745 81.4113 200.253 81.038C200.665 80.6393 201.052 80.3355 201.293 80.1964C202.695 79.146 203.849 78.6404 204.755 78.6795C205.662 78.7186 206.466 79.1379 207.073 79.9118C207.586 80.6602 207.788 81.4273 207.774 82.2385C207.76 83.0497 207.367 83.7591 206.783 84.4175C207.703 83.6454 208.685 83.3994 209.592 83.4385C210.498 83.4776 211.277 83.9919 211.789 84.7403C212.536 85.7552 212.756 86.8329 212.546 87.9988C212.335 89.1646 211.314 90.3169 209.645 91.6014C209.258 91.9051 208.897 92.1139 208.535 92.3226C207.692 92.8095 207.279 93.2083 207.064 93.2524L205.034 94.7457L204.522 93.9972L205.613 92.9655L198.875 83.5207ZM204.278 85.7834L205.147 85.2014C205.895 84.6889 206.264 84.0746 206.321 83.4789C206.379 82.8833 206.177 82.1162 205.665 81.3677C205.152 80.6193 204.633 80.2764 204.037 80.2187C203.442 80.1609 202.649 80.4578 201.875 81.0653C201.488 81.3691 201.127 81.5778 200.835 81.907L200.568 82.1412L203.624 86.3213C203.529 86.2958 203.891 86.0871 204.278 85.7834ZM209.063 90.7325C210.078 89.9858 210.687 89.2324 210.796 88.4466C210.905 87.6609 210.703 86.8938 210.19 86.1454C209.583 85.3715 208.994 84.9081 208.398 84.8504C207.708 84.7671 207.01 85.0895 206.116 85.7666C205.101 86.5132 204.473 86.9561 204.206 87.1902L207.471 91.7319C207.687 91.6878 208.194 91.3145 209.063 90.7325Z" fill="black"/>
<path d="M211.436 73.1355L213.174 71.9715L224.109 80.1981L225.168 79.667L225.68 80.4155L221.576 83.1864L221.064 82.438L222.25 81.4317L219.99 79.6038L215.404 82.653L216.193 85.4108L217.614 84.671L218.126 85.4195L214.409 87.8867L213.897 87.1382L214.722 86.3407L211.436 73.1355ZM214.102 74.9703L212.759 73.8976L213.328 75.5778L215.063 81.6449L219.021 79.0386L214.102 74.9703Z" fill="black"/>
<path d="M228.009 78.1874C226.887 78.1924 225.867 77.8173 224.803 77.2266C223.86 76.5664 222.992 75.621 222.202 74.3906C221.506 73.1856 221.121 71.962 221.021 70.8148C220.921 69.6675 221.252 68.4321 221.817 67.4631C222.408 66.3991 223.233 65.6016 224.343 64.8804C225.186 64.3934 226.22 63.9574 227.564 63.5027L228.141 63.2499L229.69 66.2114L228.605 66.8375L226.941 65.0673C226.751 65.0164 226.415 65.1301 225.984 65.2183C225.552 65.3065 225.071 65.5848 224.589 65.863C223.866 66.2805 223.402 66.8693 223.129 67.5091C222.83 68.2439 222.721 69.0296 222.872 69.9868C223.023 70.9439 223.459 71.9775 224.111 72.9669C224.763 73.9564 225.44 74.8508 226.193 75.4601C226.947 76.0694 227.751 76.4886 228.606 76.7178C229.462 76.947 230.229 76.7451 231.072 76.2581C231.675 75.9103 232.062 75.6065 232.233 75.3469C232.499 75.1127 232.696 74.7581 232.773 74.473L232.496 72.4636L233.555 71.9325L234.516 74.4307C234.275 74.5698 234.008 74.804 233.691 75.2282C233.399 75.5574 233.107 75.8867 232.72 76.1904C232.428 76.5196 231.946 76.7979 231.464 77.0762C230.329 77.8923 229.13 78.1824 228.009 78.1874Z" fill="black"/>
<path d="M237.758 60.4287C237.848 59.3324 238.128 58.287 238.668 57.4131C239.208 56.5391 239.887 55.9062 240.851 55.3496C241.935 54.7235 243.013 54.503 244.014 54.5675C245.015 54.6321 246.035 55.0073 246.858 55.7371C247.681 56.4669 248.453 57.3868 249.174 58.4967C249.94 59.8222 250.299 61.1408 250.374 62.3831C250.449 63.6254 250.263 64.6962 249.698 65.6652C249.133 66.6341 248.429 67.3621 247.465 67.9187C246.38 68.5448 245.303 68.7653 244.206 68.6753C243.205 68.6107 242.185 68.2356 241.337 67.6008C240.488 66.966 239.621 66.0207 239.02 64.8412L236.395 66.2767L238.988 71.0457L240.478 70.4264L240.87 71.2444L236.342 73.6979L235.95 72.8799L237.206 71.9942L231.698 61.7587L230.233 62.2829L229.746 61.4395L234.154 59.0554L234.641 59.8989L233.385 60.7847L235.769 65.1922L238.489 63.7822C237.958 62.7231 237.738 61.6455 237.758 60.4287ZM239.521 59.1696C239.381 60.456 239.784 61.9902 240.828 63.7976C241.732 65.3641 242.643 66.525 243.803 67.1411C244.962 67.7573 245.963 67.8218 247.142 67.2212C248.201 66.6901 248.767 65.7211 248.787 64.5043C248.808 63.2875 248.404 61.7533 247.455 59.9713C246.551 58.4048 245.64 57.244 244.576 56.6533C243.512 56.0626 242.415 55.9726 241.356 56.5037C240.297 57.0348 239.662 57.8833 239.521 59.1696Z" fill="black"/>
<path d="M258.481 55.694C259.191 56.0878 260.065 56.6275 261.224 57.2437C262.003 57.7579 262.522 58.1008 262.972 58.3231C263.421 58.5455 263.611 58.5964 263.827 58.5523L264.569 58.4455L264.961 59.2635L262.868 60.2306C262.627 60.3698 262.247 60.2679 261.702 60.0201C261.157 59.7723 260.473 59.2835 259.53 58.6232C258.517 57.8425 257.643 57.3027 257.029 56.9344C256.414 56.5661 255.914 56.5338 255.578 56.6475L254.519 57.1786L256.801 61.9662L258.36 61.4674L258.752 62.2854L254.085 64.498L253.693 63.68L255.019 62.9147L250.088 52.4264L248.649 52.8556L248.257 52.0376L252.804 49.8946L253.195 50.7126L251.845 51.5729L254.101 56.4556L255.522 55.7158L256.658 49.1958L255.098 49.6946L254.706 48.8765L258.891 46.9422L259.283 47.7603L258.053 48.551L256.676 55.2102C257.081 55.217 257.747 55.3952 258.481 55.694Z" fill="black"/>
<path d="M267.688 57.4479C266.617 57.2629 265.743 56.7231 264.946 55.8983C264.148 55.0734 263.401 54.0585 262.852 52.6889C262.302 51.3194 262.012 50.1212 262.127 48.9299C262.243 47.7385 262.523 46.6932 263.183 45.7496C263.843 44.8061 264.738 44.1291 265.771 43.693C267.597 42.96 269.125 42.9619 270.569 43.6544C272.013 44.3469 273.158 45.7743 273.961 47.7209C274.511 49.0905 274.775 50.3836 274.66 51.575C274.544 52.7663 274.239 53.9067 273.579 54.8502C272.918 55.7937 272.024 56.4708 270.99 56.9069C269.811 57.5075 268.759 57.633 267.688 57.4479ZM264.088 47.3161C263.852 48.577 264.16 50.0857 264.868 52.0069C265.626 53.738 266.512 54.9939 267.551 55.6796C268.564 56.4603 269.66 56.5504 270.814 56.0447C271.943 55.6341 272.603 54.6906 272.839 53.4297C273.075 52.1688 272.792 50.5651 271.963 48.7135C271.205 46.9824 270.319 45.7265 269.281 45.0408C268.242 44.3551 267.171 44.17 266.017 44.6756C264.958 45.2067 264.324 46.0552 264.088 47.3161Z" fill="black"/>
<path d="M275.046 41.3907L273.537 41.6994L273.266 40.8119L275.644 39.9211C276.075 39.8329 276.557 39.5546 277.134 39.3018C277.711 39.049 278.072 38.8403 278.383 38.8216C279.968 38.2278 281.236 38.0582 282.091 38.2874C282.946 38.5166 283.605 39.1004 283.946 40.1085C284.243 40.9011 284.324 41.7377 284.025 42.4725C283.726 43.2073 283.238 43.8912 282.515 44.3086C283.643 43.898 284.575 43.8421 285.43 44.0713C286.286 44.3005 286.919 44.9793 287.26 45.9874C287.67 47.116 287.65 48.3328 287.084 49.3018C286.494 50.3658 285.238 51.2516 283.317 51.9591C282.86 52.1423 282.524 52.256 282.093 52.3442C281.206 52.6157 280.628 52.8685 280.413 52.9126L278.035 53.8033L277.738 53.0108L279.159 52.271L275.046 41.3907ZM279.662 45.072L280.67 44.731C281.462 44.4341 281.995 43.9658 282.269 43.326C282.542 42.6862 282.53 41.9701 282.138 41.152C281.841 40.3595 281.373 39.8266 280.828 39.5787C280.283 39.3309 279.447 39.4123 278.439 39.7533C277.982 39.9366 277.621 40.1453 277.164 40.3285L276.803 40.5372L278.654 45.4131C278.774 45.3435 279.11 45.2298 279.662 45.072ZM282.83 51.1156C283.958 50.705 284.732 50.0975 285.126 49.3882C285.52 48.6788 285.508 47.9627 285.167 46.9546C284.8 46.0415 284.332 45.5086 283.787 45.2608C283.148 44.9875 282.311 45.0689 281.277 45.5049C280.054 45.8901 279.356 46.2125 279.02 46.3261L280.985 51.538C281.245 51.7094 281.917 51.4821 282.83 51.1156Z" fill="black"/>
<path d="M302.57 31.0427L302.842 31.9303L301.421 32.6701L304.767 43.7523L306.491 43.3994L306.762 44.287L301.773 45.8021L301.501 44.9145L302.896 44.2697L299.481 33.0671L293.725 34.784L297.14 45.9867L298.864 45.6338L299.136 46.5214L294.146 48.0365L293.875 47.1489L295.27 46.5041L291.924 35.422L290.32 35.7052L290.049 34.8176L302.57 31.0427Z" fill="black"/>
<path d="M310.37 42.6053C309.351 42.2302 308.502 41.5954 307.825 40.701C307.148 39.8066 306.642 38.6525 306.308 37.2389C305.974 35.8252 305.899 34.5829 306.135 33.322C306.346 32.1561 306.911 31.1872 307.641 30.3642C308.371 29.5411 309.335 28.9846 310.533 28.6945C312.403 28.177 313.975 28.3944 315.342 29.372C316.615 30.3242 317.545 31.7956 318.081 33.9764C318.415 35.3901 318.464 36.7274 318.254 37.8933C318.018 39.1542 317.453 40.1231 316.628 40.9207C315.803 41.7182 314.839 42.2748 313.736 42.5904C312.417 42.95 311.39 42.9805 310.37 42.6053ZM308.235 31.9493C307.809 33.1592 307.902 34.7121 308.394 36.6773C308.816 38.5221 309.582 39.8475 310.474 40.6978C311.367 41.5482 312.507 41.8537 313.61 41.5382C314.808 41.2481 315.513 40.5201 315.964 39.2151C316.39 38.0051 316.323 36.3572 315.831 34.392C315.408 32.5472 314.643 31.2218 313.75 30.3715C312.858 29.5212 311.812 29.2411 310.614 29.5311C309.46 30.0368 308.635 30.8343 308.235 31.9493Z" fill="black"/>
<path d="M324.297 34.7255C324.435 36.4938 324.294 37.7802 323.919 38.8001C323.791 39.2753 323.474 39.6995 323.207 39.9337C322.941 40.1679 322.579 40.3766 322.148 40.4648C321.597 40.6226 321.096 40.5903 320.881 40.6344L320.451 39.1952C320.762 39.1766 321.193 39.0884 321.84 38.9561C322.055 38.912 322.271 38.8678 322.417 38.7032C322.563 38.5386 322.709 38.374 322.785 38.0889C323.433 36.4293 323.221 33.4186 322.295 28.8925L321.961 27.4788L319.762 27.7043L319.585 26.8422L330.146 24.681L330.323 25.5432L328.643 26.1115L330.98 37.5347L332.869 37.3278L333.045 38.1899L327.442 39.3367L327.265 38.4746L329.161 37.8621L326.823 26.4389L323.159 27.1887L323.538 28.8179C323.858 31.0428 324.135 33.0522 324.297 34.7255Z" fill="black"/>
<path d="M333.91 25.0784L332.383 25.0766L332.232 24.1195L341.614 22.559L342.377 25.4118L341.325 25.5373L340.471 23.7808L335.926 24.3964L336.769 29.6133L339.882 29.0213L339.884 27.4939L340.936 27.3684L341.628 31.6281L340.576 31.7536L340.077 30.1939L336.99 30.6909L337.852 36.2183L343.024 35.1598L343.591 32.6635L344.757 32.874L344.798 36.1443L334.58 37.7862L334.403 36.924L335.937 36.5203L333.91 25.0784Z" fill="black"/>
<path d="M349.32 22.6887L346.138 23.1602L346 27.0957L344.732 27.2653L344.434 22.2962L356.008 20.9158L356.833 25.8221L355.685 25.9221L354.581 22.0612L351.355 22.3172L352.805 34.0118L355.479 33.9136L355.535 34.8453L348.48 35.7051L348.425 34.7734L350.795 34.2883L349.32 22.6887Z" fill="black"/>
<path d="M364.6 28.0051L363.668 28.061C363.402 28.2952 363.084 28.7194 362.836 29.2642C362.563 29.904 362.264 30.6388 362.01 31.5891C361.66 32.514 361.482 33.1792 361.26 33.6289C361.037 34.0786 360.866 34.3382 360.65 34.3824L358.14 34.6265L358.084 33.6948L358.756 33.4675C358.972 33.4234 359.118 33.2588 359.315 32.9041C359.512 32.5494 359.759 32.0047 360.058 31.2699C360.382 30.44 360.776 29.7307 361.024 29.186C361.367 28.6667 361.684 28.2425 362.046 28.0337C361.165 27.8996 360.456 27.5058 359.918 26.8524C359.38 26.199 359.083 25.4064 359.027 24.4747C358.908 23.0169 359.309 21.902 360.083 21.2945C360.977 20.6175 362.201 20.2323 363.849 20.1646C364.159 20.1459 364.685 20.0832 365.281 20.1409C365.902 20.1037 366.308 20.1105 366.618 20.0918L369.318 19.8986L369.374 20.8303L367.866 21.139L368.771 32.5859L370.488 32.6386L370.544 33.5703L365.024 34.0263L364.968 33.0947L366.787 32.7673L366.394 27.7728L364.6 28.0051ZM365.362 20.9776C364.767 20.9199 364.336 21.0081 363.835 20.9758C362.903 21.0317 362.111 21.3286 361.698 21.7274C361.165 22.1957 360.962 22.956 361.087 24.0082C361.118 25.0349 361.535 25.7579 362.003 26.2908C362.592 26.7542 363.353 26.9579 364.284 26.902C365.311 26.8715 365.958 26.7392 366.268 26.7206L365.863 21.0099L365.362 20.9776Z" fill="black"/>
<path d="M376.086 20.4897L372.86 20.7457L372.317 24.6744L371.075 24.7489L371.207 19.6917L382.837 19.2429L383.231 24.2374L382.109 24.2424L381.315 20.3629L378.045 20.4033L378.443 32.2234L381.066 32.3153L381.122 33.247L374.03 33.4857L373.974 32.554L376.389 32.2844L376.086 20.4897Z" fill="black"/>
<path d="M391.922 32.4742C390.979 31.814 390.276 31.0146 389.745 29.9556C389.214 28.8966 389.045 27.6288 389.021 26.1965C389.092 24.7896 389.423 23.5542 390.014 22.4902C390.605 21.4262 391.429 20.6286 392.488 20.0975C393.548 19.5664 394.651 19.2509 395.962 19.2968C396.869 19.3359 398.06 19.4514 399.391 19.8079L399.961 19.9607L399.665 23.3447L398.448 23.3242L398.058 20.9788C397.894 20.8328 397.634 20.6614 397.159 20.5341C396.684 20.4068 396.183 20.3745 395.587 20.3167C394.776 20.3031 394.104 20.5304 393.476 20.9733C392.848 21.4162 392.359 22.1001 391.94 22.9044C391.59 23.8293 391.336 24.7797 391.29 26.0915C391.269 27.3083 391.395 28.3605 391.666 29.248C391.938 30.1356 392.425 30.9791 393.083 31.563C393.742 32.1468 394.476 32.4456 395.383 32.4847C396.099 32.4729 396.504 32.4797 396.935 32.3915C397.271 32.2778 397.608 32.1641 397.874 31.93L398.668 30.1057L399.834 30.3162L399.337 32.933C399.026 32.9517 398.69 33.0654 398.164 33.1281C397.733 33.2163 397.276 33.3996 396.871 33.3927C396.44 33.481 395.939 33.4487 395.318 33.486C394.006 33.44 392.866 33.1345 391.922 32.4742Z" fill="black"/>
<path d="M407.528 19.8492L407.489 20.7555L405.625 20.8673L404.942 30.2588L406.65 28.0681L412.481 21.8895L412.514 21.3889L410.873 21.051L410.912 20.1448L416.013 20.4931L415.974 21.3994L414.516 21.518L413.748 33.1276L415.294 33.44L415.255 34.3462L410.059 33.9725L410.098 33.0662L411.746 32.9985L412.359 23.4865L410.798 25.5126L404.845 31.7607L404.762 32.4514L406.524 32.7197L406.485 33.6259L401.193 33.2267L401.232 32.3204L402.785 32.2272L403.553 20.6177L402.102 20.3307L402.141 19.4245L407.528 19.8492Z" fill="black"/>
<path d="M427.806 21.7177L427.414 26.6036L426.127 26.4626L426.024 22.6662L421.905 22.0719L420.586 33.8393L423.798 34.3945L423.664 35.2752L416.351 34.4363L416.486 33.5555L418.514 33.5896L419.757 22.1074L417.856 21.5981L417.99 20.7173L427.806 21.7177Z" fill="black"/>
<path d="M430.954 23.2743L429.554 22.7973L429.688 21.9165L434.687 22.645L434.553 23.5258L432.931 23.4985L432.202 28.498L438.653 29.5134L439.381 24.5139L437.886 24.0114L438.02 23.1307L443.02 23.8591L442.886 24.7399L441.358 24.7381L439.615 36.188L441.04 36.57L440.906 37.4508L435.906 36.7223L436.041 35.8415L437.568 35.8434L438.398 30.4637L431.948 29.4483L431.117 34.828L432.733 35.2608L432.599 36.1416L427.504 35.3877L427.639 34.5069L429.166 34.5087L430.954 23.2743Z" fill="black"/>
<path d="M449.774 25.2615L451.795 25.7012L453.668 39.2406L454.783 39.6412L454.649 40.5219L449.82 39.5338L449.955 38.6531L451.552 38.7754L451.219 35.8343L445.916 34.7189L444.512 37.2966L446.007 37.7991L445.873 38.6799L441.52 37.8191L441.654 36.9383L442.871 36.9588L449.774 25.2615ZM450.366 28.374L450.203 26.7006L449.485 28.2398L446.481 33.7499L451.119 34.6871L450.366 28.374Z" fill="black"/>
<path d="M460.465 36.6821C459.842 38.2468 459.105 39.4754 458.401 40.2034C457.988 40.6021 457.627 40.8108 457.291 40.9245C456.955 41.0382 456.549 41.0314 456.074 40.904C455.504 40.7513 455.029 40.6239 454.769 40.4525L454.961 38.9761C455.246 39.0525 455.721 39.1798 456.291 39.3326C456.482 39.3835 456.697 39.3394 456.913 39.2953C457.128 39.2512 457.274 39.0866 457.541 38.8524C458.778 37.6561 460.042 34.8374 461.144 30.3453L461.526 28.9198L459.53 28.3851L459.785 27.4347L470.29 30.0457L470.035 30.9961L468.248 30.8228L465.433 42.0877L467.188 42.7616L466.959 43.6169L461.326 42.2095L461.556 41.3542L463.507 41.6735L466.322 30.4086L462.59 29.5105L462.157 31.1261C461.718 33.1472 461.088 35.1175 460.465 36.6821Z" fill="black"/>
<path d="M476.536 37.525C477.936 38.002 478.975 38.6877 479.557 39.5566C480.139 40.4256 480.239 41.5728 479.813 42.7828C479.336 44.1828 478.58 45.1009 477.547 45.5369C476.393 46.0426 475.176 46.0221 473.75 45.6401C473.56 45.5892 473.37 45.5383 473.18 45.4873C472.99 45.4364 472.8 45.3855 472.54 45.2141C471.901 44.9408 471.235 44.7625 470.691 44.5147L468.245 43.7576L468.474 42.9023L470.02 43.2147L473.405 32.1026L472.056 31.4355L472.285 30.5802L477.366 32.1453L477.137 33.0006L475.281 32.7069L473.97 36.8375L476.536 37.525ZM472.7 44.2382C472.89 44.2892 473.245 44.4861 473.625 44.5879C474.67 44.868 475.481 44.8817 476.204 44.4643C476.927 44.0468 477.416 43.363 477.696 42.3176C477.976 41.2722 477.965 40.5561 477.547 39.8331C477.199 39.2306 476.516 38.7418 475.496 38.3666L473.69 37.8828L471.87 43.914C472.25 44.0159 472.51 44.1873 472.7 44.2382ZM489.334 35.7594L489.105 36.6147L487.343 36.3465L483.958 47.4586L485.592 48.202L485.363 49.0573L480.092 47.4413L480.321 46.586L482.057 46.9493L485.442 35.8372L483.808 35.0937L484.037 34.2384L489.334 35.7594Z" fill="black"/>
<path d="M497.023 39.7553L495.699 38.9932L496.023 38.1634L500.743 39.9372L500.419 40.7671L498.873 40.4547L497.099 45.1741L503.288 47.5454L505.062 42.826L503.738 42.0639L504.062 41.2341L508.782 43.0079L508.457 43.8377L507.006 43.5508L502.861 54.4592L504.21 55.1263L503.886 55.9561L499.167 54.1823L499.491 53.3524L501.011 53.7599L502.982 48.6858L496.793 46.3145L494.822 51.3885L496.241 52.1761L495.917 53.0059L491.128 51.1116L491.452 50.2818L492.973 50.6892L497.023 39.7553Z" fill="black"/>
<path d="M515.015 45.5946L516.934 46.4144L515.916 60.0961L516.86 60.7564L516.536 61.5862L511.988 59.5527L512.312 58.7229L513.807 59.2254L514.191 56.2725L509.167 54.1117L507.27 56.2515L508.689 57.0391L508.364 57.8689L504.266 56.0578L504.59 55.228L505.731 55.5335L515.015 45.5946ZM514.96 48.8394L515.203 47.1729L514.13 48.5152L510.018 53.2191L514.401 55.1066L514.96 48.8394Z" fill="black"/>
<path d="M528.726 53.343L527.004 52.1685L527.423 51.3641L531.8 53.6572L530.294 62.3189L529.752 64.7202L531.358 62.9096L537.525 56.6174L541.902 58.9105L541.483 59.7149L539.538 58.9901L535.488 69.924L536.855 70.9016L536.436 71.706L531.705 69.2159L532.124 68.4116L533.689 69.0345L536.804 61.2113L538.126 57.7969L536.159 59.8163L528.925 67.0452L527.861 66.4545L529.356 57.0766L530.013 53.484L528.076 56.5301L523.517 63.6607L525.075 64.6893L524.656 65.4937L520.374 63.226L520.793 62.4216L522.263 63.0191L528.726 53.343Z" fill="black"/>
<path d="M548.096 62.4037L549.844 63.4832L547.254 76.9475L548.198 77.6077L547.779 78.4121L543.548 75.9544L543.967 75.15L545.437 75.7475L546.08 72.9661L541.426 70.191L539.268 72.1594L540.541 73.1115L540.122 73.9159L536.341 71.6805L536.76 70.8762L537.875 71.2768L548.096 62.4037ZM547.661 65.5466L548.094 63.931L546.857 65.1274L542.155 69.3679L546.291 71.8002L547.661 65.5466Z" fill="black"/>
<path d="M556.365 68.7953L555.308 67.7991L555.822 67.0202L557.899 68.3916C558.254 68.5885 558.678 68.9059 559.033 69.1027C559.647 69.4711 560.192 69.7189 560.711 70.0617C562.174 71.0648 563.136 72.0356 563.382 73.0182C563.628 74.0009 563.443 75.0717 562.757 76.1103C562.218 76.9842 561.564 77.5221 560.746 77.9141C559.928 78.306 559.091 78.3874 558.211 78.2533C557.33 78.1191 556.405 77.7694 555.531 77.2297C555.176 77.0328 554.917 76.8614 554.588 76.5695C554.233 76.3726 554.068 76.2266 553.999 76.1061L551.745 79.5764L553.771 81.1379L553.257 81.9168L548.133 78.6088L548.648 77.8299L550.092 78.5224L556.365 68.7953ZM556.045 76.4508C556.919 76.9905 557.68 77.1942 558.542 77.0178C559.404 76.8414 560.178 76.2339 560.914 75.0053C561.454 74.1314 561.683 73.2761 561.456 72.604C561.229 71.9319 560.691 71.2785 559.747 70.6183C559.392 70.4214 559.038 70.2245 558.588 70.0021C558.328 69.8307 558.138 69.7798 558.138 69.7798L554.513 75.3272C554.842 75.6191 555.266 75.9365 556.045 76.4508Z" fill="black"/>
<path d="M560.774 86.1721C560.338 85.1385 560.238 83.9913 560.423 82.9205C560.608 81.8496 561.155 80.5701 561.987 79.3669C562.793 78.2588 563.738 77.3917 564.797 76.8606C565.856 76.3295 567.029 76.1344 568.22 76.2499C569.412 76.3654 570.527 76.7661 571.54 77.5468C572.318 78.0611 573.211 78.9114 574.078 79.8567L574.572 80.2946L572.452 82.8841L571.414 82.1984L572.405 80.0195C572.361 79.804 572.127 79.5375 571.918 79.176C571.709 78.8145 571.19 78.4717 570.671 78.1288C569.987 77.64 569.322 77.4617 568.51 77.4481C567.699 77.4345 566.907 77.7314 566.158 78.2438C565.41 78.7563 564.585 79.5538 563.925 80.4973C563.264 81.4408 562.794 82.4353 562.444 83.3602C562.19 84.3105 562.056 85.1913 562.327 86.0788C562.599 86.9664 563.041 87.5944 563.82 88.1087C564.34 88.4515 564.764 88.7689 565.144 88.8708C565.524 88.9726 565.809 89.049 566.12 89.0304L567.832 87.9614L568.725 88.8117L566.783 90.736C566.524 90.5646 566.143 90.4627 565.694 90.2404C565.219 90.113 564.864 89.9161 564.389 89.7888C564.034 89.5919 563.584 89.3696 563.065 89.0267C562.077 88.1509 561.21 87.2056 560.774 86.1721Z" fill="black"/>
<path d="M588.034 90.1151L587.425 90.8685L585.867 89.8399L579.945 97.1148L582.608 96.3004L590.893 94.6499L591.21 94.2256L590.109 93.0138L590.719 92.2604L594.72 95.5734L594.111 96.3268L592.787 95.5647L585.38 104.581L586.507 105.697L585.923 106.356L581.922 103.043L582.506 102.384L583.899 103.267L589.941 95.9226L587.494 96.6928L578.993 98.3875L578.555 98.8813L579.751 100.119L579.168 100.777L575.071 97.4385L575.655 96.7801L576.953 97.6372L584.36 88.6213L583.328 87.53L583.938 86.7766L588.034 90.1151Z" fill="black"/>
<path d="M597.511 98.4602C598.056 98.708 598.385 98.9999 598.74 99.1968C599.095 99.3937 599.424 99.6856 599.684 99.857C600.836 100.879 601.582 101.894 601.828 102.876C602.074 103.859 601.845 104.714 601.141 105.442C600.436 106.17 599.714 106.588 598.807 106.549C597.971 106.63 597.115 106.401 596.336 105.886C597.134 106.711 597.621 107.555 597.702 108.391C597.784 109.228 597.46 110.058 596.876 110.716C596 111.704 594.941 112.235 593.845 112.145C592.723 112.15 591.564 111.534 590.152 110.341C589.563 109.877 589.19 109.37 588.816 108.862C588.443 108.355 588.234 107.994 588 107.727C587.861 107.486 587.722 107.245 587.652 107.125L590.076 104.922L590.734 105.506L589.553 107.634C589.78 108.306 590.318 108.959 591.046 109.664C591.705 110.248 592.249 110.495 592.991 110.388C593.638 110.256 594.335 109.934 594.945 109.18C595.503 108.617 595.681 107.952 595.764 107.261C595.848 106.57 595.335 105.822 594.512 105.092L593.525 104.216L594.229 103.488L595.052 104.218C595.476 104.536 595.9 104.853 596.376 104.98C596.851 105.108 597.351 105.14 597.903 104.982C598.454 104.824 598.841 104.521 599.279 104.027C599.863 103.368 600.111 102.824 599.979 102.177C599.941 101.556 599.568 101.048 598.91 100.465C598.511 100.052 598.156 99.8552 597.707 99.6329C597.352 99.436 597.041 99.4546 596.826 99.4987L595.424 100.549L594.506 99.7938L596.334 97.5335C596.637 97.9204 596.992 98.1173 597.511 98.4602Z" fill="black"/>
<path d="M608.652 110.103L607.766 108.847L608.445 108.214L610.204 110.01C610.534 110.302 610.932 110.714 611.426 111.152C611.92 111.59 612.249 111.882 612.414 112.028C613.61 113.265 614.357 114.28 614.413 115.212C614.589 116.074 614.265 116.904 613.561 117.632C612.882 118.265 612.184 118.587 611.443 118.694C610.701 118.801 609.846 118.571 609.067 118.057C609.959 118.907 610.446 119.751 610.502 120.683C610.558 121.614 610.259 122.349 609.555 123.077C608.705 123.97 607.576 124.38 606.48 124.29C605.288 124.175 603.965 123.413 602.509 122.004C602.18 121.712 601.876 121.325 601.642 121.059C601.009 120.38 600.61 119.967 600.445 119.821L598.686 118.026L599.365 117.393L600.637 118.345L608.652 110.103ZM603.118 121.251C604.011 122.101 604.79 122.615 605.601 122.629C606.412 122.642 607.11 122.32 607.788 121.687C608.467 121.054 608.766 120.319 608.729 119.698C608.692 119.077 608.274 118.354 607.477 117.529C606.584 116.679 606.021 116.121 605.786 115.854L601.878 119.798C601.922 120.013 602.416 120.451 603.118 121.251ZM607.339 115.761L608.067 116.465C608.726 117.049 609.34 117.417 609.961 117.38C610.582 117.343 611.28 117.02 611.864 116.362C612.447 115.704 612.79 115.184 612.753 114.563C612.716 113.942 612.298 113.219 611.57 112.515C611.241 112.223 610.912 111.931 610.488 111.614L610.158 111.322L606.516 115.031C606.706 115.082 606.94 115.348 607.339 115.761Z" fill="black"/>
<path d="M620.953 120.835L622.383 122.338L616 134.378L616.651 135.368L615.972 136.001L612.668 132.365L613.347 131.732L614.499 132.754L615.998 130.202L612.296 126.154L609.626 127.374L610.607 128.655L609.928 129.288L606.928 126.04L607.607 125.407L608.525 126.162L620.953 120.835ZM619.473 123.697L620.381 122.209L618.84 123.018L613.139 125.667L616.373 129.182L619.473 123.697Z" fill="black"/>
<path d="M618.397 137.975C618.202 136.802 618.387 135.732 618.883 134.642C619.379 133.553 620.159 132.54 621.32 131.628C622.386 130.692 623.54 130.186 624.738 129.896C625.936 129.606 627.128 129.721 628.243 130.122C629.358 130.523 630.301 131.183 631.143 132.223C631.75 132.997 632.402 133.987 633.003 135.166L633.255 135.743L630.572 137.774L629.8 136.854L631.336 134.923C631.292 134.708 631.273 134.397 631.065 134.036C630.856 133.674 630.578 133.192 630.179 132.78C629.641 132.126 629.027 131.758 628.266 131.554C627.506 131.351 626.669 131.432 625.782 131.703C624.894 131.975 623.93 132.531 623.01 133.303C622.09 134.076 621.361 134.899 620.846 135.677C620.307 136.551 620.077 137.407 620.064 138.218C620.05 139.029 620.347 139.822 620.955 140.596C621.423 141.129 621.752 141.42 622.107 141.617C622.461 141.814 622.721 141.986 623.032 141.967L624.927 141.355L625.579 142.344L623.264 143.761C623.099 143.615 622.77 143.323 622.346 143.006C621.896 142.783 621.567 142.491 621.238 142.199C620.909 141.907 620.484 141.59 620.111 141.083C619.123 140.207 618.592 139.148 618.397 137.975Z" fill="black"/>
<path d="M637.421 144.905C638.568 144.805 639.544 144.965 640.469 145.315C641.394 145.664 642.217 146.394 642.824 147.168C643.571 148.183 643.937 149.096 644.063 150.148C644.093 151.175 643.933 152.151 643.368 153.12C642.803 154.089 642.048 155.007 640.912 155.823C639.751 156.734 638.477 157.309 637.279 157.6C636.081 157.89 634.984 157.8 633.869 157.399C632.754 156.998 632.001 156.389 631.324 155.495C630.577 154.48 630.141 153.446 630.016 152.394C629.89 151.342 630.145 150.391 630.615 149.397C631.18 148.428 631.936 147.51 632.976 146.668L631.179 144.252L626.827 147.567L627.662 149.013L626.914 149.526L623.832 145.441L624.581 144.928L625.707 146.045L634.918 139.04L634.153 137.715L634.927 137.107L637.939 141.072L637.165 141.679L636.038 140.563L632.073 143.575L633.87 145.991C635.24 145.442 636.343 145.126 637.421 144.905ZM639.041 146.46C637.799 146.535 636.309 147.154 634.641 148.439C633.213 149.584 632.217 150.641 631.791 151.851C631.365 153.061 631.49 154.113 632.237 155.128C633.009 156.048 633.908 156.493 635.176 156.323C636.418 156.249 637.839 155.509 639.482 154.319C640.909 153.174 641.905 152.117 642.332 150.907C642.758 149.697 642.632 148.645 641.955 147.75C641.278 146.856 640.284 146.386 639.041 146.46Z" fill="black"/>
<path d="M645.37 164.657C645.166 165.417 644.696 166.412 644.175 167.596C643.756 168.401 643.577 169.066 643.38 169.42C643.279 169.801 643.177 170.181 643.246 170.301L643.474 170.973L642.725 171.486L641.397 169.602C641.257 169.361 641.264 168.955 641.512 168.411C641.76 167.866 642.084 167.036 642.554 166.041C643.17 164.882 643.52 163.958 643.793 163.318C644.067 162.678 644.004 162.152 643.89 161.816L643.239 160.826L638.868 163.832L639.583 165.347L638.834 165.86L635.994 161.635L636.742 161.123L637.748 162.309L647.332 155.812L646.688 154.417L647.436 153.904L650.207 158.008L649.459 158.521L648.452 157.334L643.987 160.314L644.847 161.665L651.432 161.8L650.692 160.379L651.441 159.867L653.977 163.704L653.229 164.216L652.197 163.125L645.448 162.844C645.631 163.301 645.573 163.897 645.37 164.657Z" fill="black"/>
<path d="M644.997 174.03C645.062 173.028 645.342 171.983 646.097 171.065C646.758 170.121 647.703 169.254 648.908 168.559C650.138 167.768 651.362 167.383 652.509 167.283C653.751 167.208 654.822 167.393 655.817 167.863C656.811 168.334 657.634 169.063 658.26 170.148C659.234 171.835 659.543 173.344 659.015 174.934C658.513 176.429 657.345 177.746 655.512 178.884C654.282 179.675 653.058 180.06 651.79 180.23C650.548 180.304 649.477 180.119 648.388 179.623C647.393 179.153 646.596 178.328 645.944 177.339C645.248 176.134 645.028 175.056 644.997 174.03ZM654.535 168.844C653.319 168.824 651.759 169.323 650.046 170.392C648.455 171.391 647.363 172.423 646.842 173.607C646.226 174.766 646.351 175.818 646.978 176.903C647.629 177.892 648.598 178.458 649.815 178.478C651.127 178.524 652.591 178 654.304 176.931C655.896 175.931 656.987 174.9 657.508 173.715C658.004 172.626 657.999 171.504 657.373 170.419C656.721 169.43 655.847 168.89 654.535 168.844Z" fill="black"/>
<path d="M662.027 178.898L661.503 177.434L662.346 176.947L663.598 179.116C663.807 179.477 664.085 179.959 664.459 180.467C664.832 180.974 665.041 181.336 665.18 181.577C665.989 183.118 666.4 184.246 666.24 185.222C666.081 186.198 665.617 186.787 664.748 187.369C664.025 187.786 663.163 187.962 662.377 187.854C661.592 187.745 660.882 187.351 660.275 186.577C660.901 187.662 661.077 188.524 660.918 189.5C660.784 190.381 660.2 191.039 659.356 191.526C658.272 192.152 657.125 192.252 656.01 191.852C654.895 191.451 653.863 190.36 652.82 188.552C652.611 188.191 652.428 187.734 652.219 187.373C651.732 186.529 651.479 185.952 651.41 185.832L650.157 183.663L650.975 183.271L651.861 184.527L662.027 178.898ZM653.568 188.04C654.194 189.124 654.827 189.803 655.587 190.007C656.348 190.21 657.089 190.104 657.933 189.617C658.776 189.13 659.24 188.541 659.392 187.971C659.545 187.4 659.369 186.538 658.812 185.574C658.186 184.49 657.769 183.767 657.629 183.526L652.74 186.188C652.828 186.619 653.081 187.196 653.568 188.04ZM659.15 183.933L659.612 184.872C660.029 185.595 660.618 186.058 661.188 186.211C661.853 186.389 662.5 186.257 663.343 185.77C664.066 185.352 664.504 184.859 664.657 184.288C664.81 183.718 664.608 182.951 664.051 181.987C663.843 181.626 663.539 181.239 663.356 180.782L663.147 180.421L658.593 182.969C658.733 183.21 658.872 183.451 659.15 183.933Z" fill="black"/>
<path d="M676.586 204.393L675.768 204.785L674.907 203.434L664.489 208.485L665.057 210.165L664.239 210.557L661.957 205.77L662.775 205.378L663.635 206.729L674.149 201.703L671.519 196.313L660.98 201.434L661.548 203.114L660.73 203.506L658.422 198.813L659.241 198.421L660.031 199.652L670.45 194.6L669.951 193.041L670.769 192.649L676.586 204.393Z" fill="black"/>
<path d="M666.282 213.957C666.467 212.886 667.007 212.012 667.737 211.189C668.561 210.391 669.576 209.645 670.851 209.07C672.125 208.494 673.419 208.23 674.61 208.345C675.801 208.461 676.847 208.741 677.79 209.401C678.734 210.061 679.411 210.956 679.847 211.989C680.58 213.816 680.673 215.368 679.885 216.787C679.193 218.231 677.766 219.377 675.819 220.179C674.449 220.729 673.156 220.993 671.965 220.878C670.774 220.762 669.633 220.457 668.69 219.797C667.746 219.136 667.069 218.242 666.538 217.183C666.222 216.08 666.027 214.907 666.282 213.957ZM676.439 210.261C675.178 210.025 673.67 210.334 671.723 211.137C669.992 211.895 668.736 212.781 668.05 213.82C667.365 214.858 667.18 215.929 667.685 217.083C668.191 218.237 669.039 218.872 670.3 219.108C671.561 219.344 673.165 219.061 675.016 218.233C676.747 217.474 678.003 216.588 678.689 215.55C679.375 214.511 679.465 213.415 679.054 212.286C678.549 211.132 677.7 210.497 676.439 210.261Z" fill="black"/>
<path d="M676.192 226.39C674.467 226.743 673.105 226.887 672.129 226.728C671.654 226.6 671.179 226.473 670.944 226.207C670.615 225.915 670.381 225.648 670.198 225.192C669.945 224.615 669.857 224.184 669.838 223.873L671.233 223.228C671.252 223.539 671.435 223.995 671.688 224.572C671.732 224.788 671.897 224.934 672.061 225.08C672.226 225.226 672.416 225.277 672.701 225.353C674.437 225.717 677.454 225.099 681.658 223.475L683.028 222.926L682.466 220.84L683.379 220.473L687.195 230.561L686.282 230.928L685.473 229.387L674.592 233.499L675.04 235.249L674.153 235.52L672.144 230.093L673.031 229.822L673.885 231.578L684.765 227.465L683.464 223.959L681.879 224.553C679.786 225.52 677.916 226.038 676.192 226.39Z" fill="black"/>
<path d="M687.273 234.452L686.964 232.944L687.852 232.672L690.826 241.72L688.182 242.844L687.841 241.836L689.363 240.716L688.006 236.278L682.991 237.889L684.04 240.818L685.618 240.63L685.959 241.638L681.831 242.976L681.49 241.968L682.911 241.228L681.983 238.23L676.727 239.979L678.553 244.95L681.151 245.137L681.156 246.258L677.879 246.704L674.608 236.865L675.495 236.593L676.14 237.988L687.273 234.452Z" fill="black"/>
<path d="M692.059 249.282L691.036 246.258L687.043 246.715L686.753 245.517L691.615 244.477L694.814 255.724L690.015 257.29L689.7 256.187L693.308 254.506L692.526 251.342L681.184 254.516L681.713 257.103L680.825 257.374L678.888 250.54L679.776 250.268L680.597 252.526L692.059 249.282Z" fill="black"/>
<path d="M689.118 265.198L688.942 264.336C688.708 264.07 688.233 263.943 687.567 263.764C686.902 263.586 686.116 263.477 685.141 263.318C684.165 263.158 683.5 262.98 683.024 262.853C682.549 262.725 682.29 262.554 682.246 262.338L681.691 259.847L682.553 259.67L682.875 260.368C682.945 260.489 683.204 260.66 683.559 260.857C683.939 260.959 684.51 261.111 685.244 261.41C686.1 261.639 686.86 261.843 687.525 262.021C688.07 262.269 688.52 262.492 688.849 262.783C688.888 261.877 689.187 261.142 689.65 260.554C690.234 259.895 690.957 259.478 691.819 259.301C693.233 258.967 694.399 259.178 695.126 259.882C695.854 260.586 696.455 261.766 696.833 263.395C696.947 263.731 697.01 264.257 697.073 264.783C697.11 265.404 697.198 265.835 697.312 266.172L697.936 268.783L697.048 269.055L696.429 267.565L685.12 270.238L685.377 271.937L684.541 272.019L683.223 266.674L684.085 266.498L684.653 268.178L689.446 267.018L689.118 265.198ZM696.115 264.934C696.053 264.408 695.99 263.882 695.902 263.451C695.656 262.468 695.308 261.866 694.814 261.428C694.32 260.99 693.509 260.976 692.526 261.222C691.544 261.468 690.821 261.886 690.453 262.5C690.084 263.114 689.976 263.9 690.222 264.883C690.468 265.865 690.6 266.512 690.739 266.753L696.299 265.391L696.115 264.934Z" fill="black"/>
<path d="M698.302 275.4L697.615 272.262L693.603 272.41L693.408 271.237L698.359 270.628L700.601 282.026L695.713 283.161L695.518 281.988L699.24 280.643L698.769 277.461L687.181 279.652L687.495 282.283L686.632 282.459L685.247 275.467L686.109 275.291L686.809 277.617L698.302 275.4Z" fill="black"/>
<path d="M688.939 292.855C689.41 291.861 690.165 290.943 691.129 290.386C692.118 289.735 693.342 289.35 694.73 289.11C696.093 288.966 697.405 289.012 698.494 289.508C699.609 289.908 700.527 290.664 701.299 291.584C702.071 292.503 702.482 293.632 702.652 294.9C702.803 295.857 702.808 296.979 702.641 298.36L702.583 298.956L699.262 299.186L699.093 297.919L701.35 297.097C701.496 296.933 701.598 296.553 701.604 296.147C701.611 295.741 701.669 295.146 701.511 294.594C701.404 293.853 701.082 293.155 700.519 292.597C699.955 292.038 699.246 291.644 698.296 291.39C697.345 291.135 696.319 291.166 695.076 291.24C693.904 291.435 692.921 291.681 691.982 292.143C691.044 292.604 690.39 293.142 689.902 293.826C689.413 294.51 689.279 295.391 689.36 296.227C689.492 296.874 689.555 297.4 689.764 297.762C689.878 298.098 690.112 298.364 690.346 298.631L692.247 299.14L692.226 300.357L689.507 300.239C689.463 300.024 689.375 299.593 689.097 299.111C688.914 298.654 688.705 298.293 688.617 297.862C688.528 297.431 688.345 296.974 688.308 296.353C688.328 295.136 688.444 293.945 688.939 292.855Z" fill="black"/>
<path d="M703.842 306.423L702.91 306.479L702.488 304.634L693.095 305.479L695.482 306.832L702.562 311.581L703.088 311.518L703.141 309.8L704.073 309.744L704.536 314.859L703.604 314.915L703.27 313.502L691.677 314.572L691.649 316.194L690.718 316.25L690.28 311.04L691.212 310.984L691.59 312.613L701.079 311.794L698.761 310.562L691.611 305.692L690.99 305.73L690.937 307.447L690.006 307.503L689.568 302.293L690.5 302.237L690.809 303.746L702.402 302.676L702.498 301.174L703.43 301.118L703.842 306.423Z" fill="black"/>
<path d="M705.123 326.73L700.249 327.054L700.175 325.812L703.934 325.087L703.907 321.006L692.156 321.524L692.102 324.769L691.17 324.825L690.792 317.492L691.724 317.436L692 319.445L703.561 318.876L703.69 316.874L704.622 316.818L705.123 326.73Z" fill="black"/>
<path d="M704.042 330.006L704.234 328.529L705.14 328.568L705.102 333.651L704.196 333.612L704.008 332.034L699.02 332.021L698.98 338.631L703.968 338.644L704.16 337.167L705.066 337.206L705.054 342.194L704.148 342.155L703.934 340.672L692.311 340.715L692.119 342.191L691.213 342.152L691.225 337.164L692.131 337.204L692.319 338.782L697.713 338.801L697.752 332.191L692.359 332.172L692.142 333.743L691.235 333.704L691.178 328.596L692.084 328.635L692.298 330.118L704.042 330.006Z" fill="black"/>
<path d="M705.084 348.925L705.05 350.953L691.977 354.885L691.767 356.051L690.86 356.012L691.063 351.075L691.969 351.114L692.062 352.667L694.915 351.904L695.15 346.466L692.47 345.443L692.253 347.014L691.346 346.975L691.517 342.539L692.423 342.578L692.523 343.725L705.084 348.925ZM702.034 350.043L703.664 349.664L701.978 349.111L696.049 346.911L695.803 351.632L702.034 350.043Z" fill="black"/>
<path d="M695.449 361.316C693.738 360.858 692.528 360.431 691.68 359.797C691.255 359.479 690.926 359.187 690.812 358.851C690.604 358.49 690.611 358.084 690.617 357.679C690.675 357.083 690.682 356.677 690.853 356.418L692.381 356.42C692.304 356.705 692.272 357.205 692.214 357.801C692.163 357.991 692.208 358.207 692.347 358.448C692.391 358.663 692.555 358.809 692.815 358.98C694.157 360.053 697.224 360.773 701.704 361.159L703.206 361.255L703.576 359.114L704.482 359.153L703.538 369.9L702.632 369.861L702.589 368.118L691.056 367.065L690.667 368.896L689.761 368.857L690.288 363.091L691.194 363.13L691.185 365.063L702.718 366.116L703.021 362.326L701.329 362.178C699.041 361.973 697.09 361.654 695.449 361.316Z" fill="black"/>
<path d="M697.09 377.238C696.898 378.714 696.377 379.899 695.483 380.576C694.683 381.278 693.606 381.499 692.319 381.358C690.938 381.191 689.899 380.506 689.248 379.516C688.596 378.527 688.427 377.259 688.618 375.783C688.669 375.593 688.72 375.403 688.676 375.187C688.632 374.972 688.778 374.807 688.854 374.522C689.033 373.857 689.116 373.166 689.269 372.596L689.646 370.048L690.526 370.183L690.499 371.805L702.07 373.479L702.572 371.984L703.453 372.118L702.648 377.403L701.767 377.269L701.655 375.405L697.347 374.76L697.09 377.238ZM689.856 374.586C689.805 374.776 689.703 375.157 689.696 375.562C689.511 376.633 689.713 377.4 690.251 378.054C690.789 378.707 691.498 379.101 692.594 379.191C693.57 379.35 694.432 379.174 694.965 378.706C695.593 378.263 695.892 377.528 696.077 376.457L696.371 374.601L690.085 373.731C689.983 374.111 689.907 374.396 689.856 374.586ZM700.795 389.639L699.915 389.504L699.967 387.787L688.492 386.138L688.034 387.849L687.153 387.715L687.888 382.31L688.769 382.444L688.716 384.161L700.192 385.81L700.65 384.099L701.531 384.234L700.795 389.639Z" fill="black"/>
<path d="M697.984 397.849L698.556 396.474L699.412 396.703L698.278 401.696L697.422 401.467L697.545 399.87L692.647 398.761L691.226 405.205L696.124 406.314L696.696 404.939L697.551 405.168L696.442 410.066L695.587 409.837L695.684 408.335L684.317 405.9L683.84 407.3L682.985 407.071L684.094 402.173L684.949 402.403L684.852 403.905L690.155 405.02L691.576 398.576L686.273 397.461L685.745 399.051L684.89 398.822L686.024 393.829L686.879 394.058L686.782 395.56L697.984 397.849Z" fill="black"/>
<path d="M694.952 416.389L694.417 418.385L680.84 419.636L680.345 420.725L679.489 420.496L680.668 415.719L681.523 415.948L681.306 417.52L684.196 417.377L685.501 412.125L683.044 410.652L682.446 412.121L681.591 411.892L682.642 407.59L683.497 407.82L683.382 409.011L694.952 416.389ZM691.795 416.765L693.538 416.723L692.024 415.91L686.686 412.646L685.558 417.233L691.795 416.765Z" fill="black"/>
<path d="M689.427 431.308L690.341 429.414L691.171 429.738L689.613 434.413L680.81 434.194L678.402 434.058L680.505 435.334L687.673 440.514L686.114 445.189L685.285 444.865L685.724 442.844L674.212 440.574L673.519 442.018L672.689 441.694L674.375 436.544L675.205 436.868L674.867 438.509L683.116 440.414L686.683 441.166L684.372 439.528L676.121 433.447L676.522 432.332L685.997 432.324L689.742 432.411L686.379 430.898L678.632 427.498L677.863 429.228L677.033 428.904L678.566 424.323L679.396 424.647L679.083 426.193L689.427 431.308Z" fill="black"/>
<path d="M683.495 451.923L682.77 453.868L669.152 453.376L668.586 454.345L667.757 454.021L669.6 449.422L670.43 449.746L670.022 451.267L672.931 451.435L674.902 446.361L672.642 444.533L671.854 445.952L671.024 445.627L672.645 441.478L673.475 441.802L673.264 442.968L683.495 451.923ZM680.25 451.868L681.942 452.016L680.575 451.038L675.725 447.091L674.027 451.525L680.25 451.868Z" fill="black"/>
<path d="M678.427 460.954L679.259 459.751L680.089 460.075L679.072 462.349C678.849 462.799 678.748 463.179 678.551 463.534C678.277 464.174 678.125 464.744 677.877 465.289C677.133 466.923 676.353 467.936 675.414 468.397C674.501 468.764 673.474 468.794 672.195 468.248C671.295 467.803 670.611 467.314 670.099 466.566C669.587 465.817 669.385 465.05 669.329 464.119C669.273 463.187 669.527 462.237 669.972 461.337C670.169 460.982 670.245 460.697 670.442 460.343C670.639 459.988 670.69 459.798 670.811 459.728L667.067 458.114L665.86 460.337L665.03 460.013L667.534 454.471L668.364 454.795L667.861 456.29L678.427 460.954ZM670.872 461.782C670.427 462.681 670.413 463.492 670.685 464.38C670.956 465.268 671.71 465.877 672.989 466.423C673.984 466.894 674.795 466.907 675.372 466.655C676.069 466.332 676.558 465.648 677.028 464.654C677.225 464.299 677.327 463.919 677.454 463.444C677.531 463.159 677.582 462.969 677.607 462.874L671.495 460.217C671.418 460.502 671.17 461.047 670.872 461.782Z" fill="black"/>
<path d="M661.96 468.052C662.924 467.495 664.027 467.18 665.149 467.175C666.365 467.195 667.601 467.526 668.855 468.168C670.109 468.809 671.122 469.59 671.774 470.579C672.52 471.594 672.836 472.697 672.936 473.845C673.036 474.992 672.825 476.158 672.209 477.317C671.765 478.216 671.104 479.16 670.298 480.268L669.955 480.787L667.023 479.187L667.519 478.097L669.894 478.734C670.11 478.69 670.376 478.455 670.668 478.126C670.96 477.797 671.183 477.347 671.525 476.828C671.919 476.119 672.002 475.428 671.826 474.566C671.719 473.824 671.302 473.101 670.694 472.327C670.061 471.648 669.213 471.014 668.054 470.398C666.964 469.902 665.944 469.527 664.969 469.367C663.993 469.208 663.061 469.263 662.243 469.655C661.45 469.952 660.892 470.516 660.447 471.415C660.174 472.055 659.952 472.505 659.945 472.91C659.843 473.29 659.862 473.601 659.975 473.937L661.311 475.415L660.651 476.359L658.434 474.746C658.511 474.461 658.613 474.081 658.74 473.606C658.867 473.131 658.874 472.725 659.001 472.25C659.103 471.87 659.351 471.325 659.599 470.78C660.215 469.621 660.97 468.703 661.96 468.052Z" fill="black"/>
<path d="M662.332 495.551L661.553 495.037L662.322 493.307L654.216 488.589L655.392 491.043L658.335 499.064L658.785 499.286L659.858 497.944L660.637 498.458L658.033 502.853L657.254 502.339L657.826 500.964L647.782 495.115L646.83 496.388L646.025 495.969L648.654 491.479L649.459 491.898L648.741 493.437L656.917 498.276L655.69 496.012L652.772 487.896L652.157 487.528L651.059 488.965L650.255 488.546L652.91 483.961L653.714 484.38L653.116 485.85L663.161 491.699L664.088 490.521L664.866 491.035L662.332 495.551Z" fill="black"/>
<path d="M655.614 506.177C655.367 506.722 655.239 507.197 655.042 507.552C654.846 507.907 654.649 508.261 654.477 508.521C653.62 509.819 652.77 510.712 651.857 511.078C650.944 511.445 650.037 511.406 649.163 510.866C648.29 510.326 647.872 509.603 647.696 508.741C647.519 507.879 647.628 507.093 647.978 506.168C647.317 507.112 646.544 507.719 645.681 507.896C644.819 508.072 644.034 507.963 643.255 507.449C642.121 506.738 641.444 505.844 641.344 504.696C641.218 503.644 641.575 502.314 642.603 500.756C642.972 500.142 643.41 499.648 643.848 499.154C644.26 498.755 644.647 498.451 644.913 498.217C645.18 497.983 645.326 497.819 645.421 497.844L647.941 499.843L647.427 500.622L645.127 499.701C644.525 500.048 643.966 500.612 643.306 501.555C642.817 502.239 642.734 502.93 642.866 503.576C642.999 504.223 643.562 504.781 644.436 505.321C645.05 505.689 645.715 505.868 646.457 505.761C647.199 505.654 647.852 505.116 648.392 504.242L649.103 503.109L649.977 503.648L649.437 504.522C649.12 504.947 648.993 505.422 648.865 505.897C648.833 506.397 648.896 506.924 649.079 507.38C649.262 507.837 649.661 508.249 650.18 508.592C650.864 509.081 651.555 509.164 652.106 509.006C652.658 508.848 653.191 508.38 653.68 507.696C653.997 507.272 654.219 506.822 654.226 506.417C654.328 506.036 654.309 505.726 654.17 505.485L652.879 504.222L653.539 503.279L656.022 504.657C655.964 505.253 655.767 505.607 655.614 506.177Z" fill="black"/>
<path d="M645.827 519.139L646.943 518.012L647.722 518.527L646.256 520.578C645.964 520.908 645.741 521.357 645.373 521.972C645.03 522.491 644.833 522.845 644.662 523.105C643.684 524.473 642.739 525.34 641.851 525.611C640.964 525.883 640.083 525.749 639.33 525.139C638.646 524.651 638.108 523.997 637.931 523.135C637.73 522.368 637.838 521.582 638.162 520.752C637.502 521.696 636.728 522.303 635.841 522.575C634.979 522.751 634.098 522.617 633.344 522.008C632.331 521.227 631.775 520.263 631.675 519.116C631.575 517.969 632.077 516.474 633.321 514.872C633.613 514.542 633.81 514.188 634.102 513.859C634.711 513.105 635.054 512.586 635.175 512.516L636.641 510.465L637.42 510.979L636.658 512.303L645.827 519.139ZM633.91 515.335C633.129 516.348 632.875 517.298 632.886 518.015C632.898 518.731 633.411 519.479 634.19 519.993C634.943 520.603 635.703 520.806 636.35 520.674C636.997 520.542 637.65 520.004 638.285 519.155C639.065 518.142 639.459 517.433 639.631 517.173L635.103 513.923C634.983 513.993 634.545 514.487 633.91 515.335ZM639.965 518.587L639.33 519.436C638.841 520.119 638.663 520.785 638.795 521.431C638.928 522.078 639.371 522.706 640.054 523.195C640.738 523.683 641.404 523.862 642.025 523.824C642.576 523.667 643.204 523.224 643.864 522.28C644.156 521.951 644.379 521.501 644.576 521.147L644.773 520.792L640.6 517.739C640.549 517.929 640.282 518.163 639.965 518.587Z" fill="black"/>
<path d="M637.051 532.881L635.807 534.483L622.852 529.993L622.027 530.791L621.274 530.181L624.346 526.319L625.099 526.928L624.242 528.226L626.922 529.25L630.311 524.963L628.704 522.598L627.588 523.724L626.834 523.115L629.589 519.677L630.342 520.286L629.752 521.35L637.051 532.881ZM633.966 531.851L635.531 532.473L634.48 531.072L630.988 525.858L628.062 529.556L633.966 531.851Z" fill="black"/>
<path d="M619.699 533.019C620.802 532.703 621.924 532.698 623.064 533.004C624.205 533.309 625.338 534.021 626.421 534.922C627.503 535.823 628.25 536.838 628.661 537.967C629.071 539.095 629.171 540.242 628.961 541.408C628.75 542.574 628.16 543.638 627.404 544.556C626.795 545.31 625.875 546.082 624.835 546.923L624.327 547.297L621.909 544.917L622.759 544.025L624.887 545.206C625.103 545.162 625.439 545.048 625.826 544.744C626.187 544.536 626.6 544.137 626.943 543.618C627.501 543.054 627.8 542.319 627.814 541.508C627.922 540.723 627.72 539.955 627.233 539.112C626.746 538.268 626.164 537.4 625.151 536.619C624.233 535.863 623.385 535.229 622.46 534.879C621.535 534.529 620.654 534.395 619.818 534.477C618.981 534.558 618.258 534.975 617.649 535.729C617.211 536.223 616.893 536.647 616.791 537.027C616.595 537.382 616.613 537.692 616.537 537.977L617.39 539.734L616.47 540.506L614.787 538.425C614.933 538.261 615.13 537.906 615.378 537.361C615.6 536.912 615.797 536.557 615.994 536.202C616.191 535.848 616.508 535.423 616.946 534.929C617.581 534.081 618.596 533.334 619.699 533.019Z" fill="black"/>
<path d="M615.784 552.952C616.099 554.055 616.13 555.082 615.875 556.032C615.62 556.983 615.176 557.882 614.376 558.585C613.526 559.477 612.562 560.034 611.579 560.28C610.597 560.526 609.5 560.436 608.481 560.061C607.461 559.685 606.422 559 605.435 558.124C604.377 557.128 603.561 555.992 603.176 554.769C602.765 553.64 602.57 552.467 602.85 551.422C603.036 550.351 603.601 549.382 604.331 548.559C605.181 547.667 606.145 547.11 607.153 546.769C608.136 546.523 609.232 546.613 610.252 546.988C611.272 547.363 612.31 548.049 613.298 548.925L615.411 546.741L611.442 542.927L610.16 543.908L609.527 543.229L613.075 539.494L613.733 540.078L612.781 541.351L621.118 549.39L622.279 548.479L622.912 549.158L619.39 552.798L618.757 552.119L619.709 550.846L616.069 547.325L613.956 549.509C614.937 550.79 615.468 551.849 615.784 552.952ZM614.609 554.675C614.319 553.476 613.459 552.126 612.003 550.717C610.711 549.454 609.388 548.692 608.127 548.456C606.866 548.22 605.763 548.536 604.913 549.428C604.062 550.321 603.808 551.271 604.098 552.469C604.388 553.667 605.248 555.018 606.799 556.452C608.09 557.715 609.319 558.452 610.555 558.783C611.79 559.114 612.798 558.773 613.648 557.88C614.499 556.988 614.779 555.942 614.609 554.675Z" fill="black"/>
<path d="M597.512 563.742C596.726 563.634 595.681 563.354 594.446 563.022C593.59 562.793 592.925 562.615 592.45 562.488C592.07 562.386 591.759 562.405 591.518 562.544L590.821 562.866L590.188 562.187L591.837 560.592C592.078 560.453 592.414 560.339 593.08 560.517C593.65 560.67 594.505 560.899 595.646 561.205C596.856 561.631 597.806 561.886 598.592 561.994C599.257 562.173 599.783 562.11 600.075 561.781L600.9 560.983L597.267 557.056L595.89 558.011L595.257 557.332L599.039 553.864L599.672 554.543L598.65 555.695L606.549 564.228L607.805 563.343L608.438 564.022L604.777 567.42L604.144 566.742L605.096 565.469L601.463 561.541L600.251 562.643L601.143 569.197L602.399 568.311L603.032 568.99L599.638 572.155L599.005 571.476L599.932 570.298L599.186 563.58C599.014 563.839 598.298 563.851 597.512 563.742Z" fill="black"/>
<path d="M588.233 564.923C589.285 564.797 590.356 564.982 591.325 565.547C592.414 566.043 593.307 566.893 594.243 567.959C595.18 569.025 595.781 570.205 596.071 571.403C596.361 572.601 596.366 573.723 595.991 574.742C595.616 575.762 595.05 576.731 594.13 577.503C592.678 578.744 591.118 579.243 589.547 579.025C587.975 578.808 586.512 577.805 585.012 576.181C584.076 575.115 583.475 573.935 583.185 572.737C582.895 571.539 582.89 570.417 583.29 569.302C583.596 568.162 584.231 567.313 585.151 566.541C586.147 565.484 587.18 565.048 588.233 564.923ZM594.794 573.505C594.625 572.237 593.885 570.817 592.55 569.339C591.309 567.886 590.106 567.054 588.896 566.628C587.686 566.202 586.608 566.423 585.688 567.195C584.769 567.967 584.393 568.987 584.563 570.254C584.733 571.522 585.472 572.943 586.782 574.516C588.023 575.969 589.226 576.8 590.436 577.227C591.671 577.558 592.749 577.337 593.669 576.565C594.589 575.793 594.964 574.773 594.794 573.505Z" fill="black"/>
<path d="M586.101 582.38L587.427 581.615L588.034 582.389L586.099 583.908C585.738 584.116 585.325 584.515 584.887 585.009C584.475 585.408 584.088 585.711 583.847 585.851C582.445 586.901 581.386 587.432 580.455 587.488C579.523 587.544 578.718 587.125 578.111 586.351C577.573 585.697 577.276 584.905 577.29 584.094C577.303 583.282 577.602 582.548 578.186 581.889C577.266 582.661 576.353 583.028 575.447 582.989C574.541 582.949 573.736 582.53 573.129 581.756C572.382 580.741 572.067 579.638 572.277 578.472C572.488 577.307 573.44 576.034 574.988 574.819C575.375 574.515 575.736 574.306 576.003 574.072C576.777 573.465 577.258 573.187 577.404 573.022L579.339 571.503L579.852 572.252L578.735 573.378L586.101 582.38ZM575.716 575.523C574.701 576.27 574.186 577.049 574.078 577.834C573.969 578.62 574.171 579.387 574.778 580.161C575.386 580.935 576 581.303 576.691 581.387C577.382 581.47 578.079 581.147 578.974 580.47C579.988 579.724 580.642 579.186 580.813 578.926L577.403 574.549C577.022 574.447 576.515 574.821 575.716 575.523ZM580.647 580.308L579.873 580.915C579.22 581.453 578.851 582.067 578.768 582.758C578.685 583.449 578.912 584.121 579.545 584.8C580.083 585.453 580.697 585.821 581.293 585.879C581.889 585.937 582.586 585.615 583.481 584.938C583.868 584.634 584.16 584.305 584.546 584.001L584.813 583.767L581.636 579.656C581.3 579.77 581.034 580.004 580.647 580.308Z" fill="black"/>
<g style="mix-blend-mode:overlay">
<circle cx="171.44" cy="114.395" r="2" fill="black"/>
</g>
<g style="mix-blend-mode:overlay">
<circle cx="575.939" cy="88.7654" r="2" fill="black"/>
</g>
</g>
</svg>
