<?xml version="1.0"?>
<svg width="16" height="16" xmlns="http://www.w3.org/2000/svg" xmlns:svg="http://www.w3.org/2000/svg">
 <g class="layer">
  <title>Layer 1</title>
  <path d="m8.26,13.69l3.29,0c0,0 0,0 0,0l0,-0.03c0,-0.02 -0.01,-0.04 -0.02,-0.05c0,-0.01 0,-0.02 0,-0.02c0,-0.02 -0.01,-0.05 -0.02,-0.07l0,0c-0.01,-0.03 -0.02,-0.05 -0.02,-0.07l0,-0.02c-0.01,-0.02 -0.01,-0.04 -0.02,-0.05c0,-0.01 -0.01,-0.02 -0.01,-0.03c0,-0.02 -0.01,-0.04 -0.02,-0.05c0,-0.01 0,-0.02 -0.01,-0.02c-0.01,-0.02 -0.02,-0.04 -0.02,-0.06c0,0 0,-0.01 0,-0.01c-0.01,-0.02 -0.02,-0.05 -0.03,-0.07c0,-0.01 -0.01,-0.02 -0.01,-0.02c-0.01,-0.02 -0.01,-0.03 -0.02,-0.05l-0.01,-0.03c-0.01,-0.02 -0.02,-0.03 -0.02,-0.04c0,-0.01 -0.01,-0.02 -0.02,-0.03c-0.01,-0.02 -0.01,-0.04 -0.02,-0.05c0,-0.01 0,-0.02 -0.01,-0.02c-0.01,-0.02 -0.02,-0.04 -0.04,-0.07l-0.02,-0.03l-0.02,-0.04l-0.02,-0.03c0,-0.02 -0.01,-0.03 -0.02,-0.04c-0.01,-0.01 -0.01,-0.02 -0.02,-0.03c-0.01,-0.02 -0.01,-0.03 -0.02,-0.04l-0.02,-0.04c-0.01,-0.02 -0.02,-0.03 -0.04,-0.05c0,-0.01 -0.01,-0.02 -0.02,-0.03c-0.01,-0.01 -0.02,-0.02 -0.02,-0.03c-0.01,-0.01 -0.02,-0.02 -0.02,-0.03c-0.01,-0.01 -0.02,-0.02 -0.02,-0.03c0,-0.01 -0.02,-0.02 -0.02,-0.03l-0.02,-0.03c-0.02,-0.02 -0.03,-0.04 -0.05,-0.06l-0.02,-0.02c-0.01,-0.01 -0.02,-0.02 -0.03,-0.04l-0.02,-0.02c-0.01,-0.01 -0.02,-0.02 -0.03,-0.04l-0.02,-0.02l-0.03,-0.03l-0.02,-0.02c-0.04,-0.04 -0.07,-0.08 -0.11,-0.12l-0.02,-0.02l-0.04,-0.04l-0.02,-0.02c-0.01,-0.01 -0.02,-0.02 -0.04,-0.03l-0.02,-0.01c-0.04,-0.04 -0.09,-0.08 -0.13,-0.12l-0.01,-0.01c-0.02,-0.01 -0.03,-0.02 -0.04,-0.04l-0.02,-0.01c-0.02,-0.01 -0.03,-0.02 -0.04,-0.04l-0.01,0c-0.05,-0.04 -0.1,-0.08 -0.15,-0.11l-0.01,0c-0.02,-0.01 -0.04,-0.02 -0.05,-0.04l-0.01,-0.01c-0.02,-0.01 -0.03,-0.02 -0.05,-0.03l0,0c-0.05,-0.04 -0.11,-0.07 -0.17,-0.1l0,0c-0.02,-0.01 -0.04,-0.02 -0.05,-0.03l-0.01,0c-0.1,-0.05 -0.2,-0.1 -0.3,-0.15l-0.01,0c-0.03,-0.02 -0.05,-0.02 -0.08,-0.04l0.55,0c0.09,0 0.16,-0.1 0.16,-0.22c0,-0.12 -0.07,-0.22 -0.16,-0.22l-0.16,0c0.01,-0.03 0.02,-0.05 0.03,-0.09c0.16,-0.09 0.43,-0.29 0.7,-0.64l0,0c0.02,-0.03 0.04,-0.05 0.06,-0.09l0,0c0.02,-0.03 0.04,-0.06 0.06,-0.09l0,-0.01c0.01,-0.01 0.02,-0.03 0.03,-0.04c0,0 0,0 0,0c0.01,-0.02 0.02,-0.03 0.03,-0.05l0,-0.01c0.01,-0.01 0.02,-0.03 0.03,-0.04c0,0 0,0 0,-0.01c0.01,-0.02 0.02,-0.03 0.03,-0.05l0,-0.01c0.01,-0.02 0.02,-0.03 0.02,-0.04c0,0 0,-0.01 0.01,-0.01c0.01,-0.02 0.02,-0.03 0.02,-0.05l0.01,-0.01c0,-0.01 0.01,-0.03 0.02,-0.04l0.01,-0.02c0.01,-0.02 0.02,-0.04 0.02,-0.05l0,-0.01c0.01,-0.02 0.02,-0.03 0.02,-0.05l0.01,-0.02c0.01,-0.02 0.02,-0.04 0.02,-0.05c0,0 0,-0.01 0,-0.01c0.01,-0.02 0.02,-0.04 0.02,-0.05l0.01,-0.02c0,-0.02 0.01,-0.03 0.02,-0.05l0,-0.01c0.01,-0.02 0.01,-0.04 0.02,-0.06l0.01,-0.02c0.01,-0.02 0.01,-0.03 0.02,-0.05c0,-0.01 0,-0.01 0.01,-0.02c0.01,-0.02 0.01,-0.04 0.02,-0.06c0,-0.01 0,-0.02 0.01,-0.02l0.02,-0.05c0,-0.01 0,-0.02 0,-0.02c0.01,-0.02 0.01,-0.04 0.02,-0.07c0,-0.01 0,-0.01 0,-0.02c0.01,-0.02 0.01,-0.04 0.02,-0.05c0,-0.01 0,-0.02 0,-0.02c0.01,-0.02 0.01,-0.05 0.02,-0.07l0,-0.02c0,-0.02 0.01,-0.04 0.01,-0.05l0.01,-0.02c0,-0.02 0.01,-0.05 0.02,-0.07c0,-0.01 0,-0.01 0,-0.02c0.01,-0.02 0.01,-0.04 0.02,-0.06c0,-0.01 0,-0.02 0,-0.03c0,-0.02 0.01,-0.04 0.01,-0.07c0,0 0,-0.01 0,-0.01c0,-0.03 0.01,-0.05 0.01,-0.08c0,-0.01 0,-0.02 0,-0.03c0,-0.02 0,-0.04 0.01,-0.06l0,-0.02c0,-0.02 0.01,-0.05 0.01,-0.08c0,-0.01 0,-0.02 0,-0.03c0,-0.02 0.01,-0.04 0.01,-0.07c0,-0.01 0,-0.02 0,-0.02c0,-0.03 0,-0.05 0.01,-0.09c0,-0.01 0,-0.02 0,-0.02c0,-0.02 0,-0.05 0,-0.07c0,-0.01 0,-0.02 0,-0.03c0,-0.03 0,-0.06 0,-0.09c0,0 0,-0.01 0,-0.02c0,-0.02 0,-0.05 0,-0.07c0,-0.01 0,-0.02 0,-0.03c0,-0.03 0,-0.07 0,-0.1c0,0 0,-0.01 0,-0.01c0,-0.03 0,-0.06 0,-0.09c0,-0.01 0,-0.02 0,-0.03c0,-0.03 0,-0.06 0,-0.09l0,-0.01c0,-0.03 0,-0.07 0,-0.1l0,-0.03c0,-0.03 0,-0.06 0,-0.09l0,-0.02c0,-0.04 0,-0.07 0,-0.11c0,-0.01 0,-0.02 0,-0.03c0,-0.03 0,-0.06 0,-0.09c0,-0.01 0,-0.02 0,-0.02c0,-0.04 0,-0.07 -0.01,-0.11l0,-0.03c0,-0.03 0,-0.06 0,-0.09c0,-0.01 0,-0.02 0,-0.03c0,-0.04 -0.01,-0.07 -0.01,-0.11c0,-0.01 0,-0.02 0,-0.02c0,-0.03 -0.01,-0.07 -0.01,-0.1c0,-0.01 0,-0.02 0,-0.03c0,-0.04 -0.01,-0.08 -0.01,-0.12c0,0 0,-0.01 0,-0.01c0,-0.04 -0.01,-0.07 -0.01,-0.11c0,-0.01 0,-0.02 -0.01,-0.04c0,-0.04 -0.01,-0.08 -0.02,-0.13c-0.62,-4.17 -4.99,-3.49 -4.99,-3.49l0.14,0.9l-2.65,2.65l0.12,1.02l1,0.58c0.05,-0.11 0.1,-0.21 0.17,-0.3c0.64,-0.71 1.9,-1.26 2.26,-1.38c0.07,-0.02 0.11,-0.04 0.11,-0.04c-1.72,2.11 -1.52,4.52 -1.45,5.1c-0.08,0.02 -0.14,0.11 -0.14,0.22c0,0.12 0.07,0.22 0.16,0.22l0.55,0c-0.92,0.36 -1.65,1.06 -2.03,1.93c0,0 0,0 0,0c-0.03,0.06 -0.05,0.13 -0.08,0.2c0,0 0,0 0,0c-0.01,0.02 -0.02,0.04 -0.02,0.05c0,0 0,0.01 -0.01,0.02c0,0.02 -0.01,0.03 -0.02,0.05c0,0.01 0,0.02 -0.01,0.03c0,0.02 -0.01,0.03 -0.02,0.05l-0.01,0.03c0,0.01 -0.01,0.03 -0.01,0.04c0,0.01 0,0.02 -0.01,0.03c0,0.02 -0.01,0.03 -0.01,0.05c0,0.01 -0.01,0.03 -0.01,0.04c0,0.02 -0.01,0.04 -0.01,0.05l-0.22,0c-0.04,0 -0.09,0.01 -0.13,0.02c-0.04,0.02 -0.07,0.04 -0.11,0.07c-0.03,0.03 -0.05,0.06 -0.07,0.1c-0.02,0.04 -0.02,0.08 -0.02,0.12c0,0.04 0.01,0.08 0.02,0.12c0.02,0.04 0.04,0.07 0.07,0.1c0.03,0.03 0.07,0.05 0.11,0.07c0.04,0.02 0.08,0.02 0.13,0.02l7.81,0c0.04,0 0.08,0 0.12,-0.02c0.04,-0.02 0.07,-0.04 0.11,-0.07c0.03,-0.03 0.05,-0.06 0.07,-0.1c0.02,-0.04 0.03,-0.08 0.03,-0.12c0,-0.04 -0.01,-0.08 -0.03,-0.12c-0.02,-0.04 -0.04,-0.07 -0.07,-0.1c-0.03,-0.03 -0.07,-0.05 -0.11,-0.07c-0.04,-0.01 -0.08,-0.02 -0.12,-0.02l-3.51,0z" fill="#595653" id="svg_1"/>
 </g>
</svg>